<?xml version="1.0" encoding="UTF-8" standalone="no"?>
<!DOCTYPE svg PUBLIC "-//W3C//DTD SVG 1.1//EN"
 "http://www.w3.org/Graphics/SVG/1.1/DTD/svg11.dtd">
<!-- Generated by graphviz version 14.1.4 (20260321.0153)
 -->
<!-- Title: weather_pipeline Pages: 1 -->
<svg width="1677pt" height="922pt"
 viewBox="0.00 0.00 1677.00 922.00" xmlns="http://www.w3.org/2000/svg" xmlns:xlink="http://www.w3.org/1999/xlink">
<g id="graph0" class="graph" transform="scale(1 1) rotate(0) translate(28.8 893.05)">
<title>weather_pipeline</title>
<polygon fill="white" stroke="none" points="-28.8,28.8 -28.8,-893.05 1647.8,-893.05 1647.8,28.8 -28.8,28.8"/>
<text xml:space="preserve" text-anchor="middle" x="809.5" y="-846.95" font-family="Helvetica,sans-Serif" font-size="14.00" fill="#333333">Weather Pipeline — Open&#45;Meteo Ingest + Anomaly Detection (25 Indian Cities)</text>
<g id="clust1" class="cluster">
<title>cluster_scraper</title>
<polygon fill="#b2dfdb" stroke="#00695c" points="515,-623.5 515,-718.5 1315,-718.5 1315,-623.5 515,-623.5"/>
<text xml:space="preserve" text-anchor="middle" x="915" y="-701.2" font-family="Helvetica,sans-Serif" font-size="14.00" fill="#004d40">WeatherScraper</text>
</g>
<g id="clust2" class="cluster">
<title>cluster_anomaly</title>
<polygon fill="#b2dfdb" stroke="#00695c" points="8,-180.5 8,-419.75 1318,-419.75 1318,-180.5 8,-180.5"/>
<text xml:space="preserve" text-anchor="middle" x="663" y="-402.45" font-family="Helvetica,sans-Serif" font-size="14.00" fill="#004d40">WeatherAnomalyDetector</text>
</g>
<g id="clust3" class="cluster">
<title>cluster_trend</title>
<polygon fill="#b2dfdb" stroke="#00695c" points="310,-483.25 310,-558.25 714,-558.25 714,-483.25 310,-483.25"/>
<text xml:space="preserve" text-anchor="middle" x="512" y="-540.95" font-family="Helvetica,sans-Serif" font-size="14.00" fill="#004d40">WeatherTrendAnalyzer</text>
</g>
<!-- openmeteo -->
<g id="node1" class="node">
<title>openmeteo</title>
<polygon fill="#e3f2fd" stroke="#1565c0" points="1001.88,-841.25 772.12,-841.25 772.12,-761.25 1001.88,-761.25 1001.88,-841.25"/>
<text xml:space="preserve" text-anchor="middle" x="887" y="-826.8" font-family="Helvetica,sans-Serif" font-size="11.00">Open&#45;Meteo API</text>
<text xml:space="preserve" text-anchor="middle" x="887" y="-814.8" font-family="Helvetica,sans-Serif" font-size="11.00">━━━━━━━━━━━━━━━━━━━</text>
<text xml:space="preserve" text-anchor="middle" x="887" y="-802.8" font-family="Helvetica,sans-Serif" font-size="11.00">Forecast (7&#45;day)</text>
<text xml:space="preserve" text-anchor="middle" x="887" y="-790.8" font-family="Helvetica,sans-Serif" font-size="11.00">Archive (1940–present)</text>
<text xml:space="preserve" text-anchor="middle" x="887" y="-778.8" font-family="Helvetica,sans-Serif" font-size="11.00">Climate (30&#45;yr normals)</text>
<text xml:space="preserve" text-anchor="middle" x="887" y="-766.8" font-family="Helvetica,sans-Serif" font-size="11.00">Free, no API key</text>
</g>
<!-- fetch_hist -->
<g id="node2" class="node">
<title>fetch_hist</title>
<polygon fill="#e0f2f1" stroke="#00695c" points="741.25,-687.5 522.75,-687.5 522.75,-631.5 741.25,-631.5 741.25,-687.5"/>
<text xml:space="preserve" text-anchor="middle" x="632" y="-673.05" font-family="Helvetica,sans-Serif" font-size="11.00">fetch_historical()</text>
<text xml:space="preserve" text-anchor="middle" x="632" y="-661.05" font-family="Helvetica,sans-Serif" font-size="11.00">━━━━━━━━━━━━━━━━━━</text>
<text xml:space="preserve" text-anchor="middle" x="632" y="-649.05" font-family="Helvetica,sans-Serif" font-size="11.00">EC_Earth3P_HR model</text>
<text xml:space="preserve" text-anchor="middle" x="632" y="-637.05" font-family="Helvetica,sans-Serif" font-size="11.00">Daily observations</text>
</g>
<!-- openmeteo&#45;&gt;fetch_hist -->
<g id="edge1" class="edge">
<title>openmeteo&#45;&gt;fetch_hist</title>
<path fill="none" stroke="#1565c0" d="M814.95,-760.76C776.18,-739.52 728.91,-713.61 692.14,-693.46"/>
<polygon fill="#1565c0" stroke="#1565c0" points="693.84,-690.4 683.38,-688.66 690.47,-696.54 693.84,-690.4"/>
<text xml:space="preserve" text-anchor="middle" x="779.15" y="-727.7" font-family="Helvetica,sans-Serif" font-size="9.00">REST</text>
</g>
<!-- fetch_forecast -->
<g id="node3" class="node">
<title>fetch_forecast</title>
<polygon fill="#e0f2f1" stroke="#00695c" points="996.25,-687.5 777.75,-687.5 777.75,-631.5 996.25,-631.5 996.25,-687.5"/>
<text xml:space="preserve" text-anchor="middle" x="887" y="-673.05" font-family="Helvetica,sans-Serif" font-size="11.00">fetch_forecast()</text>
<text xml:space="preserve" text-anchor="middle" x="887" y="-661.05" font-family="Helvetica,sans-Serif" font-size="11.00">━━━━━━━━━━━━━━━━━━</text>
<text xml:space="preserve" text-anchor="middle" x="887" y="-649.05" font-family="Helvetica,sans-Serif" font-size="11.00">7&#45;day forecast</text>
<text xml:space="preserve" text-anchor="middle" x="887" y="-637.05" font-family="Helvetica,sans-Serif" font-size="11.00">16 weather variables</text>
</g>
<!-- openmeteo&#45;&gt;fetch_forecast -->
<g id="edge2" class="edge">
<title>openmeteo&#45;&gt;fetch_forecast</title>
<path fill="none" stroke="#1565c0" d="M887,-760.95C887,-741.56 887,-718.26 887,-698.98"/>
<polygon fill="#1565c0" stroke="#1565c0" points="890.5,-699.09 887,-689.09 883.5,-699.09 890.5,-699.09"/>
<text xml:space="preserve" text-anchor="middle" x="899" y="-727.7" font-family="Helvetica,sans-Serif" font-size="9.00">REST</text>
</g>
<!-- fetch_normals -->
<g id="node4" class="node">
<title>fetch_normals</title>
<polygon fill="#e0f2f1" stroke="#00695c" points="1307.38,-687.5 1032.62,-687.5 1032.62,-631.5 1307.38,-631.5 1307.38,-687.5"/>
<text xml:space="preserve" text-anchor="middle" x="1170" y="-673.05" font-family="Helvetica,sans-Serif" font-size="11.00">fetch_climate_normals()</text>
<text xml:space="preserve" text-anchor="middle" x="1170" y="-661.05" font-family="Helvetica,sans-Serif" font-size="11.00">━━━━━━━━━━━━━━━━━━━━━━━</text>
<text xml:space="preserve" text-anchor="middle" x="1170" y="-649.05" font-family="Helvetica,sans-Serif" font-size="11.00">30&#45;year baselines</text>
<text xml:space="preserve" text-anchor="middle" x="1170" y="-637.05" font-family="Helvetica,sans-Serif" font-size="11.00">(1991–2020)</text>
</g>
<!-- openmeteo&#45;&gt;fetch_normals -->
<g id="edge3" class="edge">
<title>openmeteo&#45;&gt;fetch_normals</title>
<path fill="none" stroke="#1565c0" d="M966.96,-760.76C1010.36,-739.33 1063.34,-713.17 1104.31,-692.94"/>
<polygon fill="#1565c0" stroke="#1565c0" points="1105.67,-696.17 1113.09,-688.6 1102.57,-689.89 1105.67,-696.17"/>
<text xml:space="preserve" text-anchor="middle" x="1040.5" y="-727.7" font-family="Helvetica,sans-Serif" font-size="9.00">REST</text>
</g>
<!-- zscore -->
<g id="node5" class="node">
<title>zscore</title>
<polygon fill="#e0f2f1" stroke="#00695c" points="1032.88,-388.75 803.12,-388.75 803.12,-332.75 1032.88,-332.75 1032.88,-388.75"/>
<text xml:space="preserve" text-anchor="middle" x="918" y="-374.3" font-family="Helvetica,sans-Serif" font-size="11.00">Z&#45;Score Computation</text>
<text xml:space="preserve" text-anchor="middle" x="918" y="-362.3" font-family="Helvetica,sans-Serif" font-size="11.00">━━━━━━━━━━━━━━━━━━━</text>
<text xml:space="preserve" text-anchor="middle" x="918" y="-350.3" font-family="Helvetica,sans-Serif" font-size="11.00">Per variable vs</text>
<text xml:space="preserve" text-anchor="middle" x="918" y="-338.3" font-family="Helvetica,sans-Serif" font-size="11.00">climate normals</text>
</g>
<!-- fetch_hist&#45;&gt;zscore -->
<g id="edge4" class="edge">
<title>fetch_hist&#45;&gt;zscore</title>
<path fill="none" stroke="#00695c" d="M658.39,-631.11C710.43,-577.12 826.21,-456.99 883.92,-397.11"/>
<polygon fill="#00695c" stroke="#00695c" points="886.2,-399.79 890.62,-390.16 881.16,-394.93 886.2,-399.79"/>
<text xml:space="preserve" text-anchor="middle" x="851.08" y="-505.57" font-family="Helvetica,sans-Serif" font-size="9.00">daily DataFrame</text>
</g>
<!-- annual -->
<g id="node11" class="node">
<title>annual</title>
<polygon fill="#e0f2f1" stroke="#00695c" points="567.5,-527.25 464.5,-527.25 464.5,-491.25 567.5,-491.25 567.5,-527.25"/>
<text xml:space="preserve" text-anchor="middle" x="516" y="-510.8" font-family="Helvetica,sans-Serif" font-size="11.00">Annual Trend</text>
<text xml:space="preserve" text-anchor="middle" x="516" y="-498.8" font-family="Helvetica,sans-Serif" font-size="11.00">(linear regression)</text>
</g>
<!-- fetch_hist&#45;&gt;annual -->
<g id="edge20" class="edge">
<title>fetch_hist&#45;&gt;annual</title>
<path fill="none" stroke="#00695c" d="M610.32,-631.09C602.7,-621.43 594.08,-610.49 586.25,-600.5 569.36,-578.94 550.27,-554.41 536.26,-536.37"/>
<polygon fill="#00695c" stroke="#00695c" points="539.26,-534.53 530.36,-528.77 533.73,-538.82 539.26,-534.53"/>
<text xml:space="preserve" text-anchor="middle" x="609.12" y="-591.95" font-family="Helvetica,sans-Serif" font-size="9.00">historical</text>
<text xml:space="preserve" text-anchor="middle" x="609.12" y="-582.2" font-family="Helvetica,sans-Serif" font-size="9.00">DataFrame</text>
</g>
<!-- monsoon -->
<g id="node12" class="node">
<title>monsoon</title>
<polygon fill="#e0f2f1" stroke="#00695c" points="706.12,-527.25 603.88,-527.25 603.88,-491.25 706.12,-491.25 706.12,-527.25"/>
<text xml:space="preserve" text-anchor="middle" x="655" y="-510.8" font-family="Helvetica,sans-Serif" font-size="11.00">Monsoon Analysis</text>
<text xml:space="preserve" text-anchor="middle" x="655" y="-498.8" font-family="Helvetica,sans-Serif" font-size="11.00">(Jun–Sep rainfall)</text>
</g>
<!-- fetch_hist&#45;&gt;monsoon -->
<g id="edge21" class="edge">
<title>fetch_hist&#45;&gt;monsoon</title>
<path fill="none" stroke="#00695c" d="M636.22,-631.31C640.29,-605.07 646.43,-565.5 650.57,-538.8"/>
<polygon fill="#00695c" stroke="#00695c" points="654.01,-539.46 652.09,-529.04 647.09,-538.38 654.01,-539.46"/>
</g>
<!-- extreme_freq -->
<g id="node13" class="node">
<title>extreme_freq</title>
<polygon fill="#e0f2f1" stroke="#00695c" points="428.25,-527.25 317.75,-527.25 317.75,-491.25 428.25,-491.25 428.25,-527.25"/>
<text xml:space="preserve" text-anchor="middle" x="373" y="-510.8" font-family="Helvetica,sans-Serif" font-size="11.00">Extreme Frequency</text>
<text xml:space="preserve" text-anchor="middle" x="373" y="-498.8" font-family="Helvetica,sans-Serif" font-size="11.00">Tracking</text>
</g>
<!-- fetch_hist&#45;&gt;extreme_freq -->
<g id="edge22" class="edge">
<title>fetch_hist&#45;&gt;extreme_freq</title>
<path fill="none" stroke="#00695c" d="M578.75,-631.07C541.45,-611.51 490.66,-584.18 447,-558.25 434.12,-550.6 420.27,-541.78 408.08,-533.81"/>
<polygon fill="#00695c" stroke="#00695c" points="410.25,-531.05 399.98,-528.47 406.4,-536.9 410.25,-531.05"/>
</g>
<!-- fetch_forecast&#45;&gt;zscore -->
<g id="edge5" class="edge">
<title>fetch_forecast&#45;&gt;zscore</title>
<path fill="none" stroke="#00695c" d="M889.86,-631.11C895.4,-578.12 907.59,-461.39 913.95,-400.47"/>
<polygon fill="#00695c" stroke="#00695c" points="917.43,-400.88 914.99,-390.57 910.47,-400.16 917.43,-400.88"/>
<text xml:space="preserve" text-anchor="middle" x="940.84" y="-505.57" font-family="Helvetica,sans-Serif" font-size="9.00">daily DataFrame</text>
</g>
<!-- climate_db -->
<g id="node16" class="node">
<title>climate_db</title>
<path fill="#e0f2f1" stroke="#00695c" d="M1279.25,-547.5C1279.25,-552.19 1230.28,-556 1170,-556 1109.72,-556 1060.75,-552.19 1060.75,-547.5 1060.75,-547.5 1060.75,-471 1060.75,-471 1060.75,-466.31 1109.72,-462.5 1170,-462.5 1230.28,-462.5 1279.25,-466.31 1279.25,-471 1279.25,-471 1279.25,-547.5 1279.25,-547.5"/>
<path fill="none" stroke="#00695c" d="M1279.25,-547.5C1279.25,-542.81 1230.28,-539 1170,-539 1109.72,-539 1060.75,-542.81 1060.75,-547.5"/>
<text xml:space="preserve" text-anchor="middle" x="1170" y="-528.8" font-family="Helvetica,sans-Serif" font-size="11.00">Climate Normals</text>
<text xml:space="preserve" text-anchor="middle" x="1170" y="-516.8" font-family="Helvetica,sans-Serif" font-size="11.00">(Postgres)</text>
<text xml:space="preserve" text-anchor="middle" x="1170" y="-504.8" font-family="Helvetica,sans-Serif" font-size="11.00">━━━━━━━━━━━━━━━━━━</text>
<text xml:space="preserve" text-anchor="middle" x="1170" y="-492.8" font-family="Helvetica,sans-Serif" font-size="11.00">30&#45;yr monthly baselines</text>
<text xml:space="preserve" text-anchor="middle" x="1170" y="-480.8" font-family="Helvetica,sans-Serif" font-size="11.00">mean, std, percentiles</text>
</g>
<!-- fetch_normals&#45;&gt;climate_db -->
<g id="edge6" class="edge">
<title>fetch_normals&#45;&gt;climate_db</title>
<path fill="none" stroke="#00695c" stroke-dasharray="5,2" d="M1170,-631.31C1170,-613.51 1170,-589.59 1170,-567.7"/>
<polygon fill="#00695c" stroke="#00695c" points="1173.5,-568 1170,-558 1166.5,-568 1173.5,-568"/>
<text xml:space="preserve" text-anchor="middle" x="1197.38" y="-587.08" font-family="Helvetica,sans-Serif" font-size="9.00">save normals</text>
</g>
<!-- heat -->
<g id="node6" class="node">
<title>heat</title>
<polygon fill="#ffcdd2" stroke="#d32f2f" points="511.88,-244.5 282.12,-244.5 282.12,-188.5 511.88,-188.5 511.88,-244.5"/>
<text xml:space="preserve" text-anchor="middle" x="397" y="-230.05" font-family="Helvetica,sans-Serif" font-size="11.00">Heat Wave Detection</text>
<text xml:space="preserve" text-anchor="middle" x="397" y="-218.05" font-family="Helvetica,sans-Serif" font-size="11.00">━━━━━━━━━━━━━━━━━━━</text>
<text xml:space="preserve" text-anchor="middle" x="397" y="-206.05" font-family="Helvetica,sans-Serif" font-size="11.00">IMD: Tmax &gt; 40°C</text>
<text xml:space="preserve" text-anchor="middle" x="397" y="-194.05" font-family="Helvetica,sans-Serif" font-size="11.00">for ≥ 3 consecutive days</text>
</g>
<!-- zscore&#45;&gt;heat -->
<g id="edge8" class="edge">
<title>zscore&#45;&gt;heat</title>
<path fill="none" stroke="#00695c" d="M802.69,-333.86C725.14,-315.77 620.86,-290.12 530,-263.25 514.87,-258.78 498.92,-253.65 483.5,-248.48"/>
<polygon fill="#00695c" stroke="#00695c" points="484.97,-245.28 474.37,-245.39 482.72,-251.91 484.97,-245.28"/>
</g>
<!-- cold -->
<g id="node7" class="node">
<title>cold</title>
<polygon fill="#bbdefb" stroke="#1565c0" points="245.88,-244.5 16.12,-244.5 16.12,-188.5 245.88,-188.5 245.88,-244.5"/>
<text xml:space="preserve" text-anchor="middle" x="131" y="-230.05" font-family="Helvetica,sans-Serif" font-size="11.00">Cold Wave Detection</text>
<text xml:space="preserve" text-anchor="middle" x="131" y="-218.05" font-family="Helvetica,sans-Serif" font-size="11.00">━━━━━━━━━━━━━━━━━━━</text>
<text xml:space="preserve" text-anchor="middle" x="131" y="-206.05" font-family="Helvetica,sans-Serif" font-size="11.00">IMD: Tmin &lt; 4°C</text>
<text xml:space="preserve" text-anchor="middle" x="131" y="-194.05" font-family="Helvetica,sans-Serif" font-size="11.00">for ≥ 3 consecutive days</text>
</g>
<!-- zscore&#45;&gt;cold -->
<g id="edge9" class="edge">
<title>zscore&#45;&gt;cold</title>
<path fill="none" stroke="#00695c" d="M802.76,-349.25C671.13,-335.77 449.95,-308.54 264,-263.25 247.46,-259.22 230.06,-253.99 213.5,-248.52"/>
<polygon fill="#00695c" stroke="#00695c" points="214.78,-245.26 204.19,-245.38 212.55,-251.89 214.78,-245.26"/>
</g>
<!-- rain -->
<g id="node8" class="node">
<title>rain</title>
<polygon fill="#b3e5fc" stroke="#0277bd" points="777.88,-238.5 548.12,-238.5 548.12,-194.5 777.88,-194.5 777.88,-238.5"/>
<text xml:space="preserve" text-anchor="middle" x="663" y="-224.05" font-family="Helvetica,sans-Serif" font-size="11.00">Extreme Rainfall</text>
<text xml:space="preserve" text-anchor="middle" x="663" y="-212.05" font-family="Helvetica,sans-Serif" font-size="11.00">━━━━━━━━━━━━━━━━━━━</text>
<text xml:space="preserve" text-anchor="middle" x="663" y="-200.05" font-family="Helvetica,sans-Serif" font-size="11.00">IMD: ≥ 204.5 mm/day</text>
</g>
<!-- zscore&#45;&gt;rain -->
<g id="edge10" class="edge">
<title>zscore&#45;&gt;rain</title>
<path fill="none" stroke="#00695c" d="M868.83,-332.32C823.36,-306.95 756.17,-269.47 711.05,-244.3"/>
<polygon fill="#00695c" stroke="#00695c" points="712.97,-241.37 702.53,-239.55 709.56,-247.48 712.97,-241.37"/>
</g>
<!-- drought -->
<g id="node9" class="node">
<title>drought</title>
<polygon fill="#ffe0b2" stroke="#ef6c00" points="1043.88,-244.5 814.12,-244.5 814.12,-188.5 1043.88,-188.5 1043.88,-244.5"/>
<text xml:space="preserve" text-anchor="middle" x="929" y="-230.05" font-family="Helvetica,sans-Serif" font-size="11.00">Drought Detection</text>
<text xml:space="preserve" text-anchor="middle" x="929" y="-218.05" font-family="Helvetica,sans-Serif" font-size="11.00">━━━━━━━━━━━━━━━━━━━</text>
<text xml:space="preserve" text-anchor="middle" x="929" y="-206.05" font-family="Helvetica,sans-Serif" font-size="11.00">Soil moisture z &lt; &#45;1.5</text>
<text xml:space="preserve" text-anchor="middle" x="929" y="-194.05" font-family="Helvetica,sans-Serif" font-size="11.00">for ≥ 14 days</text>
</g>
<!-- zscore&#45;&gt;drought -->
<g id="edge11" class="edge">
<title>zscore&#45;&gt;drought</title>
<path fill="none" stroke="#00695c" d="M920.12,-332.32C921.79,-310.68 924.15,-280.21 926.01,-256.1"/>
<polygon fill="#00695c" stroke="#00695c" points="929.49,-256.59 926.77,-246.35 922.51,-256.05 929.49,-256.59"/>
</g>
<!-- cyclone -->
<g id="node10" class="node">
<title>cyclone</title>
<polygon fill="#e1bee7" stroke="#7b1fa2" points="1309.88,-244.5 1080.12,-244.5 1080.12,-188.5 1309.88,-188.5 1309.88,-244.5"/>
<text xml:space="preserve" text-anchor="middle" x="1195" y="-230.05" font-family="Helvetica,sans-Serif" font-size="11.00">Cyclone Proxy</text>
<text xml:space="preserve" text-anchor="middle" x="1195" y="-218.05" font-family="Helvetica,sans-Serif" font-size="11.00">━━━━━━━━━━━━━━━━━━━</text>
<text xml:space="preserve" text-anchor="middle" x="1195" y="-206.05" font-family="Helvetica,sans-Serif" font-size="11.00">Wind ≥ 90 km/h</text>
<text xml:space="preserve" text-anchor="middle" x="1195" y="-194.05" font-family="Helvetica,sans-Serif" font-size="11.00">+ sustained rain</text>
</g>
<!-- zscore&#45;&gt;cyclone -->
<g id="edge12" class="edge">
<title>zscore&#45;&gt;cyclone</title>
<path fill="none" stroke="#00695c" d="M971.41,-332.32C1017.2,-308.81 1083.26,-274.88 1131.7,-250.01"/>
<polygon fill="#00695c" stroke="#00695c" points="1133.11,-253.22 1140.41,-245.53 1129.91,-246.99 1133.11,-253.22"/>
</g>
<!-- weather_obs -->
<g id="node14" class="node">
<title>weather_obs</title>
<path fill="#e0f2f1" stroke="#00695c" d="M1564.25,-254.75C1564.25,-259.44 1515.28,-263.25 1455,-263.25 1394.72,-263.25 1345.75,-259.44 1345.75,-254.75 1345.75,-254.75 1345.75,-178.25 1345.75,-178.25 1345.75,-173.56 1394.72,-169.75 1455,-169.75 1515.28,-169.75 1564.25,-173.56 1564.25,-178.25 1564.25,-178.25 1564.25,-254.75 1564.25,-254.75"/>
<path fill="none" stroke="#00695c" d="M1564.25,-254.75C1564.25,-250.06 1515.28,-246.25 1455,-246.25 1394.72,-246.25 1345.75,-250.06 1345.75,-254.75"/>
<text xml:space="preserve" text-anchor="middle" x="1455" y="-236.05" font-family="Helvetica,sans-Serif" font-size="11.00">Weather Observations</text>
<text xml:space="preserve" text-anchor="middle" x="1455" y="-224.05" font-family="Helvetica,sans-Serif" font-size="11.00">(Postgres)</text>
<text xml:space="preserve" text-anchor="middle" x="1455" y="-212.05" font-family="Helvetica,sans-Serif" font-size="11.00">━━━━━━━━━━━━━━━━━━</text>
<text xml:space="preserve" text-anchor="middle" x="1455" y="-200.05" font-family="Helvetica,sans-Serif" font-size="11.00">25 cities × daily</text>
<text xml:space="preserve" text-anchor="middle" x="1455" y="-188.05" font-family="Helvetica,sans-Serif" font-size="11.00">16 vars + z&#45;scores</text>
</g>
<!-- zscore&#45;&gt;weather_obs -->
<g id="edge13" class="edge">
<title>zscore&#45;&gt;weather_obs</title>
<path fill="none" stroke="#00695c" stroke-dasharray="5,2" d="M1033.05,-336.2C1115.51,-318.45 1228.88,-292.26 1327,-263.25 1329.44,-262.53 1331.89,-261.79 1334.37,-261.03"/>
<polygon fill="#00695c" stroke="#00695c" points="1335.35,-264.39 1343.85,-258.06 1333.26,-257.71 1335.35,-264.39"/>
<text xml:space="preserve" text-anchor="middle" x="1248.36" y="-299.2" font-family="Helvetica,sans-Serif" font-size="9.00">upsert obs</text>
<text xml:space="preserve" text-anchor="middle" x="1248.36" y="-289.45" font-family="Helvetica,sans-Serif" font-size="9.00">+ z&#45;scores</text>
</g>
<!-- weather_anom -->
<g id="node15" class="node">
<title>weather_anom</title>
<path fill="#e0f2f1" stroke="#00695c" d="M878.25,-100C878.25,-105.52 829.28,-110 769,-110 708.72,-110 659.75,-105.52 659.75,-100 659.75,-100 659.75,-10 659.75,-10 659.75,-4.48 708.72,0 769,0 829.28,0 878.25,-4.48 878.25,-10 878.25,-10 878.25,-100 878.25,-100"/>
<path fill="none" stroke="#00695c" d="M878.25,-100C878.25,-94.48 829.28,-90 769,-90 708.72,-90 659.75,-94.48 659.75,-100"/>
<text xml:space="preserve" text-anchor="middle" x="769" y="-80.55" font-family="Helvetica,sans-Serif" font-size="11.00">Weather Anomalies</text>
<text xml:space="preserve" text-anchor="middle" x="769" y="-68.55" font-family="Helvetica,sans-Serif" font-size="11.00">(Postgres)</text>
<text xml:space="preserve" text-anchor="middle" x="769" y="-56.55" font-family="Helvetica,sans-Serif" font-size="11.00">━━━━━━━━━━━━━━━━━━</text>
<text xml:space="preserve" text-anchor="middle" x="769" y="-44.55" font-family="Helvetica,sans-Serif" font-size="11.00">Heat/cold wave, drought</text>
<text xml:space="preserve" text-anchor="middle" x="769" y="-32.55" font-family="Helvetica,sans-Serif" font-size="11.00">Extreme rain, cyclone</text>
<text xml:space="preserve" text-anchor="middle" x="769" y="-20.55" font-family="Helvetica,sans-Serif" font-size="11.00">Severity + z&#45;score</text>
</g>
<!-- heat&#45;&gt;weather_anom -->
<g id="edge14" class="edge">
<title>heat&#45;&gt;weather_anom</title>
<path fill="none" stroke="#00695c" stroke-dasharray="5,2" d="M460.95,-188.08C512.51,-165.98 586.46,-134.27 648.99,-107.46"/>
<polygon fill="#00695c" stroke="#00695c" points="650.11,-110.78 657.93,-103.62 647.36,-104.35 650.11,-110.78"/>
</g>
<!-- redis -->
<g id="node17" class="node">
<title>redis</title>
<path fill="#ffebee" stroke="#d32f2f" d="M442.88,-73C442.88,-75.21 422.31,-77 397,-77 371.69,-77 351.12,-75.21 351.12,-73 351.12,-73 351.12,-37 351.12,-37 351.12,-34.79 371.69,-33 397,-33 422.31,-33 442.88,-34.79 442.88,-37 442.88,-37 442.88,-73 442.88,-73"/>
<path fill="none" stroke="#d32f2f" d="M442.88,-73C442.88,-70.79 422.31,-69 397,-69 371.69,-69 351.12,-70.79 351.12,-73"/>
<text xml:space="preserve" text-anchor="middle" x="397" y="-56.55" font-family="Helvetica,sans-Serif" font-size="11.00">Redis</text>
<text xml:space="preserve" text-anchor="middle" x="397" y="-44.55" font-family="Helvetica,sans-Serif" font-size="11.00">(weather alerts)</text>
</g>
<!-- heat&#45;&gt;redis -->
<g id="edge19" class="edge">
<title>heat&#45;&gt;redis</title>
<path fill="none" stroke="#d32f2f" stroke-dasharray="5,2" d="M397,-188.08C397,-160.53 397,-118.05 397,-88.74"/>
<polygon fill="#d32f2f" stroke="#d32f2f" points="400.5,-88.96 397,-78.96 393.5,-88.96 400.5,-88.96"/>
<text xml:space="preserve" text-anchor="middle" x="406" y="-136.2" font-family="Helvetica,sans-Serif" font-size="9.00">alert</text>
</g>
<!-- cold&#45;&gt;weather_anom -->
<g id="edge15" class="edge">
<title>cold&#45;&gt;weather_anom</title>
<path fill="none" stroke="#00695c" stroke-dasharray="5,2" d="M208.46,-188.01C226.62,-181.8 245.93,-175.38 264,-169.75 393.14,-129.48 544.99,-97.24 648.21,-77.51"/>
<polygon fill="#00695c" stroke="#00695c" points="648.64,-80.99 657.81,-75.69 647.33,-74.12 648.64,-80.99"/>
</g>
<!-- rain&#45;&gt;weather_anom -->
<g id="edge16" class="edge">
<title>rain&#45;&gt;weather_anom</title>
<path fill="none" stroke="#00695c" stroke-dasharray="5,2" d="M677.08,-194.32C689.77,-175.22 709.11,-146.12 726.77,-119.54"/>
<polygon fill="#00695c" stroke="#00695c" points="729.48,-121.79 732.1,-111.52 723.65,-117.91 729.48,-121.79"/>
</g>
<!-- drought&#45;&gt;weather_anom -->
<g id="edge17" class="edge">
<title>drought&#45;&gt;weather_anom</title>
<path fill="none" stroke="#00695c" stroke-dasharray="5,2" d="M901.5,-188.08C882.31,-168.96 855.91,-142.64 831.73,-118.53"/>
<polygon fill="#00695c" stroke="#00695c" points="834.25,-116.1 824.7,-111.52 829.31,-121.06 834.25,-116.1"/>
</g>
<!-- cyclone&#45;&gt;weather_anom -->
<g id="edge18" class="edge">
<title>cyclone&#45;&gt;weather_anom</title>
<path fill="none" stroke="#00695c" stroke-dasharray="5,2" d="M1121.77,-188.08C1057.81,-164.13 963.75,-128.92 888.84,-100.87"/>
<polygon fill="#00695c" stroke="#00695c" points="890.41,-97.72 879.82,-97.49 887.96,-104.28 890.41,-97.72"/>
</g>
<!-- climate_db&#45;&gt;zscore -->
<g id="edge7" class="edge">
<title>climate_db&#45;&gt;zscore</title>
<path fill="none" stroke="#00695c" stroke-dasharray="5,2" d="M1093.02,-463.5C1054.92,-441.35 1009.73,-415.08 974.81,-394.78"/>
<polygon fill="#00695c" stroke="#00695c" points="976.96,-391.98 966.56,-389.98 973.45,-398.03 976.96,-391.98"/>
<text xml:space="preserve" text-anchor="middle" x="1070.62" y="-428.95" font-family="Helvetica,sans-Serif" font-size="9.00">load normals</text>
</g>
<!-- api -->
<g id="node18" class="node">
<title>api</title>
<polygon fill="#b2ebf2" stroke="#00838f" points="1572.88,-693.5 1343.12,-693.5 1343.12,-625.5 1572.88,-625.5 1572.88,-693.5"/>
<text xml:space="preserve" text-anchor="middle" x="1458" y="-679.05" font-family="Helvetica,sans-Serif" font-size="11.00">API Endpoints</text>
<text xml:space="preserve" text-anchor="middle" x="1458" y="-667.05" font-family="Helvetica,sans-Serif" font-size="11.00">━━━━━━━━━━━━━━━━━━━</text>
<text xml:space="preserve" text-anchor="middle" x="1458" y="-655.05" font-family="Helvetica,sans-Serif" font-size="11.00">/cities &#160;/current</text>
<text xml:space="preserve" text-anchor="middle" x="1458" y="-643.05" font-family="Helvetica,sans-Serif" font-size="11.00">/trends &#160;/anomalies</text>
<text xml:space="preserve" text-anchor="middle" x="1458" y="-631.05" font-family="Helvetica,sans-Serif" font-size="11.00">/monsoon</text>
</g>
<!-- api&#45;&gt;weather_obs -->
<g id="edge23" class="edge">
<title>api&#45;&gt;weather_obs</title>
<path fill="none" stroke="#00695c" stroke-dasharray="5,2" d="M1457.77,-625.35C1457.27,-550.72 1456.03,-368.75 1455.39,-275.17"/>
<polygon fill="#00695c" stroke="#00695c" points="1458.89,-275.15 1455.32,-265.17 1451.89,-275.2 1458.89,-275.15"/>
</g>
<!-- api&#45;&gt;weather_anom -->
<g id="edge24" class="edge">
<title>api&#45;&gt;weather_anom</title>
<path fill="none" stroke="#00695c" stroke-dasharray="5,2" d="M1531.43,-625.1C1573.9,-600.25 1619,-561.73 1619,-510.25 1619,-510.25 1619,-510.25 1619,-215.5 1619,-189.35 1604.76,-182.63 1582,-169.75 1466.17,-104.22 1086.69,-73.76 889.86,-62.08"/>
<polygon fill="#00695c" stroke="#00695c" points="890.31,-58.6 880.12,-61.51 889.9,-65.59 890.31,-58.6"/>
</g>
<!-- api&#45;&gt;climate_db -->
<g id="edge25" class="edge">
<title>api&#45;&gt;climate_db</title>
<path fill="none" stroke="#00695c" stroke-dasharray="5,2" d="M1393.01,-625.04C1355.53,-605.76 1307.72,-581.14 1265.99,-559.66"/>
<polygon fill="#00695c" stroke="#00695c" points="1267.63,-556.57 1257.14,-555.11 1264.43,-562.8 1267.63,-556.57"/>
</g>
</g>
</svg>
