<?xml version="1.0" encoding="UTF-8" standalone="no"?>
<!DOCTYPE svg PUBLIC "-//W3C//DTD SVG 1.1//EN"
 "http://www.w3.org/Graphics/SVG/1.1/DTD/svg11.dtd">
<!-- Generated by graphviz version 14.1.4 (20260321.0153)
 -->
<!-- Title: data_ingestion Pages: 1 -->
<svg width="563pt" height="1406pt"
 viewBox="0.00 0.00 563.00 1406.00" xmlns="http://www.w3.org/2000/svg" xmlns:xlink="http://www.w3.org/1999/xlink">
<g id="graph0" class="graph" transform="scale(1 1) rotate(0) translate(28.8 1376.8)">
<title>data_ingestion</title>
<polygon fill="white" stroke="none" points="-28.8,28.8 -28.8,-1376.8 534.42,-1376.8 534.42,28.8 -28.8,28.8"/>
<text xml:space="preserve" text-anchor="middle" x="252.81" y="-1330.7" font-family="Helvetica,sans-Serif" font-size="14.00" fill="#333333">Data Ingestion Pipeline — RSS → Kafka → Consumer → Neo4j</text>
<g id="clust1" class="cluster">
<title>cluster_producer</title>
<polygon fill="#e8f5e9" stroke="#2e7d32" points="23,-988.5 23,-1223.25 247,-1223.25 247,-988.5 23,-988.5"/>
<text xml:space="preserve" text-anchor="middle" x="135" y="-1205.95" font-family="Helvetica,sans-Serif" font-size="14.00" fill="#1b5e20">PRODUCER (every 30min)</text>
</g>
<g id="clust2" class="cluster">
<title>cluster_consumer</title>
<polygon fill="#fffde7" stroke="#f9a825" points="8,-138.5 8,-840.25 298,-840.25 298,-138.5 8,-138.5"/>
<text xml:space="preserve" text-anchor="middle" x="153" y="-822.95" font-family="Helvetica,sans-Serif" font-size="14.00" fill="#e65100">CONSUMER (continuous)</text>
</g>
<!-- rss -->
<g id="node1" class="node">
<title>rss</title>
<polygon fill="#e3f2fd" stroke="#1565c0" points="202.62,-1322 67.38,-1322 67.38,-1266 202.62,-1266 202.62,-1322"/>
<text xml:space="preserve" text-anchor="middle" x="135" y="-1307.55" font-family="Helvetica,sans-Serif" font-size="11.00">RSS Feeds (31 sources)</text>
<text xml:space="preserve" text-anchor="middle" x="135" y="-1295.55" font-family="Helvetica,sans-Serif" font-size="11.00">(NDTV, Hindu, Livemint,</text>
<text xml:space="preserve" text-anchor="middle" x="135" y="-1283.55" font-family="Helvetica,sans-Serif" font-size="11.00">India Today, India TV,</text>
<text xml:space="preserve" text-anchor="middle" x="135" y="-1271.55" font-family="Helvetica,sans-Serif" font-size="11.00">BBC, WashPost, ...)</text>
</g>
<!-- scraper -->
<g id="node2" class="node">
<title>scraper</title>
<polygon fill="#c8e6c9" stroke="#2e7d32" points="238.62,-1192.25 31.37,-1192.25 31.37,-1124.25 238.62,-1124.25 238.62,-1192.25"/>
<text xml:space="preserve" text-anchor="middle" x="135" y="-1177.8" font-family="Helvetica,sans-Serif" font-size="11.00">Scraper</text>
<text xml:space="preserve" text-anchor="middle" x="135" y="-1165.8" font-family="Helvetica,sans-Serif" font-size="11.00">━━━━━━━━━━━━━━━━━</text>
<text xml:space="preserve" text-anchor="middle" x="135" y="-1153.8" font-family="Helvetica,sans-Serif" font-size="11.00">Fetch RSS + full text</text>
<text xml:space="preserve" text-anchor="middle" x="135" y="-1141.8" font-family="Helvetica,sans-Serif" font-size="11.00">Title&#45;based dedup</text>
<text xml:space="preserve" text-anchor="middle" x="135" y="-1129.8" font-family="Helvetica,sans-Serif" font-size="11.00">max_per_feed limiter</text>
</g>
<!-- rss&#45;&gt;scraper -->
<g id="edge7" class="edge">
<title>rss&#45;&gt;scraper</title>
<path fill="none" stroke="#555555" d="M135,-1265.61C135,-1247.77 135,-1224.08 135,-1203.59"/>
<polygon fill="#555555" stroke="#555555" points="138.5,-1203.79 135,-1193.79 131.5,-1203.79 138.5,-1203.79"/>
<text xml:space="preserve" text-anchor="middle" x="146.62" y="-1232.45" font-family="Helvetica,sans-Serif" font-size="9.00">URLs</text>
</g>
<!-- publisher -->
<g id="node3" class="node">
<title>publisher</title>
<polygon fill="#c8e6c9" stroke="#2e7d32" points="238.62,-1064.5 31.37,-1064.5 31.37,-996.5 238.62,-996.5 238.62,-1064.5"/>
<text xml:space="preserve" text-anchor="middle" x="135" y="-1050.05" font-family="Helvetica,sans-Serif" font-size="11.00">Kafka Publisher</text>
<text xml:space="preserve" text-anchor="middle" x="135" y="-1038.05" font-family="Helvetica,sans-Serif" font-size="11.00">━━━━━━━━━━━━━━━━━</text>
<text xml:space="preserve" text-anchor="middle" x="135" y="-1026.05" font-family="Helvetica,sans-Serif" font-size="11.00">Redis dedup check</text>
<text xml:space="preserve" text-anchor="middle" x="135" y="-1014.05" font-family="Helvetica,sans-Serif" font-size="11.00">JSON serialize</text>
<text xml:space="preserve" text-anchor="middle" x="135" y="-1002.05" font-family="Helvetica,sans-Serif" font-size="11.00">acks=all, retries=3</text>
</g>
<!-- scraper&#45;&gt;publisher -->
<g id="edge1" class="edge">
<title>scraper&#45;&gt;publisher</title>
<path fill="none" stroke="#2e7d32" d="M135,-1123.88C135,-1109.13 135,-1091.57 135,-1075.74"/>
<polygon fill="#2e7d32" stroke="#2e7d32" points="138.5,-1076.1 135,-1066.1 131.5,-1076.1 138.5,-1076.1"/>
<text xml:space="preserve" text-anchor="middle" x="155.62" y="-1090.7" font-family="Helvetica,sans-Serif" font-size="9.00">list[Article]</text>
</g>
<!-- redis -->
<g id="node4" class="node">
<title>redis</title>
<path fill="#ffebee" stroke="#d32f2f" d="M80.5,-923C80.5,-925.21 62.8,-927 41,-927 19.2,-927 1.5,-925.21 1.5,-923 1.5,-923 1.5,-887 1.5,-887 1.5,-884.79 19.2,-883 41,-883 62.8,-883 80.5,-884.79 80.5,-887 80.5,-887 80.5,-923 80.5,-923"/>
<path fill="none" stroke="#d32f2f" d="M80.5,-923C80.5,-920.79 62.8,-919 41,-919 19.2,-919 1.5,-920.79 1.5,-923"/>
<text xml:space="preserve" text-anchor="middle" x="41" y="-906.55" font-family="Helvetica,sans-Serif" font-size="11.00">Redis</text>
<text xml:space="preserve" text-anchor="middle" x="41" y="-894.55" font-family="Helvetica,sans-Serif" font-size="11.00">(URL dedup)</text>
</g>
<!-- publisher&#45;&gt;redis -->
<g id="edge8" class="edge">
<title>publisher&#45;&gt;redis</title>
<path fill="none" stroke="#d32f2f" stroke-dasharray="5,2" d="M98.64,-987.44C94.3,-982.14 90,-976.74 86,-971.5 77.52,-960.39 68.7,-947.81 61.15,-936.67"/>
<polygon fill="#d32f2f" stroke="#d32f2f" points="95.88,-989.6 104.95,-995.06 101.27,-985.13 95.88,-989.6"/>
<polygon fill="#d32f2f" stroke="#d32f2f" points="64.19,-934.93 55.71,-928.58 58.38,-938.83 64.19,-934.93"/>
<text xml:space="preserve" text-anchor="middle" x="113" y="-962.95" font-family="Helvetica,sans-Serif" font-size="9.00">SISMEMBER</text>
<text xml:space="preserve" text-anchor="middle" x="113" y="-953.2" font-family="Helvetica,sans-Serif" font-size="9.00">(dedup)</text>
</g>
<!-- kafka -->
<g id="node5" class="node">
<title>kafka</title>
<path fill="#e8eaf6" stroke="#283593" d="M211.75,-923C211.75,-925.21 190.35,-927 164,-927 137.65,-927 116.25,-925.21 116.25,-923 116.25,-923 116.25,-887 116.25,-887 116.25,-884.79 137.65,-883 164,-883 190.35,-883 211.75,-884.79 211.75,-887 211.75,-887 211.75,-923 211.75,-923"/>
<path fill="none" stroke="#283593" d="M211.75,-923C211.75,-920.79 190.35,-919 164,-919 137.65,-919 116.25,-920.79 116.25,-923"/>
<text xml:space="preserve" text-anchor="middle" x="164" y="-906.55" font-family="Helvetica,sans-Serif" font-size="11.00">Kafka Topic</text>
<text xml:space="preserve" text-anchor="middle" x="164" y="-894.55" font-family="Helvetica,sans-Serif" font-size="11.00">(india&#45;innovates)</text>
</g>
<!-- publisher&#45;&gt;kafka -->
<g id="edge9" class="edge">
<title>publisher&#45;&gt;kafka</title>
<path fill="none" stroke="#283593" d="M142.85,-996.08C147.06,-978.15 152.22,-956.15 156.4,-938.38"/>
<polygon fill="#283593" stroke="#283593" points="159.75,-939.41 158.63,-928.87 152.94,-937.8 159.75,-939.41"/>
<text xml:space="preserve" text-anchor="middle" x="178.45" y="-958.08" font-family="Helvetica,sans-Serif" font-size="9.00">article JSON</text>
</g>
<!-- batch -->
<g id="node6" class="node">
<title>batch</title>
<polygon fill="#fff9c4" stroke="#f9a825" points="278.88,-809.25 49.12,-809.25 49.12,-741.25 278.88,-741.25 278.88,-809.25"/>
<text xml:space="preserve" text-anchor="middle" x="164" y="-794.8" font-family="Helvetica,sans-Serif" font-size="11.00">Batch Accumulator</text>
<text xml:space="preserve" text-anchor="middle" x="164" y="-782.8" font-family="Helvetica,sans-Serif" font-size="11.00">━━━━━━━━━━━━━━━━━━━</text>
<text xml:space="preserve" text-anchor="middle" x="164" y="-770.8" font-family="Helvetica,sans-Serif" font-size="11.00">Max 50 articles</text>
<text xml:space="preserve" text-anchor="middle" x="164" y="-758.8" font-family="Helvetica,sans-Serif" font-size="11.00">or 60s timeout</text>
<text xml:space="preserve" text-anchor="middle" x="164" y="-746.8" font-family="Helvetica,sans-Serif" font-size="11.00">Manual offset commit</text>
</g>
<!-- kafka&#45;&gt;batch -->
<g id="edge10" class="edge">
<title>kafka&#45;&gt;batch</title>
<path fill="none" stroke="#283593" d="M164,-882.62C164,-865.84 164,-841.89 164,-820.97"/>
<polygon fill="#283593" stroke="#283593" points="167.5,-821.24 164,-811.24 160.5,-821.24 167.5,-821.24"/>
<text xml:space="preserve" text-anchor="middle" x="182.75" y="-849.45" font-family="Helvetica,sans-Serif" font-size="9.00">consume</text>
</g>
<!-- priority -->
<g id="node7" class="node">
<title>priority</title>
<polygon fill="#fff9c4" stroke="#f9a825" points="290.12,-681.5 37.88,-681.5 37.88,-623.25 290.12,-623.25 290.12,-681.5"/>
<text xml:space="preserve" text-anchor="middle" x="164" y="-667.05" font-family="Helvetica,sans-Serif" font-size="11.00">NewsPriorityAgent</text>
<text xml:space="preserve" text-anchor="middle" x="164" y="-655.05" font-family="Helvetica,sans-Serif" font-size="11.00">━━━━━━━━━━━━━━━━━━━━━</text>
<text xml:space="preserve" text-anchor="middle" x="164" y="-643.05" font-family="Helvetica,sans-Serif" font-size="11.00">Embed → Cluster → Score</text>
<text xml:space="preserve" text-anchor="middle" x="164" y="-628.8" font-family="Helvetica,sans-Serif" font-size="11.00">Forward ≥ 5.0</text>
</g>
<!-- batch&#45;&gt;priority -->
<g id="edge2" class="edge">
<title>batch&#45;&gt;priority</title>
<path fill="none" stroke="#f9a825" d="M164,-740.9C164,-726.09 164,-708.54 164,-693.06"/>
<polygon fill="#f9a825" stroke="#f9a825" points="167.5,-693.22 164,-683.22 160.5,-693.22 167.5,-693.22"/>
<text xml:space="preserve" text-anchor="middle" x="188.75" y="-707.7" font-family="Helvetica,sans-Serif" font-size="9.00">article batch</text>
</g>
<!-- extraction -->
<g id="node8" class="node">
<title>extraction</title>
<polygon fill="#fff3e0" stroke="#ef6c00" points="289.12,-553.75 36.88,-553.75 36.88,-497.75 289.12,-497.75 289.12,-553.75"/>
<text xml:space="preserve" text-anchor="middle" x="163" y="-539.3" font-family="Helvetica,sans-Serif" font-size="11.00">Extraction Agent</text>
<text xml:space="preserve" text-anchor="middle" x="163" y="-527.3" font-family="Helvetica,sans-Serif" font-size="11.00">━━━━━━━━━━━━━━━━━━━━━</text>
<text xml:space="preserve" text-anchor="middle" x="163" y="-515.3" font-family="Helvetica,sans-Serif" font-size="11.00">GLiNER2 + LLM</text>
<text xml:space="preserve" text-anchor="middle" x="163" y="-503.3" font-family="Helvetica,sans-Serif" font-size="11.00">(3 phases)</text>
</g>
<!-- priority&#45;&gt;extraction -->
<g id="edge3" class="edge">
<title>priority&#45;&gt;extraction</title>
<path fill="none" stroke="#555555" d="M163.77,-622.78C163.63,-605.73 163.46,-583.84 163.31,-565.27"/>
<polygon fill="#555555" stroke="#555555" points="166.81,-565.41 163.23,-555.44 159.81,-565.47 166.81,-565.41"/>
<text xml:space="preserve" text-anchor="middle" x="196.93" y="-589.7" font-family="Helvetica,sans-Serif" font-size="9.00">high&#45;importance</text>
<text xml:space="preserve" text-anchor="middle" x="196.93" y="-579.95" font-family="Helvetica,sans-Serif" font-size="9.00">(≥ 5.0)</text>
</g>
<!-- postgres -->
<g id="node13" class="node">
<title>postgres</title>
<path fill="#e0f2f1" stroke="#00695c" d="M394.75,-56.5C394.75,-58.71 372,-60.5 344,-60.5 316,-60.5 293.25,-58.71 293.25,-56.5 293.25,-56.5 293.25,-20.5 293.25,-20.5 293.25,-18.29 316,-16.5 344,-16.5 372,-16.5 394.75,-18.29 394.75,-20.5 394.75,-20.5 394.75,-56.5 394.75,-56.5"/>
<path fill="none" stroke="#00695c" d="M394.75,-56.5C394.75,-54.29 372,-52.5 344,-52.5 316,-52.5 293.25,-54.29 293.25,-56.5"/>
<text xml:space="preserve" text-anchor="middle" x="344" y="-40.05" font-family="Helvetica,sans-Serif" font-size="11.00">PostgreSQL</text>
<text xml:space="preserve" text-anchor="middle" x="344" y="-28.05" font-family="Helvetica,sans-Serif" font-size="11.00">(scraped_articles)</text>
</g>
<!-- priority&#45;&gt;postgres -->
<g id="edge11" class="edge">
<title>priority&#45;&gt;postgres</title>
<path fill="none" stroke="#00695c" stroke-dasharray="5,2" d="M261.12,-622.82C304.06,-603.66 345,-573.2 345,-526.75 345,-526.75 345,-526.75 345,-179.5 345,-142.71 344.65,-100.48 344.36,-72.1"/>
<polygon fill="#00695c" stroke="#00695c" points="347.87,-72.32 344.26,-62.36 340.87,-72.4 347.87,-72.32"/>
<text xml:space="preserve" text-anchor="middle" x="367.88" y="-346.2" font-family="Helvetica,sans-Serif" font-size="9.00">persist ALL</text>
<text xml:space="preserve" text-anchor="middle" x="367.88" y="-336.45" font-family="Helvetica,sans-Serif" font-size="9.00">w/ scores</text>
</g>
<!-- live_redis -->
<g id="node14" class="node">
<title>live_redis</title>
<path fill="#ffebee" stroke="#d32f2f" d="M505.62,-543.75C505.62,-545.96 482.04,-547.75 453,-547.75 423.96,-547.75 400.38,-545.96 400.38,-543.75 400.38,-543.75 400.38,-507.75 400.38,-507.75 400.38,-505.54 423.96,-503.75 453,-503.75 482.04,-503.75 505.62,-505.54 505.62,-507.75 505.62,-507.75 505.62,-543.75 505.62,-543.75"/>
<path fill="none" stroke="#d32f2f" d="M505.62,-543.75C505.62,-541.54 482.04,-539.75 453,-539.75 423.96,-539.75 400.38,-541.54 400.38,-543.75"/>
<text xml:space="preserve" text-anchor="middle" x="453" y="-527.3" font-family="Helvetica,sans-Serif" font-size="11.00">Redis</text>
<text xml:space="preserve" text-anchor="middle" x="453" y="-515.3" font-family="Helvetica,sans-Serif" font-size="11.00">(live&#45;feed pub/sub)</text>
</g>
<!-- priority&#45;&gt;live_redis -->
<g id="edge14" class="edge">
<title>priority&#45;&gt;live_redis</title>
<path fill="none" stroke="#d32f2f" stroke-dasharray="5,2" d="M290.6,-629.57C318.69,-621.93 347.64,-611.75 373,-598.25 393.07,-587.57 412.18,-570.82 426.7,-556.22"/>
<polygon fill="#d32f2f" stroke="#d32f2f" points="429.21,-558.65 433.63,-549.02 424.17,-553.79 429.21,-558.65"/>
<text xml:space="preserve" text-anchor="middle" x="424.19" y="-589.7" font-family="Helvetica,sans-Serif" font-size="9.00">publish ALL</text>
<text xml:space="preserve" text-anchor="middle" x="424.19" y="-579.95" font-family="Helvetica,sans-Serif" font-size="9.00">to live&#45;feed</text>
</g>
<!-- resolution -->
<g id="node9" class="node">
<title>resolution</title>
<polygon fill="#f8eaf6" stroke="#7b1fa2" points="284.12,-438 31.88,-438 31.88,-379.75 284.12,-379.75 284.12,-438"/>
<text xml:space="preserve" text-anchor="middle" x="158" y="-423.55" font-family="Helvetica,sans-Serif" font-size="11.00">Resolution Agent</text>
<text xml:space="preserve" text-anchor="middle" x="158" y="-411.55" font-family="Helvetica,sans-Serif" font-size="11.00">━━━━━━━━━━━━━━━━━━━━━</text>
<text xml:space="preserve" text-anchor="middle" x="158" y="-399.55" font-family="Helvetica,sans-Serif" font-size="11.00">3&#45;Tier Funnel</text>
<text xml:space="preserve" text-anchor="middle" x="158" y="-387.55" font-family="Helvetica,sans-Serif" font-size="11.00">(deterministic→embed→LLM)</text>
</g>
<!-- extraction&#45;&gt;resolution -->
<g id="edge4" class="edge">
<title>extraction&#45;&gt;resolution</title>
<path fill="none" stroke="#555555" d="M161.82,-497.53C161.19,-483.11 160.41,-465.15 159.71,-449.24"/>
<polygon fill="#555555" stroke="#555555" points="163.23,-449.45 159.29,-439.62 156.23,-449.76 163.23,-449.45"/>
<text xml:space="preserve" text-anchor="middle" x="193.65" y="-464.2" font-family="Helvetica,sans-Serif" font-size="9.00">ArticleExtraction</text>
</g>
<!-- temporal -->
<g id="node10" class="node">
<title>temporal</title>
<polygon fill="#e8eaf6" stroke="#283593" points="199.5,-310.25 108.5,-310.25 108.5,-274.25 199.5,-274.25 199.5,-310.25"/>
<text xml:space="preserve" text-anchor="middle" x="154" y="-293.8" font-family="Helvetica,sans-Serif" font-size="11.00">Temporal Agent</text>
<text xml:space="preserve" text-anchor="middle" x="154" y="-281.8" font-family="Helvetica,sans-Serif" font-size="11.00">(stub)</text>
</g>
<!-- resolution&#45;&gt;temporal -->
<g id="edge5" class="edge">
<title>resolution&#45;&gt;temporal</title>
<path fill="none" stroke="#555555" d="M157.01,-379.54C156.4,-361.98 155.61,-339.49 155,-321.88"/>
<polygon fill="#555555" stroke="#555555" points="158.5,-321.97 154.66,-312.1 151.51,-322.21 158.5,-321.97"/>
<text xml:space="preserve" text-anchor="middle" x="173.74" y="-341.32" font-family="Helvetica,sans-Serif" font-size="9.00">resolved</text>
</g>
<!-- writer -->
<g id="node11" class="node">
<title>writer</title>
<polygon fill="#ffcdd2" stroke="#c62828" points="290.38,-214.5 15.62,-214.5 15.62,-146.5 290.38,-146.5 290.38,-214.5"/>
<text xml:space="preserve" text-anchor="middle" x="153" y="-200.05" font-family="Helvetica,sans-Serif" font-size="11.00">Batched Neo4j Writer</text>
<text xml:space="preserve" text-anchor="middle" x="153" y="-188.05" font-family="Helvetica,sans-Serif" font-size="11.00">━━━━━━━━━━━━━━━━━━━━━━━</text>
<text xml:space="preserve" text-anchor="middle" x="153" y="-176.05" font-family="Helvetica,sans-Serif" font-size="11.00">6 UNWIND queries/batch</text>
<text xml:space="preserve" text-anchor="middle" x="153" y="-164.05" font-family="Helvetica,sans-Serif" font-size="11.00">Weighted avg confidence</text>
<text xml:space="preserve" text-anchor="middle" x="153" y="-152.05" font-family="Helvetica,sans-Serif" font-size="11.00">evidence_count tracking</text>
</g>
<!-- temporal&#45;&gt;writer -->
<g id="edge6" class="edge">
<title>temporal&#45;&gt;writer</title>
<path fill="none" stroke="#555555" d="M153.84,-274.1C153.73,-261.27 153.56,-243.1 153.41,-226.25"/>
<polygon fill="#555555" stroke="#555555" points="156.91,-226.36 153.32,-216.39 149.91,-226.42 156.91,-226.36"/>
<text xml:space="preserve" text-anchor="middle" x="179.09" y="-240.7" font-family="Helvetica,sans-Serif" font-size="9.00">passthrough</text>
</g>
<!-- neo4j -->
<g id="node12" class="node">
<title>neo4j</title>
<path fill="#fce4ec" stroke="#c62828" d="M256.62,-70C256.62,-73.86 210.18,-77 153,-77 95.82,-77 49.38,-73.86 49.38,-70 49.38,-70 49.38,-7 49.38,-7 49.38,-3.14 95.82,0 153,0 210.18,0 256.62,-3.14 256.62,-7 256.62,-7 256.62,-70 256.62,-70"/>
<path fill="none" stroke="#c62828" d="M256.62,-70C256.62,-66.14 210.18,-63 153,-63 95.82,-63 49.38,-66.14 49.38,-70"/>
<text xml:space="preserve" text-anchor="middle" x="153" y="-52.05" font-family="Helvetica,sans-Serif" font-size="11.00">Neo4j Graph DB</text>
<text xml:space="preserve" text-anchor="middle" x="153" y="-40.05" font-family="Helvetica,sans-Serif" font-size="11.00">━━━━━━━━━━━━━━━━━</text>
<text xml:space="preserve" text-anchor="middle" x="153" y="-28.05" font-family="Helvetica,sans-Serif" font-size="11.00">Entity, Event, Article</text>
<text xml:space="preserve" text-anchor="middle" x="153" y="-16.05" font-family="Helvetica,sans-Serif" font-size="11.00">RELATES_TO, EVIDENCES</text>
</g>
<!-- writer&#45;&gt;neo4j -->
<g id="edge12" class="edge">
<title>writer&#45;&gt;neo4j</title>
<path fill="none" stroke="#c62828" d="M153,-146.32C153,-129.18 153,-107.92 153,-88.89"/>
<polygon fill="#c62828" stroke="#c62828" points="156.5,-88.9 153,-78.9 149.5,-88.9 156.5,-88.9"/>
<text xml:space="preserve" text-anchor="middle" x="175.5" y="-112.95" font-family="Helvetica,sans-Serif" font-size="9.00">6 UNWIND</text>
<text xml:space="preserve" text-anchor="middle" x="175.5" y="-103.2" font-family="Helvetica,sans-Serif" font-size="9.00">queries</text>
</g>
<!-- writer&#45;&gt;postgres -->
<g id="edge13" class="edge">
<title>writer&#45;&gt;postgres</title>
<path fill="none" stroke="#00695c" stroke-dasharray="5,2" d="M198.26,-146.32C230.96,-122.36 274.63,-90.35 305.61,-67.64"/>
<polygon fill="#00695c" stroke="#00695c" points="307.58,-70.53 313.58,-61.8 303.44,-64.89 307.58,-70.53"/>
<text xml:space="preserve" text-anchor="middle" x="279.73" y="-108.08" font-family="Helvetica,sans-Serif" font-size="9.00">save articles</text>
</g>
</g>
</svg>
