<?xml version="1.0" encoding="UTF-8" standalone="no"?>
<!DOCTYPE svg PUBLIC "-//W3C//DTD SVG 1.1//EN"
 "http://www.w3.org/Graphics/SVG/1.1/DTD/svg11.dtd">
<!-- Generated by graphviz version 14.1.4 (20260321.0153)
 -->
<!-- Title: compact_architecture Pages: 1 -->
<svg width="1883pt" height="882pt"
 viewBox="0.00 0.00 1883.00 882.00" xmlns="http://www.w3.org/2000/svg" xmlns:xlink="http://www.w3.org/1999/xlink">
<g id="graph0" class="graph" transform="scale(1 1) rotate(0) translate(28.8 853.05)">
<title>compact_architecture</title>
<polygon fill="white" stroke="none" points="-28.8,28.8 -28.8,-853.05 1854.25,-853.05 1854.25,28.8 -28.8,28.8"/>
<text xml:space="preserve" text-anchor="middle" x="912.73" y="-806.95" font-family="Helvetica,sans-Serif" font-size="14.00" fill="#333333">Global Ontology Engine — Compact Architecture</text>
<g id="clust1" class="cluster">
<title>cluster_sources</title>
<polygon fill="white" stroke="#888888" stroke-dasharray="5,2" points="1104.38,-695.25 1104.38,-793.25 1354.38,-793.25 1354.38,-695.25 1104.38,-695.25"/>
<text xml:space="preserve" text-anchor="middle" x="1229.38" y="-775.95" font-family="Helvetica,sans-Serif" font-size="14.00" fill="#555555">Data Sources</text>
</g>
<g id="clust2" class="cluster">
<title>cluster_api</title>
<polygon fill="#e0f7fa" stroke="#00838f" points="1418.38,-349.5 1418.38,-455.5 1568.38,-455.5 1568.38,-349.5 1418.38,-349.5"/>
<text xml:space="preserve" text-anchor="middle" x="1493.38" y="-438.2" font-family="Helvetica,sans-Serif" font-size="14.00" fill="#006064">FastAPI Backend</text>
</g>
<g id="clust3" class="cluster">
<title>cluster_frontend</title>
<polygon fill="#eceff1" stroke="#37474f" points="1198.38,-8 1198.38,-281 1710.38,-281 1710.38,-8 1198.38,-8"/>
<text xml:space="preserve" text-anchor="middle" x="1454.38" y="-263.7" font-family="Helvetica,sans-Serif" font-size="14.00" fill="#263238">Frontend (React + Vite + TypeScript)</text>
</g>
<!-- rss -->
<g id="node1" class="node">
<title>rss</title>
<polygon fill="#e3f2fd" stroke="#1565c0" points="1346.5,-739.25 1244.25,-739.25 1244.25,-703.25 1346.5,-703.25 1346.5,-739.25"/>
<text xml:space="preserve" text-anchor="middle" x="1295.38" y="-722.8" font-family="Helvetica,sans-Serif" font-size="11.00">RSS Feeds</text>
<text xml:space="preserve" text-anchor="middle" x="1295.38" y="-710.8" font-family="Helvetica,sans-Serif" font-size="11.00">(8 Indian sources)</text>
</g>
<!-- producer -->
<g id="node8" class="node">
<title>producer</title>
<polygon fill="#c8e6c9" stroke="#2e7d32" points="1453,-652.25 1245.75,-652.25 1245.75,-594 1453,-594 1453,-652.25"/>
<text xml:space="preserve" text-anchor="middle" x="1349.38" y="-637.8" font-family="Helvetica,sans-Serif" font-size="11.00">Producer</text>
<text xml:space="preserve" text-anchor="middle" x="1349.38" y="-625.8" font-family="Helvetica,sans-Serif" font-size="11.00">━━━━━━━━━━━━━━━━━</text>
<text xml:space="preserve" text-anchor="middle" x="1349.38" y="-613.8" font-family="Helvetica,sans-Serif" font-size="11.00">RSS Scraper → Kafka</text>
<text xml:space="preserve" text-anchor="middle" x="1349.38" y="-599.55" font-family="Helvetica,sans-Serif" font-size="11.00">(30min cycle)</text>
</g>
<!-- rss&#45;&gt;producer -->
<g id="edge4" class="edge">
<title>rss&#45;&gt;producer</title>
<path fill="none" stroke="#555555" d="M1305.03,-703.06C1311.38,-691.77 1319.94,-676.52 1327.85,-662.44"/>
<polygon fill="#555555" stroke="#555555" points="1330.87,-664.22 1332.71,-653.79 1324.76,-660.79 1330.87,-664.22"/>
</g>
<!-- openmeteo -->
<g id="node2" class="node">
<title>openmeteo</title>
<polygon fill="#e3f2fd" stroke="#1565c0" points="1208.5,-739.25 1112.25,-739.25 1112.25,-703.25 1208.5,-703.25 1208.5,-739.25"/>
<text xml:space="preserve" text-anchor="middle" x="1160.38" y="-716.8" font-family="Helvetica,sans-Serif" font-size="11.00">Open&#45;Meteo API</text>
</g>
<!-- weather -->
<g id="node10" class="node">
<title>weather</title>
<polygon fill="#b2dfdb" stroke="#00695c" points="1316.25,-409.75 1086.5,-409.75 1086.5,-349.25 1316.25,-349.25 1316.25,-409.75"/>
<text xml:space="preserve" text-anchor="middle" x="1201.38" y="-395.3" font-family="Helvetica,sans-Serif" font-size="11.00">Weather Pipeline</text>
<text xml:space="preserve" text-anchor="middle" x="1201.38" y="-383.3" font-family="Helvetica,sans-Serif" font-size="11.00">━━━━━━━━━━━━━━━━━━━</text>
<text xml:space="preserve" text-anchor="middle" x="1201.38" y="-371.3" font-family="Helvetica,sans-Serif" font-size="11.00">Scraper → Anomaly Detector</text>
<text xml:space="preserve" text-anchor="middle" x="1201.38" y="-357.05" font-family="Helvetica,sans-Serif" font-size="11.00">→ Trend Analyzer</text>
</g>
<!-- openmeteo&#45;&gt;weather -->
<g id="edge5" class="edge">
<title>openmeteo&#45;&gt;weather</title>
<path fill="none" stroke="#1565c0" d="M1159.48,-702.92C1157.68,-661.23 1155.18,-552.21 1172.38,-463.5 1175.17,-449.07 1179.96,-433.76 1184.86,-420.27"/>
<polygon fill="#1565c0" stroke="#1565c0" points="1187.98,-421.9 1188.23,-411.31 1181.43,-419.43 1187.98,-421.9"/>
</g>
<!-- redis -->
<g id="node3" class="node">
<title>redis</title>
<path fill="#ffebee" stroke="#d32f2f" d="M1170.38,-201.73C1170.38,-203.53 1158.27,-205 1143.38,-205 1128.48,-205 1116.38,-203.53 1116.38,-201.73 1116.38,-201.73 1116.38,-172.27 1116.38,-172.27 1116.38,-170.47 1128.48,-169 1143.38,-169 1158.27,-169 1170.38,-170.47 1170.38,-172.27 1170.38,-172.27 1170.38,-201.73 1170.38,-201.73"/>
<path fill="none" stroke="#d32f2f" d="M1170.38,-201.73C1170.38,-199.92 1158.27,-198.45 1143.38,-198.45 1128.48,-198.45 1116.38,-199.92 1116.38,-201.73"/>
<text xml:space="preserve" text-anchor="middle" x="1143.38" y="-182.55" font-family="Helvetica,sans-Serif" font-size="11.00">Redis</text>
</g>
<!-- kafka -->
<g id="node4" class="node">
<title>kafka</title>
<path fill="#e8eaf6" stroke="#283593" d="M1316.38,-530.98C1316.38,-532.78 1304.27,-534.25 1289.38,-534.25 1274.48,-534.25 1262.38,-532.78 1262.38,-530.98 1262.38,-530.98 1262.38,-501.52 1262.38,-501.52 1262.38,-499.72 1274.48,-498.25 1289.38,-498.25 1304.27,-498.25 1316.38,-499.72 1316.38,-501.52 1316.38,-501.52 1316.38,-530.98 1316.38,-530.98"/>
<path fill="none" stroke="#283593" d="M1316.38,-530.98C1316.38,-529.17 1304.27,-527.7 1289.38,-527.7 1274.48,-527.7 1262.38,-529.17 1262.38,-530.98"/>
<text xml:space="preserve" text-anchor="middle" x="1289.38" y="-511.8" font-family="Helvetica,sans-Serif" font-size="11.00">Kafka</text>
</g>
<!-- consumer -->
<g id="node9" class="node">
<title>consumer</title>
<polygon fill="#fff9c4" stroke="#f9a825" points="806.75,-409.75 532,-409.75 532,-349.25 806.75,-349.25 806.75,-409.75"/>
<text xml:space="preserve" text-anchor="middle" x="669.38" y="-395.3" font-family="Helvetica,sans-Serif" font-size="11.00">Consumer Pipeline</text>
<text xml:space="preserve" text-anchor="middle" x="669.38" y="-383.3" font-family="Helvetica,sans-Serif" font-size="11.00">━━━━━━━━━━━━━━━━━━━━━━━</text>
<text xml:space="preserve" text-anchor="middle" x="669.38" y="-371.3" font-family="Helvetica,sans-Serif" font-size="11.00">News Priority → Extraction</text>
<text xml:space="preserve" text-anchor="middle" x="669.38" y="-357.05" font-family="Helvetica,sans-Serif" font-size="11.00">→ Resolution → Neo4j Writer</text>
</g>
<!-- kafka&#45;&gt;consumer -->
<g id="edge8" class="edge">
<title>kafka&#45;&gt;consumer</title>
<path fill="none" stroke="#283593" d="M1282.47,-497.96C1276.66,-485.95 1267.08,-470.83 1253.38,-463.5 1232.35,-452.26 847.56,-461.04 824.38,-455.5 790.3,-447.36 754.95,-430.95 726.62,-415.56"/>
<polygon fill="#283593" stroke="#283593" points="728.67,-412.69 718.23,-410.9 725.28,-418.82 728.67,-412.69"/>
<text xml:space="preserve" text-anchor="middle" x="1281.93" y="-464.7" font-family="Helvetica,sans-Serif" font-size="9.00">batched</text>
</g>
<!-- neo4j -->
<g id="node5" class="node">
<title>neo4j</title>
<path fill="#fce4ec" stroke="#c62828" d="M547.75,-205C547.75,-207.21 533.24,-209 515.38,-209 497.51,-209 483,-207.21 483,-205 483,-205 483,-169 483,-169 483,-166.79 497.51,-165 515.38,-165 533.24,-165 547.75,-166.79 547.75,-169 547.75,-169 547.75,-205 547.75,-205"/>
<path fill="none" stroke="#c62828" d="M547.75,-205C547.75,-202.79 533.24,-201 515.38,-201 497.51,-201 483,-202.79 483,-205"/>
<text xml:space="preserve" text-anchor="middle" x="515.38" y="-188.55" font-family="Helvetica,sans-Serif" font-size="11.00">Neo4j</text>
<text xml:space="preserve" text-anchor="middle" x="515.38" y="-176.55" font-family="Helvetica,sans-Serif" font-size="11.00">Graph DB</text>
</g>
<!-- postgres -->
<g id="node6" class="node">
<title>postgres</title>
<path fill="#e0f2f1" stroke="#00695c" d="M879,-201.73C879,-203.53 862.14,-205 841.38,-205 820.61,-205 803.75,-203.53 803.75,-201.73 803.75,-201.73 803.75,-172.27 803.75,-172.27 803.75,-170.47 820.61,-169 841.38,-169 862.14,-169 879,-170.47 879,-172.27 879,-172.27 879,-201.73 879,-201.73"/>
<path fill="none" stroke="#00695c" d="M879,-201.73C879,-199.92 862.14,-198.45 841.38,-198.45 820.61,-198.45 803.75,-199.92 803.75,-201.73"/>
<text xml:space="preserve" text-anchor="middle" x="841.38" y="-182.55" font-family="Helvetica,sans-Serif" font-size="11.00">PostgreSQL</text>
</g>
<!-- groq -->
<g id="node7" class="node">
<title>groq</title>
<polygon fill="#fffde7" stroke="#f57f17" points="254.5,-205 174.25,-205 170.25,-201 170.25,-169 250.5,-169 254.5,-173 254.5,-205"/>
<polyline fill="none" stroke="#f57f17" points="250.5,-201 170.25,-201"/>
<polyline fill="none" stroke="#f57f17" points="250.5,-201 250.5,-169"/>
<polyline fill="none" stroke="#f57f17" points="250.5,-201 254.5,-205"/>
<text xml:space="preserve" text-anchor="middle" x="212.38" y="-182.55" font-family="Helvetica,sans-Serif" font-size="11.00">Groq LLM API</text>
</g>
<!-- producer&#45;&gt;redis -->
<g id="edge7" class="edge">
<title>producer&#45;&gt;redis</title>
<path fill="none" stroke="#d32f2f" stroke-dasharray="5,2" d="M1359.22,-582.5C1371.2,-524.41 1384.2,-415.23 1334.38,-343.25 1301.06,-295.12 1269,-310.01 1214.38,-289 1203.49,-284.81 1198.22,-288.61 1189.38,-281 1169.77,-264.13 1157.68,-236.92 1150.85,-216.28"/>
<polygon fill="#d32f2f" stroke="#d32f2f" points="1355.8,-581.76 1357.09,-592.27 1362.64,-583.24 1355.8,-581.76"/>
<polygon fill="#d32f2f" stroke="#d32f2f" points="1154.21,-215.29 1147.94,-206.75 1147.51,-217.34 1154.21,-215.29"/>
<text xml:space="preserve" text-anchor="middle" x="1383.2" y="-464.7" font-family="Helvetica,sans-Serif" font-size="9.00">dedup</text>
</g>
<!-- producer&#45;&gt;kafka -->
<g id="edge6" class="edge">
<title>producer&#45;&gt;kafka</title>
<path fill="none" stroke="#283593" d="M1329.42,-593.64C1324.21,-585.79 1318.77,-577.18 1314.12,-569 1309.73,-561.26 1305.39,-552.61 1301.6,-544.64"/>
<polygon fill="#283593" stroke="#283593" points="1304.84,-543.31 1297.45,-535.71 1298.49,-546.25 1304.84,-543.31"/>
<text xml:space="preserve" text-anchor="middle" x="1328.75" y="-560.45" font-family="Helvetica,sans-Serif" font-size="9.00">articles</text>
</g>
<!-- graph_viz -->
<g id="node15" class="node">
<title>graph_viz</title>
<polygon fill="#cfd8dc" stroke="#37474f" points="1702.25,-227 1472.5,-227 1472.5,-147 1702.25,-147 1702.25,-227"/>
<text xml:space="preserve" text-anchor="middle" x="1587.38" y="-212.55" font-family="Helvetica,sans-Serif" font-size="11.00">Knowledge Graph</text>
<text xml:space="preserve" text-anchor="middle" x="1587.38" y="-200.55" font-family="Helvetica,sans-Serif" font-size="11.00">(vis&#45;network.js)</text>
<text xml:space="preserve" text-anchor="middle" x="1587.38" y="-188.55" font-family="Helvetica,sans-Serif" font-size="11.00">━━━━━━━━━━━━━━━━━━━</text>
<text xml:space="preserve" text-anchor="middle" x="1587.38" y="-176.55" font-family="Helvetica,sans-Serif" font-size="11.00">Search, type filter</text>
<text xml:space="preserve" text-anchor="middle" x="1587.38" y="-164.55" font-family="Helvetica,sans-Serif" font-size="11.00">Node limit, date range</text>
<text xml:space="preserve" text-anchor="middle" x="1587.38" y="-152.55" font-family="Helvetica,sans-Serif" font-size="11.00">Type&#45;colored nodes</text>
</g>
<!-- producer&#45;&gt;graph_viz -->
<!-- consumer&#45;&gt;redis -->
<g id="edge11" class="edge">
<title>consumer&#45;&gt;redis</title>
<path fill="none" stroke="#d32f2f" stroke-dasharray="5,2" d="M803.91,-346.76C810.82,-345.49 817.67,-344.31 824.38,-343.25 885.42,-333.6 1053.1,-356.85 1101.38,-318.25 1132.01,-293.76 1140.6,-246.69 1142.84,-216.35"/>
<polygon fill="#d32f2f" stroke="#d32f2f" points="803.69,-343.24 794.52,-348.55 805,-350.12 803.69,-343.24"/>
<polygon fill="#d32f2f" stroke="#d32f2f" points="1146.31,-216.92 1143.35,-206.75 1139.32,-216.55 1146.31,-216.92"/>
<text xml:space="preserve" text-anchor="middle" x="1139.74" y="-304.82" font-family="Helvetica,sans-Serif" font-size="9.00">clusters</text>
<text xml:space="preserve" text-anchor="middle" x="1139.74" y="-295.07" font-family="Helvetica,sans-Serif" font-size="9.00">cache</text>
</g>
<!-- consumer&#45;&gt;neo4j -->
<g id="edge9" class="edge">
<title>consumer&#45;&gt;neo4j</title>
<path fill="none" stroke="#c62828" d="M544.97,-348.9C531.71,-340.99 519.88,-330.96 511.12,-318.25 491.38,-289.6 496.89,-248.36 504.44,-220"/>
<polygon fill="#c62828" stroke="#c62828" points="507.76,-221.11 507.2,-210.53 501.04,-219.15 507.76,-221.11"/>
<text xml:space="preserve" text-anchor="middle" x="528.75" y="-304.82" font-family="Helvetica,sans-Serif" font-size="9.00">entities</text>
<text xml:space="preserve" text-anchor="middle" x="528.75" y="-295.07" font-family="Helvetica,sans-Serif" font-size="9.00">relations</text>
</g>
<!-- consumer&#45;&gt;postgres -->
<g id="edge10" class="edge">
<title>consumer&#45;&gt;postgres</title>
<path fill="none" stroke="#00695c" stroke-dasharray="5,2" d="M727.48,-348.87C741.23,-340.19 755.14,-329.86 766.38,-318.25 795.68,-287.95 817.87,-244.02 830.25,-215.73"/>
<polygon fill="#00695c" stroke="#00695c" points="833.37,-217.33 834.06,-206.75 826.93,-214.59 833.37,-217.33"/>
<text xml:space="preserve" text-anchor="middle" x="804.28" y="-304.82" font-family="Helvetica,sans-Serif" font-size="9.00">articles</text>
<text xml:space="preserve" text-anchor="middle" x="804.28" y="-295.07" font-family="Helvetica,sans-Serif" font-size="9.00">scores</text>
</g>
<!-- consumer&#45;&gt;groq -->
<g id="edge12" class="edge">
<title>consumer&#45;&gt;groq</title>
<path fill="none" stroke="#f57f17" stroke-dasharray="5,2" d="M531.44,-345.74C504.27,-337.83 476.25,-328.62 450.62,-318.25 440.46,-314.14 319.24,-247.21 253.75,-210.94"/>
<polygon fill="#f57f17" stroke="#f57f17" points="530.18,-349.02 540.75,-348.41 532.1,-342.29 530.18,-349.02"/>
<polygon fill="#f57f17" stroke="#f57f17" points="255.51,-207.91 245.06,-206.13 252.11,-214.04 255.51,-207.91"/>
<text xml:space="preserve" text-anchor="middle" x="470.5" y="-304.82" font-family="Helvetica,sans-Serif" font-size="9.00">extraction</text>
<text xml:space="preserve" text-anchor="middle" x="470.5" y="-295.07" font-family="Helvetica,sans-Serif" font-size="9.00">scoring</text>
</g>
<!-- weather&#45;&gt;redis -->
<g id="edge14" class="edge">
<title>weather&#45;&gt;redis</title>
<path fill="none" stroke="#d32f2f" stroke-dasharray="5,2" d="M1192.53,-349.06C1187.28,-331.6 1180.47,-309.03 1174.38,-289 1166.88,-264.36 1158.28,-236.36 1152.04,-216.1"/>
<polygon fill="#d32f2f" stroke="#d32f2f" points="1155.4,-215.12 1149.11,-206.59 1148.71,-217.18 1155.4,-215.12"/>
<text xml:space="preserve" text-anchor="middle" x="1193.83" y="-299.95" font-family="Helvetica,sans-Serif" font-size="9.00">alerts</text>
</g>
<!-- weather&#45;&gt;postgres -->
<g id="edge13" class="edge">
<title>weather&#45;&gt;postgres</title>
<path fill="none" stroke="#00695c" stroke-dasharray="5,2" d="M1090.79,-348.8C1083.22,-346.89 1075.69,-345.02 1068.38,-343.25 1017.85,-331.03 998.81,-344.81 954.12,-318.25 931.45,-304.77 886.48,-248.01 860.72,-214.03"/>
<polygon fill="#00695c" stroke="#00695c" points="863.71,-212.19 854.9,-206.31 858.12,-216.4 863.71,-212.19"/>
<text xml:space="preserve" text-anchor="middle" x="985.25" y="-304.82" font-family="Helvetica,sans-Serif" font-size="9.00">obs, anomalies</text>
<text xml:space="preserve" text-anchor="middle" x="985.25" y="-295.07" font-family="Helvetica,sans-Serif" font-size="9.00">normals</text>
</g>
<!-- signals -->
<g id="node11" class="node">
<title>signals</title>
<polygon fill="#f8bbd0" stroke="#ad1457" points="1050,-413.5 842.75,-413.5 842.75,-345.5 1050,-345.5 1050,-413.5"/>
<text xml:space="preserve" text-anchor="middle" x="946.38" y="-399.05" font-family="Helvetica,sans-Serif" font-size="11.00">Signal Worker</text>
<text xml:space="preserve" text-anchor="middle" x="946.38" y="-387.05" font-family="Helvetica,sans-Serif" font-size="11.00">━━━━━━━━━━━━━━━━━</text>
<text xml:space="preserve" text-anchor="middle" x="946.38" y="-375.05" font-family="Helvetica,sans-Serif" font-size="11.00">Entity/Topic Spikes</text>
<text xml:space="preserve" text-anchor="middle" x="946.38" y="-363.05" font-family="Helvetica,sans-Serif" font-size="11.00">New Entity Detection</text>
<text xml:space="preserve" text-anchor="middle" x="946.38" y="-351.05" font-family="Helvetica,sans-Serif" font-size="11.00">(15min cycle)</text>
</g>
<!-- signals&#45;&gt;neo4j -->
<g id="edge15" class="edge">
<title>signals&#45;&gt;neo4j</title>
<path fill="none" stroke="#c62828" stroke-dasharray="5,2" d="M842.52,-347.17C836.4,-345.74 830.33,-344.41 824.38,-343.25 772.46,-333.09 631.74,-347.45 587.62,-318.25 553.4,-295.59 533.84,-250.96 523.92,-220.31"/>
<polygon fill="#c62828" stroke="#c62828" points="527.28,-219.32 521.02,-210.78 520.58,-221.36 527.28,-219.32"/>
<text xml:space="preserve" text-anchor="middle" x="603" y="-299.95" font-family="Helvetica,sans-Serif" font-size="9.00">queries</text>
</g>
<!-- signals&#45;&gt;postgres -->
<g id="edge16" class="edge">
<title>signals&#45;&gt;postgres</title>
<path fill="none" stroke="#00695c" stroke-dasharray="5,2" d="M888.29,-337.39C882.48,-331.48 877.16,-325.07 872.88,-318.25 853.26,-287.01 845.86,-244.51 843.07,-216.68"/>
<polygon fill="#00695c" stroke="#00695c" points="885.69,-339.75 895.36,-344.09 890.51,-334.67 885.69,-339.75"/>
<polygon fill="#00695c" stroke="#00695c" points="846.57,-216.54 842.23,-206.88 839.59,-217.14 846.57,-216.54"/>
<text xml:space="preserve" text-anchor="middle" x="893.12" y="-304.82" font-family="Helvetica,sans-Serif" font-size="9.00">save/read</text>
<text xml:space="preserve" text-anchor="middle" x="893.12" y="-295.07" font-family="Helvetica,sans-Serif" font-size="9.00">signals</text>
</g>
<!-- reports -->
<g id="node12" class="node">
<title>reports</title>
<polygon fill="#c8e6c9" stroke="#2e7d32" points="495.75,-415.75 221,-415.75 221,-343.25 495.75,-343.25 495.75,-415.75"/>
<text xml:space="preserve" text-anchor="middle" x="358.38" y="-401.3" font-family="Helvetica,sans-Serif" font-size="11.00">Report Pipeline</text>
<text xml:space="preserve" text-anchor="middle" x="358.38" y="-389.3" font-family="Helvetica,sans-Serif" font-size="11.00">━━━━━━━━━━━━━━━━━━━━━━━</text>
<text xml:space="preserve" text-anchor="middle" x="358.38" y="-377.3" font-family="Helvetica,sans-Serif" font-size="11.00">Weights → Report → India</text>
<text xml:space="preserve" text-anchor="middle" x="358.38" y="-363.05" font-family="Helvetica,sans-Serif" font-size="11.00">Impact → Inference</text>
<text xml:space="preserve" text-anchor="middle" x="358.38" y="-348.8" font-family="Helvetica,sans-Serif" font-size="11.00">(hourly per domain)</text>
</g>
<!-- reports&#45;&gt;neo4j -->
<g id="edge17" class="edge">
<title>reports&#45;&gt;neo4j</title>
<path fill="none" stroke="#c62828" stroke-dasharray="5,2" d="M350.89,-342.98C349.07,-325.7 349.75,-305.22 358.62,-289 382.6,-245.19 434.6,-217.5 472.15,-202.41"/>
<polygon fill="#c62828" stroke="#c62828" points="473.31,-205.72 481.39,-198.86 470.8,-199.18 473.31,-205.72"/>
<text xml:space="preserve" text-anchor="middle" x="374" y="-304.82" font-family="Helvetica,sans-Serif" font-size="9.00">graph</text>
<text xml:space="preserve" text-anchor="middle" x="374" y="-295.07" font-family="Helvetica,sans-Serif" font-size="9.00">queries</text>
</g>
<!-- reports&#45;&gt;postgres -->
<g id="edge18" class="edge">
<title>reports&#45;&gt;postgres</title>
<path fill="none" stroke="#00695c" stroke-dasharray="5,2" d="M507.28,-344.57C509.66,-344.12 512.03,-343.68 514.38,-343.25 593.4,-328.83 620.55,-352.16 693.38,-318.25 710.99,-310.05 711.34,-301.9 725.88,-289 755.38,-262.82 789.4,-233.14 812.84,-212.76"/>
<polygon fill="#00695c" stroke="#00695c" points="506.7,-341.12 497.54,-346.45 508.02,-347.99 506.7,-341.12"/>
<polygon fill="#00695c" stroke="#00695c" points="814.87,-215.62 820.13,-206.42 810.28,-210.34 814.87,-215.62"/>
<text xml:space="preserve" text-anchor="middle" x="741.62" y="-309.7" font-family="Helvetica,sans-Serif" font-size="9.00">articles</text>
<text xml:space="preserve" text-anchor="middle" x="741.62" y="-299.95" font-family="Helvetica,sans-Serif" font-size="9.00">weights</text>
<text xml:space="preserve" text-anchor="middle" x="741.62" y="-290.2" font-family="Helvetica,sans-Serif" font-size="9.00">reports</text>
</g>
<!-- reports&#45;&gt;groq -->
<g id="edge19" class="edge">
<title>reports&#45;&gt;groq</title>
<path fill="none" stroke="#f57f17" stroke-dasharray="5,2" d="M223.54,-335.7C217.73,-330.53 212.52,-324.74 208.12,-318.25 187.74,-288.11 194.65,-244.43 202.6,-216.12"/>
<polygon fill="#f57f17" stroke="#f57f17" points="221.28,-338.37 231.27,-341.89 225.65,-332.91 221.28,-338.37"/>
<polygon fill="#f57f17" stroke="#f57f17" points="205.87,-217.4 205.44,-206.81 199.17,-215.36 205.87,-217.4"/>
<text xml:space="preserve" text-anchor="middle" x="227.25" y="-299.95" font-family="Helvetica,sans-Serif" font-size="9.00">synthesis</text>
</g>
<!-- api -->
<g id="node13" class="node">
<title>api</title>
<polygon fill="#b2ebf2" stroke="#00838f" points="1560.62,-401.5 1426.12,-401.5 1426.12,-357.5 1560.62,-357.5 1560.62,-401.5"/>
<text xml:space="preserve" text-anchor="middle" x="1493.38" y="-387.05" font-family="Helvetica,sans-Serif" font-size="11.00">/graph &#160;/chat &#160;/reports</text>
<text xml:space="preserve" text-anchor="middle" x="1493.38" y="-375.05" font-family="Helvetica,sans-Serif" font-size="11.00">/news &#160;/signals &#160;/weather</text>
<text xml:space="preserve" text-anchor="middle" x="1493.38" y="-363.05" font-family="Helvetica,sans-Serif" font-size="11.00">/live&#45;feed &#160;/timeline</text>
</g>
<!-- api&#45;&gt;redis -->
<g id="edge27" class="edge">
<title>api&#45;&gt;redis</title>
<path fill="none" stroke="#d32f2f" stroke-dasharray="5,2" d="M1489,-357.28C1483.37,-335.94 1471.3,-304.12 1447.38,-289 1423.13,-273.68 1213.5,-296.51 1189.38,-281 1167.03,-266.64 1155.16,-237.95 1149.12,-216.22"/>
<polygon fill="#d32f2f" stroke="#d32f2f" points="1152.57,-215.62 1146.76,-206.77 1145.78,-217.31 1152.57,-215.62"/>
<text xml:space="preserve" text-anchor="middle" x="1489.14" y="-299.95" font-family="Helvetica,sans-Serif" font-size="9.00">pub/sub</text>
</g>
<!-- api&#45;&gt;neo4j -->
<g id="edge25" class="edge">
<title>api&#45;&gt;neo4j</title>
<path fill="none" stroke="#c62828" stroke-dasharray="5,2" d="M1425.65,-361.46C1397.57,-354.92 1364.55,-347.92 1334.38,-343.25 1272.42,-333.67 1110.75,-343.51 1053.38,-318.25 1035.74,-310.49 1039.22,-296.28 1021.38,-289 997.08,-279.09 811.18,-285.77 785.38,-281 702.59,-265.7 610.84,-229.78 558.44,-207.33"/>
<polygon fill="#c62828" stroke="#c62828" points="560.14,-204.25 549.57,-203.49 557.36,-210.67 560.14,-204.25"/>
<text xml:space="preserve" text-anchor="middle" x="1072.88" y="-299.95" font-family="Helvetica,sans-Serif" font-size="9.00">subgraph</text>
</g>
<!-- api&#45;&gt;postgres -->
<g id="edge26" class="edge">
<title>api&#45;&gt;postgres</title>
<path fill="none" stroke="#00695c" stroke-dasharray="5,2" d="M1439.86,-357.05C1384.42,-335.86 1294.81,-304.44 1214.38,-289 1163.62,-279.26 1148.94,-291.67 1098.38,-281 1021.66,-264.81 936.9,-230.77 886.45,-208.67"/>
<polygon fill="#00695c" stroke="#00695c" points="888.16,-205.6 877.6,-204.76 885.33,-212 888.16,-205.6"/>
<text xml:space="preserve" text-anchor="middle" x="1332.44" y="-299.95" font-family="Helvetica,sans-Serif" font-size="9.00">data</text>
</g>
<!-- chat -->
<g id="node14" class="node">
<title>chat</title>
<polygon fill="#ffe0b2" stroke="#e65100" points="184.75,-408.62 0,-408.62 0,-350.38 184.75,-350.38 184.75,-408.62"/>
<text xml:space="preserve" text-anchor="middle" x="92.38" y="-394.18" font-family="Helvetica,sans-Serif" font-size="11.00">Chat Agent</text>
<text xml:space="preserve" text-anchor="middle" x="92.38" y="-382.18" font-family="Helvetica,sans-Serif" font-size="11.00">(LangGraph)</text>
<text xml:space="preserve" text-anchor="middle" x="92.38" y="-370.18" font-family="Helvetica,sans-Serif" font-size="11.00">━━━━━━━━━━━━━━━</text>
<text xml:space="preserve" text-anchor="middle" x="92.38" y="-358.18" font-family="Helvetica,sans-Serif" font-size="11.00">NL → Cypher → Synthesis</text>
</g>
<!-- api&#45;&gt;chat -->
<g id="edge20" class="edge">
<title>api&#45;&gt;chat</title>
<path fill="none" stroke="#e65100" d="M1456.09,-402C1424.84,-419.47 1378.39,-442.27 1334.38,-451.81 1272.97,-465.12 263.61,-469.7 203.38,-451.81 178.93,-444.55 154.84,-430.02 135.39,-415.88"/>
<polygon fill="#e65100" stroke="#e65100" points="137.53,-413.11 127.44,-409.9 133.33,-418.71 137.53,-413.11"/>
<text xml:space="preserve" text-anchor="middle" x="1232.38" y="-464.7" font-family="Helvetica,sans-Serif" font-size="9.00">questions</text>
</g>
<!-- api&#45;&gt;graph_viz -->
<g id="edge28" class="edge">
<title>api&#45;&gt;graph_viz</title>
<path fill="none" stroke="#555555" d="M1527.68,-357.11C1541.17,-346.97 1555.52,-333.67 1564.38,-318.25 1578.15,-294.24 1584.05,-263.97 1586.44,-238.65"/>
<polygon fill="#555555" stroke="#555555" points="1589.91,-239.15 1587.19,-228.91 1582.93,-238.61 1589.91,-239.15"/>
</g>
<!-- map_view -->
<g id="node16" class="node">
<title>map_view</title>
<polygon fill="#cfd8dc" stroke="#37474f" points="1436.25,-227 1206.5,-227 1206.5,-147 1436.25,-147 1436.25,-227"/>
<text xml:space="preserve" text-anchor="middle" x="1321.38" y="-212.55" font-family="Helvetica,sans-Serif" font-size="11.00">Geospatial Map</text>
<text xml:space="preserve" text-anchor="middle" x="1321.38" y="-200.55" font-family="Helvetica,sans-Serif" font-size="11.00">(Leaflet)</text>
<text xml:space="preserve" text-anchor="middle" x="1321.38" y="-188.55" font-family="Helvetica,sans-Serif" font-size="11.00">━━━━━━━━━━━━━━━━━━━</text>
<text xml:space="preserve" text-anchor="middle" x="1321.38" y="-176.55" font-family="Helvetica,sans-Serif" font-size="11.00">Country GeoJSON</text>
<text xml:space="preserve" text-anchor="middle" x="1321.38" y="-164.55" font-family="Helvetica,sans-Serif" font-size="11.00">Entity markers</text>
<text xml:space="preserve" text-anchor="middle" x="1321.38" y="-152.55" font-family="Helvetica,sans-Serif" font-size="11.00">Edge polylines</text>
</g>
<!-- api&#45;&gt;map_view -->
<g id="edge29" class="edge">
<title>api&#45;&gt;map_view</title>
<path fill="none" stroke="#555555" d="M1510.31,-357.27C1523.97,-337.45 1538.34,-308.12 1521.38,-289 1511.42,-277.79 1468.38,-286.35 1454.38,-281 1425.91,-270.14 1397.76,-251.86 1374.74,-234.36"/>
<polygon fill="#555555" stroke="#555555" points="1377.09,-231.76 1367.05,-228.39 1372.79,-237.29 1377.09,-231.76"/>
</g>
<!-- chat_ui -->
<g id="node17" class="node">
<title>chat_ui</title>
<polygon fill="#cfd8dc" stroke="#37474f" points="1699,-90 1491.75,-90 1491.75,-22 1699,-22 1699,-90"/>
<text xml:space="preserve" text-anchor="middle" x="1595.38" y="-75.55" font-family="Helvetica,sans-Serif" font-size="11.00">Chat Panel</text>
<text xml:space="preserve" text-anchor="middle" x="1595.38" y="-63.55" font-family="Helvetica,sans-Serif" font-size="11.00">━━━━━━━━━━━━━━━━━</text>
<text xml:space="preserve" text-anchor="middle" x="1595.38" y="-51.55" font-family="Helvetica,sans-Serif" font-size="11.00">AI Q&amp;A (Markdown)</text>
<text xml:space="preserve" text-anchor="middle" x="1595.38" y="-39.55" font-family="Helvetica,sans-Serif" font-size="11.00">Cypher display</text>
<text xml:space="preserve" text-anchor="middle" x="1595.38" y="-27.55" font-family="Helvetica,sans-Serif" font-size="11.00">Conversation history</text>
</g>
<!-- api&#45;&gt;chat_ui -->
<g id="edge30" class="edge">
<title>api&#45;&gt;chat_ui</title>
<path fill="none" stroke="#555555" d="M1561.03,-374.19C1638.29,-367.69 1757.63,-352.31 1785.38,-318.25 1840.75,-250.28 1836.52,-192.2 1785.38,-121 1767.47,-96.07 1739.36,-80.73 1710.2,-71.32"/>
<polygon fill="#555555" stroke="#555555" points="1711.46,-68.04 1700.87,-68.54 1709.46,-74.75 1711.46,-68.04"/>
</g>
<!-- dashboard -->
<g id="node18" class="node">
<title>dashboard</title>
<polygon fill="#cfd8dc" stroke="#37474f" points="1444.25,-96 1214.5,-96 1214.5,-16 1444.25,-16 1444.25,-96"/>
<text xml:space="preserve" text-anchor="middle" x="1329.38" y="-81.55" font-family="Helvetica,sans-Serif" font-size="11.00">Dashboard Grid</text>
<text xml:space="preserve" text-anchor="middle" x="1329.38" y="-69.55" font-family="Helvetica,sans-Serif" font-size="11.00">(react&#45;grid&#45;layout)</text>
<text xml:space="preserve" text-anchor="middle" x="1329.38" y="-57.55" font-family="Helvetica,sans-Serif" font-size="11.00">━━━━━━━━━━━━━━━━━━━</text>
<text xml:space="preserve" text-anchor="middle" x="1329.38" y="-45.55" font-family="Helvetica,sans-Serif" font-size="11.00">Weather · News Feed</text>
<text xml:space="preserve" text-anchor="middle" x="1329.38" y="-33.55" font-family="Helvetica,sans-Serif" font-size="11.00">Signals · Topics</text>
<text xml:space="preserve" text-anchor="middle" x="1329.38" y="-21.55" font-family="Helvetica,sans-Serif" font-size="11.00">Domain Reports</text>
</g>
<!-- api&#45;&gt;dashboard -->
<g id="edge31" class="edge">
<title>api&#45;&gt;dashboard</title>
<path fill="none" stroke="#555555" d="M1561.04,-369.55C1614.32,-358.56 1685.27,-334.28 1720.38,-281 1753.14,-231.27 1757.99,-193.17 1720.38,-147 1649.58,-60.09 1582.41,-122 1473.38,-96 1467.47,-94.59 1461.44,-93.12 1455.36,-91.59"/>
<polygon fill="#555555" stroke="#555555" points="1456.38,-88.24 1445.83,-89.18 1454.67,-95.03 1456.38,-88.24"/>
</g>
<!-- chat&#45;&gt;neo4j -->
<g id="edge21" class="edge">
<title>chat&#45;&gt;neo4j</title>
<path fill="none" stroke="#c62828" stroke-dasharray="5,2" d="M172.24,-349.95C197.73,-340.38 225.93,-329.32 251.38,-318.25 256.92,-315.84 398.82,-245.67 472.23,-209.35"/>
<polygon fill="#c62828" stroke="#c62828" points="473.78,-212.49 481.19,-204.92 470.67,-206.22 473.78,-212.49"/>
<text xml:space="preserve" text-anchor="middle" x="320.14" y="-299.95" font-family="Helvetica,sans-Serif" font-size="9.00">Cypher</text>
</g>
<!-- chat&#45;&gt;postgres -->
<g id="edge22" class="edge">
<title>chat&#45;&gt;postgres</title>
<path fill="none" stroke="#00695c" stroke-dasharray="5,2" d="M174.54,-349.93C184.17,-347.32 193.93,-345 203.38,-343.25 295.3,-326.19 537.33,-354.83 623.38,-318.25 641.03,-310.74 639.52,-300.16 655.12,-289 700.17,-256.79 756.65,-227.54 795.53,-208.9"/>
<polygon fill="#00695c" stroke="#00695c" points="796.61,-212.26 804.15,-204.81 793.61,-205.94 796.61,-212.26"/>
<text xml:space="preserve" text-anchor="middle" x="669.75" y="-299.95" font-family="Helvetica,sans-Serif" font-size="9.00">articles</text>
</g>
<!-- chat&#45;&gt;groq -->
<g id="edge23" class="edge">
<title>chat&#45;&gt;groq</title>
<path fill="none" stroke="#f57f17" stroke-dasharray="5,2" d="M98.88,-339.31C102.66,-323.04 108.45,-304.41 117.12,-289 133.79,-259.42 160.96,-231.81 182.02,-212.96"/>
<polygon fill="#f57f17" stroke="#f57f17" points="95.56,-338.14 96.89,-348.65 102.4,-339.6 95.56,-338.14"/>
<polygon fill="#f57f17" stroke="#f57f17" points="184.26,-215.65 189.49,-206.43 179.65,-210.38 184.26,-215.65"/>
<text xml:space="preserve" text-anchor="middle" x="142.25" y="-300.32" font-family="Helvetica,sans-Serif" font-size="9.00">NL↔Cypher</text>
</g>
<!-- chat&#45;&gt;api -->
<g id="edge24" class="edge">
<title>chat&#45;&gt;api</title>
<path fill="none" stroke="#e65100" stroke-dasharray="5,2" d="M126.23,-409C146.97,-425.07 174.93,-443.37 203.38,-451.81 263.61,-469.7 1272.97,-465.12 1334.38,-451.81 1373.92,-443.24 1415.43,-423.97 1446.12,-407.47"/>
<polygon fill="#e65100" stroke="#e65100" points="1447.68,-410.6 1454.77,-402.73 1444.31,-404.47 1447.68,-410.6"/>
<text xml:space="preserve" text-anchor="middle" x="1190.38" y="-464.7" font-family="Helvetica,sans-Serif" font-size="9.00">answers</text>
</g>
<!-- graph_viz&#45;&gt;chat_ui -->
<!-- map_view&#45;&gt;dashboard -->
</g>
</svg>
