<?xml version="1.0" encoding="UTF-8" standalone="no"?>
<!DOCTYPE svg PUBLIC "-//W3C//DTD SVG 1.1//EN"
 "http://www.w3.org/Graphics/SVG/1.1/DTD/svg11.dtd">
<!-- Generated by graphviz version 14.1.4 (20260321.0153)
 -->
<!-- Title: report_pipeline Pages: 1 -->
<svg width="1812pt" height="1464pt"
 viewBox="0.00 0.00 1812.00 1464.00" xmlns="http://www.w3.org/2000/svg" xmlns:xlink="http://www.w3.org/1999/xlink">
<g id="graph0" class="graph" transform="scale(1 1) rotate(0) translate(28.8 1435.55)">
<title>report_pipeline</title>
<polygon fill="white" stroke="none" points="-28.8,28.8 -28.8,-1435.55 1783.55,-1435.55 1783.55,28.8 -28.8,28.8"/>
<text xml:space="preserve" text-anchor="middle" x="877.38" y="-1389.45" font-family="Helvetica,sans-Serif" font-size="14.00" fill="#333333">Report Generation — 4&#45;Agent Pipeline (Per Domain, Hourly)</text>
<g id="clust1" class="cluster">
<title>cluster_stage0</title>
<polygon fill="#f1f8e9" stroke="#558b2f" points="549,-1162.75 549,-1293.75 829,-1293.75 829,-1162.75 549,-1162.75"/>
<text xml:space="preserve" text-anchor="middle" x="689" y="-1276.45" font-family="Helvetica,sans-Serif" font-size="14.00" fill="#33691e">Stage 0: Dynamic Weights</text>
</g>
<g id="clust2" class="cluster">
<title>cluster_stage1</title>
<polygon fill="#f1f8e9" stroke="#558b2f" points="267,-828.75 267,-1128 513,-1128 513,-828.75 267,-828.75"/>
<text xml:space="preserve" text-anchor="middle" x="390" y="-1110.7" font-family="Helvetica,sans-Serif" font-size="14.00" fill="#33691e">Step 1: ReportAgent</text>
</g>
<g id="clust3" class="cluster">
<title>cluster_stage2</title>
<polygon fill="#f1f8e9" stroke="#558b2f" points="222,-464.25 222,-794 512,-794 512,-464.25 222,-464.25"/>
<text xml:space="preserve" text-anchor="middle" x="367" y="-776.7" font-family="Helvetica,sans-Serif" font-size="14.00" fill="#33691e">Step 2: IndiaImpactAgent</text>
</g>
<g id="clust4" class="cluster">
<title>cluster_stage3</title>
<polygon fill="#f1f8e9" stroke="#558b2f" points="771,-194.75 771,-429.5 1683,-429.5 1683,-194.75 771,-194.75"/>
<text xml:space="preserve" text-anchor="middle" x="1227" y="-412.2" font-family="Helvetica,sans-Serif" font-size="14.00" fill="#33691e">Step 3: InferenceAgent</text>
</g>
<!-- orchestrator -->
<g id="node1" class="node">
<title>orchestrator</title>
<polygon fill="#c8e6c9" stroke="#2e7d32" points="815.12,-1383.75 562.88,-1383.75 562.88,-1327.75 815.12,-1327.75 815.12,-1383.75"/>
<text xml:space="preserve" text-anchor="middle" x="689" y="-1369.3" font-family="Helvetica,sans-Serif" font-size="11.00">ReportOrchestrator</text>
<text xml:space="preserve" text-anchor="middle" x="689" y="-1357.3" font-family="Helvetica,sans-Serif" font-size="11.00">━━━━━━━━━━━━━━━━━━━━━</text>
<text xml:space="preserve" text-anchor="middle" x="689" y="-1345.3" font-family="Helvetica,sans-Serif" font-size="11.00">generate(domain, date_range)</text>
<text xml:space="preserve" text-anchor="middle" x="689" y="-1333.3" font-family="Helvetica,sans-Serif" font-size="11.00">Graceful degradation</text>
</g>
<!-- weight_gen -->
<g id="node2" class="node">
<title>weight_gen</title>
<polygon fill="#dcedc8" stroke="#558b2f" points="820.75,-1262.75 557.25,-1262.75 557.25,-1170.75 820.75,-1170.75 820.75,-1262.75"/>
<text xml:space="preserve" text-anchor="middle" x="689" y="-1248.3" font-family="Helvetica,sans-Serif" font-size="11.00">Weight Generator</text>
<text xml:space="preserve" text-anchor="middle" x="689" y="-1236.3" font-family="Helvetica,sans-Serif" font-size="11.00">━━━━━━━━━━━━━━━━━━━━━━</text>
<text xml:space="preserve" text-anchor="middle" x="689" y="-1224.3" font-family="Helvetica,sans-Serif" font-size="11.00">• Sample entity/relation types</text>
<text xml:space="preserve" text-anchor="middle" x="689" y="-1212.3" font-family="Helvetica,sans-Serif" font-size="11.00"> &#160;from Neo4j (~50ms)</text>
<text xml:space="preserve" text-anchor="middle" x="689" y="-1200.3" font-family="Helvetica,sans-Serif" font-size="11.00">• LLM scores relevance</text>
<text xml:space="preserve" text-anchor="middle" x="689" y="-1188.3" font-family="Helvetica,sans-Serif" font-size="11.00">• Cached in Postgres (24h)</text>
<text xml:space="preserve" text-anchor="middle" x="689" y="-1176.3" font-family="Helvetica,sans-Serif" font-size="11.00">• Fallback: static config</text>
</g>
<!-- orchestrator&#45;&gt;weight_gen -->
<g id="edge8" class="edge">
<title>orchestrator&#45;&gt;weight_gen</title>
<path fill="none" stroke="#2e7d32" d="M689,-1327.36C689,-1312.23 689,-1292.86 689,-1274.63"/>
<polygon fill="#2e7d32" stroke="#2e7d32" points="692.5,-1274.68 689,-1264.68 685.5,-1274.68 692.5,-1274.68"/>
</g>
<!-- report_score -->
<g id="node3" class="node">
<title>report_score</title>
<polygon fill="#dcedc8" stroke="#558b2f" points="504.88,-1097 275.12,-1097 275.12,-1041 504.88,-1041 504.88,-1097"/>
<text xml:space="preserve" text-anchor="middle" x="390" y="-1082.55" font-family="Helvetica,sans-Serif" font-size="11.00">Scored Entity Query</text>
<text xml:space="preserve" text-anchor="middle" x="390" y="-1070.55" font-family="Helvetica,sans-Serif" font-size="11.00">━━━━━━━━━━━━━━━━━━━</text>
<text xml:space="preserve" text-anchor="middle" x="390" y="-1058.55" font-family="Helvetica,sans-Serif" font-size="11.00">Cypher w/ weight maps</text>
<text xml:space="preserve" text-anchor="middle" x="390" y="-1046.55" font-family="Helvetica,sans-Serif" font-size="11.00">Domain entities + rels</text>
</g>
<!-- weight_gen&#45;&gt;report_score -->
<g id="edge9" class="edge">
<title>weight_gen&#45;&gt;report_score</title>
<path fill="none" stroke="#558b2f" d="M596.03,-1170.43C550.83,-1148.4 497.55,-1122.43 456.5,-1102.41"/>
<polygon fill="#558b2f" stroke="#558b2f" points="458.22,-1099.36 447.69,-1098.12 455.15,-1105.65 458.22,-1099.36"/>
<text xml:space="preserve" text-anchor="middle" x="555.25" y="-1137.2" font-family="Helvetica,sans-Serif" font-size="9.00">weights</text>
</g>
<!-- neo4j -->
<g id="node14" class="node">
<title>neo4j</title>
<path fill="#fce4ec" stroke="#c62828" d="M757,-246.6C757,-248.41 744.9,-249.88 730,-249.88 715.1,-249.88 703,-248.41 703,-246.6 703,-246.6 703,-217.15 703,-217.15 703,-215.34 715.1,-213.88 730,-213.88 744.9,-213.88 757,-215.34 757,-217.15 757,-217.15 757,-246.6 757,-246.6"/>
<path fill="none" stroke="#c62828" d="M757,-246.6C757,-244.8 744.9,-243.33 730,-243.33 715.1,-243.33 703,-244.8 703,-246.6"/>
<text xml:space="preserve" text-anchor="middle" x="730" y="-227.43" font-family="Helvetica,sans-Serif" font-size="11.00">Neo4j</text>
</g>
<!-- weight_gen&#45;&gt;neo4j -->
<g id="edge14" class="edge">
<title>weight_gen&#45;&gt;neo4j</title>
<path fill="none" stroke="#c62828" stroke-dasharray="5,2" d="M740.76,-1170.45C765.16,-1144.01 789,-1108.36 789,-1070 789,-1070 789,-1070 789,-500.38 789,-470.62 777.78,-464.82 766,-437.5 764.43,-433.85 763.22,-433.28 762,-429.5 743.29,-371.59 735.18,-300.4 731.94,-261.54"/>
<polygon fill="#c62828" stroke="#c62828" points="735.44,-261.32 731.17,-251.62 728.46,-261.87 735.44,-261.32"/>
<text xml:space="preserve" text-anchor="middle" x="804" y="-736.2" font-family="Helvetica,sans-Serif" font-size="9.00">sample</text>
<text xml:space="preserve" text-anchor="middle" x="804" y="-726.45" font-family="Helvetica,sans-Serif" font-size="9.00">types</text>
</g>
<!-- postgres -->
<g id="node15" class="node">
<title>postgres</title>
<path fill="#e0f2f1" stroke="#00695c" d="M1246.62,-32.73C1246.62,-34.53 1229.76,-36 1209,-36 1188.24,-36 1171.38,-34.53 1171.38,-32.73 1171.38,-32.73 1171.38,-3.27 1171.38,-3.27 1171.38,-1.47 1188.24,0 1209,0 1229.76,0 1246.62,-1.47 1246.62,-3.27 1246.62,-3.27 1246.62,-32.73 1246.62,-32.73"/>
<path fill="none" stroke="#00695c" d="M1246.62,-32.73C1246.62,-30.92 1229.76,-29.45 1209,-29.45 1188.24,-29.45 1171.38,-30.92 1171.38,-32.73"/>
<text xml:space="preserve" text-anchor="middle" x="1209" y="-13.55" font-family="Helvetica,sans-Serif" font-size="11.00">PostgreSQL</text>
</g>
<!-- weight_gen&#45;&gt;postgres -->
<g id="edge15" class="edge">
<title>weight_gen&#45;&gt;postgres</title>
<path fill="none" stroke="#00695c" stroke-dasharray="5,2" d="M832.37,-1210.28C1117.82,-1197.47 1730,-1159.56 1730,-1070 1730,-1070 1730,-1070 1730,-122.75 1730,-27.07 1387.75,-18.33 1258.04,-18.46"/>
<polygon fill="#00695c" stroke="#00695c" points="832.45,-1206.77 822.62,-1210.71 832.76,-1213.77 832.45,-1206.77"/>
<polygon fill="#00695c" stroke="#00695c" points="1258.39,-14.96 1248.4,-18.49 1258.41,-21.96 1258.39,-14.96"/>
<text xml:space="preserve" text-anchor="middle" x="1742.38" y="-605.83" font-family="Helvetica,sans-Serif" font-size="9.00">cache</text>
</g>
<!-- groq -->
<g id="node16" class="node">
<title>groq</title>
<polygon fill="#fffde7" stroke="#f57f17" points="275,-141.75 215,-141.75 211,-137.75 211,-105.75 271,-105.75 275,-109.75 275,-141.75"/>
<polyline fill="none" stroke="#f57f17" points="271,-137.75 211,-137.75"/>
<polyline fill="none" stroke="#f57f17" points="271,-137.75 271,-105.75"/>
<polyline fill="none" stroke="#f57f17" points="271,-137.75 275,-141.75"/>
<text xml:space="preserve" text-anchor="middle" x="243" y="-119.3" font-family="Helvetica,sans-Serif" font-size="11.00">Groq LLM</text>
</g>
<!-- weight_gen&#45;&gt;groq -->
<g id="edge22" class="edge">
<title>weight_gen&#45;&gt;groq</title>
<path fill="none" stroke="#f57f17" stroke-dasharray="5,2" d="M545.67,-1214.02C343.78,-1207.64 0,-1180.55 0,-1070 0,-1070 0,-1070 0,-230.88 0,-144.75 129.78,-127.83 199.65,-124.96"/>
<polygon fill="#f57f17" stroke="#f57f17" points="545.36,-1217.52 555.46,-1214.32 545.57,-1210.52 545.36,-1217.52"/>
<polygon fill="#f57f17" stroke="#f57f17" points="199.34,-128.47 209.22,-124.65 199.11,-121.47 199.34,-128.47"/>
</g>
<!-- report_articles -->
<g id="node4" class="node">
<title>report_articles</title>
<polygon fill="#dcedc8" stroke="#558b2f" points="459.38,-990 274.62,-990 274.62,-934 459.38,-934 459.38,-990"/>
<text xml:space="preserve" text-anchor="middle" x="367" y="-975.55" font-family="Helvetica,sans-Serif" font-size="11.00">Fetch Articles</text>
<text xml:space="preserve" text-anchor="middle" x="367" y="-963.55" font-family="Helvetica,sans-Serif" font-size="11.00">━━━━━━━━━━━━━━━</text>
<text xml:space="preserve" text-anchor="middle" x="367" y="-951.55" font-family="Helvetica,sans-Serif" font-size="11.00">Postgres full&#45;text</text>
<text xml:space="preserve" text-anchor="middle" x="367" y="-939.55" font-family="Helvetica,sans-Serif" font-size="11.00">Domain&#45;filtered</text>
</g>
<!-- report_score&#45;&gt;report_articles -->
<g id="edge1" class="edge">
<title>report_score&#45;&gt;report_articles</title>
<path fill="none" stroke="#558b2f" d="M384.02,-1040.69C381.38,-1028.66 378.24,-1014.31 375.38,-1001.24"/>
<polygon fill="#558b2f" stroke="#558b2f" points="378.84,-1000.67 373.28,-991.66 372,-1002.17 378.84,-1000.67"/>
</g>
<!-- report_score&#45;&gt;neo4j -->
<g id="edge16" class="edge">
<title>report_score&#45;&gt;neo4j</title>
<path fill="none" stroke="#c62828" stroke-dasharray="5,2" d="M505.05,-1045.83C580.78,-1027.82 666,-999.46 666,-963 666,-963 666,-963 666,-555.5 666,-434.98 655.8,-399.62 696,-286 699.27,-276.75 704.42,-267.47 709.72,-259.31"/>
<polygon fill="#c62828" stroke="#c62828" points="712.5,-261.46 715.3,-251.24 706.74,-257.48 712.5,-261.46"/>
<text xml:space="preserve" text-anchor="middle" x="679.88" y="-673.45" font-family="Helvetica,sans-Serif" font-size="9.00">scored</text>
<text xml:space="preserve" text-anchor="middle" x="679.88" y="-663.7" font-family="Helvetica,sans-Serif" font-size="9.00">query</text>
</g>
<!-- report_synth -->
<g id="node5" class="node">
<title>report_synth</title>
<polygon fill="#dcedc8" stroke="#558b2f" points="459.38,-883 274.62,-883 274.62,-836.75 459.38,-836.75 459.38,-883"/>
<text xml:space="preserve" text-anchor="middle" x="367" y="-868.55" font-family="Helvetica,sans-Serif" font-size="11.00">LLM Synthesis</text>
<text xml:space="preserve" text-anchor="middle" x="367" y="-856.55" font-family="Helvetica,sans-Serif" font-size="11.00">━━━━━━━━━━━━━━━</text>
<text xml:space="preserve" text-anchor="middle" x="367" y="-844.55" font-family="Helvetica,sans-Serif" font-size="11.00">→ DomainBriefing</text>
</g>
<!-- report_articles&#45;&gt;report_synth -->
<g id="edge2" class="edge">
<title>report_articles&#45;&gt;report_synth</title>
<path fill="none" stroke="#558b2f" d="M367,-933.64C367,-921.71 367,-907.59 367,-894.98"/>
<polygon fill="#558b2f" stroke="#558b2f" points="370.5,-894.98 367,-884.98 363.5,-894.98 370.5,-894.98"/>
</g>
<!-- report_articles&#45;&gt;postgres -->
<g id="edge17" class="edge">
<title>report_articles&#45;&gt;postgres</title>
<path fill="none" stroke="#00695c" stroke-dasharray="5,2" d="M274.33,-945.46C194.15,-929.3 91,-900.76 91,-860.88 91,-860.88 91,-860.88 91,-122.75 91,-68.26 944.18,-29.8 1159.91,-20.94"/>
<polygon fill="#00695c" stroke="#00695c" points="1159.8,-24.45 1169.65,-20.55 1159.51,-17.46 1159.8,-24.45"/>
<text xml:space="preserve" text-anchor="middle" x="105.62" y="-497.7" font-family="Helvetica,sans-Serif" font-size="9.00">articles</text>
</g>
<!-- india_discover -->
<g id="node6" class="node">
<title>india_discover</title>
<polygon fill="#dcedc8" stroke="#558b2f" points="504.38,-763 229.62,-763 229.62,-707 504.38,-707 504.38,-763"/>
<text xml:space="preserve" text-anchor="middle" x="367" y="-748.55" font-family="Helvetica,sans-Serif" font-size="11.00">Discover India Entities</text>
<text xml:space="preserve" text-anchor="middle" x="367" y="-736.55" font-family="Helvetica,sans-Serif" font-size="11.00">━━━━━━━━━━━━━━━━━━━━━━━</text>
<text xml:space="preserve" text-anchor="middle" x="367" y="-724.55" font-family="Helvetica,sans-Serif" font-size="11.00">Neo4j 1&#45;2 hop traversal</text>
<text xml:space="preserve" text-anchor="middle" x="367" y="-712.55" font-family="Helvetica,sans-Serif" font-size="11.00">from India + seed set</text>
</g>
<!-- report_synth&#45;&gt;india_discover -->
<g id="edge10" class="edge">
<title>report_synth&#45;&gt;india_discover</title>
<path fill="none" stroke="#558b2f" d="M367,-836.34C367,-819.08 367,-794.86 367,-774.54"/>
<polygon fill="#558b2f" stroke="#558b2f" points="370.5,-774.63 367,-764.63 363.5,-774.63 370.5,-774.63"/>
<text xml:space="preserve" text-anchor="middle" x="394" y="-803.2" font-family="Helvetica,sans-Serif" font-size="9.00">ReportResult</text>
</g>
<!-- report_synth&#45;&gt;groq -->
<g id="edge23" class="edge">
<title>report_synth&#45;&gt;groq</title>
<path fill="none" stroke="#f57f17" stroke-dasharray="5,2" d="M263.73,-832.6C218.27,-814.22 175,-784.1 175,-736 175,-736 175,-736 175,-230.88 175,-199.61 196.18,-170.19 214.89,-150.3"/>
<polygon fill="#f57f17" stroke="#f57f17" points="262.37,-835.82 272.96,-836.14 264.88,-829.29 262.37,-835.82"/>
<polygon fill="#f57f17" stroke="#f57f17" points="217.37,-152.77 221.9,-143.19 212.39,-147.85 217.37,-152.77"/>
</g>
<!-- india_subgraph -->
<g id="node7" class="node">
<title>india_subgraph</title>
<polygon fill="#dcedc8" stroke="#558b2f" points="504.38,-637.5 229.62,-637.5 229.62,-581.5 504.38,-581.5 504.38,-637.5"/>
<text xml:space="preserve" text-anchor="middle" x="367" y="-623.05" font-family="Helvetica,sans-Serif" font-size="11.00">Extract India Subgraph</text>
<text xml:space="preserve" text-anchor="middle" x="367" y="-611.05" font-family="Helvetica,sans-Serif" font-size="11.00">━━━━━━━━━━━━━━━━━━━━━━━</text>
<text xml:space="preserve" text-anchor="middle" x="367" y="-599.05" font-family="Helvetica,sans-Serif" font-size="11.00">Filter graph data for</text>
<text xml:space="preserve" text-anchor="middle" x="367" y="-587.05" font-family="Helvetica,sans-Serif" font-size="11.00">India connections</text>
</g>
<!-- india_discover&#45;&gt;india_subgraph -->
<g id="edge3" class="edge">
<title>india_discover&#45;&gt;india_subgraph</title>
<path fill="none" stroke="#558b2f" d="M367,-706.59C367,-689.72 367,-667.84 367,-649.22"/>
<polygon fill="#558b2f" stroke="#558b2f" points="370.5,-649.35 367,-639.35 363.5,-649.35 370.5,-649.35"/>
</g>
<!-- india_discover&#45;&gt;neo4j -->
<g id="edge18" class="edge">
<title>india_discover&#45;&gt;neo4j</title>
<path fill="none" stroke="#c62828" stroke-dasharray="5,2" d="M488.58,-706.51C534.55,-688.29 576,-658.55 576,-610.5 576,-610.5 576,-610.5 576,-363.5 576,-302.77 646.51,-264.42 692.1,-245.97"/>
<polygon fill="#c62828" stroke="#c62828" points="693.36,-249.24 701.41,-242.36 690.82,-242.71 693.36,-249.24"/>
<text xml:space="preserve" text-anchor="middle" x="593.62" y="-497.7" font-family="Helvetica,sans-Serif" font-size="9.00">traversal</text>
</g>
<!-- india_synth -->
<g id="node8" class="node">
<title>india_synth</title>
<polygon fill="#dcedc8" stroke="#558b2f" points="504.38,-530.5 229.62,-530.5 229.62,-472.25 504.38,-472.25 504.38,-530.5"/>
<text xml:space="preserve" text-anchor="middle" x="367" y="-516.05" font-family="Helvetica,sans-Serif" font-size="11.00">LLM Assessment</text>
<text xml:space="preserve" text-anchor="middle" x="367" y="-504.05" font-family="Helvetica,sans-Serif" font-size="11.00">━━━━━━━━━━━━━━━━━━━━━━━</text>
<text xml:space="preserve" text-anchor="middle" x="367" y="-492.05" font-family="Helvetica,sans-Serif" font-size="11.00">Token&#45;budgeted (~3700)</text>
<text xml:space="preserve" text-anchor="middle" x="367" y="-480.05" font-family="Helvetica,sans-Serif" font-size="11.00">→ IndiaImpactAnalysis</text>
</g>
<!-- india_subgraph&#45;&gt;india_synth -->
<g id="edge4" class="edge">
<title>india_subgraph&#45;&gt;india_synth</title>
<path fill="none" stroke="#558b2f" d="M367,-581.17C367,-569.32 367,-555.21 367,-542.23"/>
<polygon fill="#558b2f" stroke="#558b2f" points="370.5,-542.24 367,-532.24 363.5,-542.24 370.5,-542.24"/>
</g>
<!-- causal -->
<g id="node9" class="node">
<title>causal</title>
<polygon fill="#dcedc8" stroke="#558b2f" points="1364.38,-398.5 1089.62,-398.5 1089.62,-330.5 1364.38,-330.5 1364.38,-398.5"/>
<text xml:space="preserve" text-anchor="middle" x="1227" y="-384.05" font-family="Helvetica,sans-Serif" font-size="11.00">Causal Chain Discovery</text>
<text xml:space="preserve" text-anchor="middle" x="1227" y="-372.05" font-family="Helvetica,sans-Serif" font-size="11.00">━━━━━━━━━━━━━━━━━━━━━━━</text>
<text xml:space="preserve" text-anchor="middle" x="1227" y="-360.05" font-family="Helvetica,sans-Serif" font-size="11.00">RELATES_TO*2..5 traversal</text>
<text xml:space="preserve" text-anchor="middle" x="1227" y="-348.05" font-family="Helvetica,sans-Serif" font-size="11.00">cross&#45;domain scoring</text>
<text xml:space="preserve" text-anchor="middle" x="1227" y="-336.05" font-family="Helvetica,sans-Serif" font-size="11.00">Top 5 chains</text>
</g>
<!-- india_synth&#45;&gt;causal -->
<g id="edge11" class="edge">
<title>india_synth&#45;&gt;causal</title>
<path fill="none" stroke="#558b2f" d="M486.64,-471.81C501.51,-468.91 516.57,-466.29 531,-464.25 769.13,-430.56 836.66,-483.58 1071,-429.5 1096.97,-423.51 1124.19,-413.69 1148.49,-403.51"/>
<polygon fill="#558b2f" stroke="#558b2f" points="1149.87,-406.73 1157.69,-399.58 1147.12,-400.3 1149.87,-406.73"/>
<text xml:space="preserve" text-anchor="middle" x="1057.92" y="-438.7" font-family="Helvetica,sans-Serif" font-size="9.00">+ IndiaImpact</text>
</g>
<!-- india_synth&#45;&gt;groq -->
<g id="edge24" class="edge">
<title>india_synth&#45;&gt;groq</title>
<path fill="none" stroke="#f57f17" stroke-dasharray="5,2" d="M354.05,-461.15C328.94,-385.08 274.18,-219.2 252.3,-152.92"/>
<polygon fill="#f57f17" stroke="#f57f17" points="350.65,-462 357.1,-470.4 357.29,-459.8 350.65,-462"/>
<polygon fill="#f57f17" stroke="#f57f17" points="255.66,-151.94 249.2,-143.54 249.02,-154.14 255.66,-151.94"/>
</g>
<!-- narrate -->
<g id="node12" class="node">
<title>narrate</title>
<polygon fill="#dcedc8" stroke="#558b2f" points="1346.38,-261 1071.62,-261 1071.62,-202.75 1346.38,-202.75 1346.38,-261"/>
<text xml:space="preserve" text-anchor="middle" x="1209" y="-246.55" font-family="Helvetica,sans-Serif" font-size="11.00">LLM Narrative</text>
<text xml:space="preserve" text-anchor="middle" x="1209" y="-234.55" font-family="Helvetica,sans-Serif" font-size="11.00">━━━━━━━━━━━━━━━━━━━━━━━</text>
<text xml:space="preserve" text-anchor="middle" x="1209" y="-222.55" font-family="Helvetica,sans-Serif" font-size="11.00">Analyst&#45;readable output</text>
<text xml:space="preserve" text-anchor="middle" x="1209" y="-210.55" font-family="Helvetica,sans-Serif" font-size="11.00">→ InferenceAnalysis</text>
</g>
<!-- causal&#45;&gt;narrate -->
<g id="edge5" class="edge">
<title>causal&#45;&gt;narrate</title>
<path fill="none" stroke="#558b2f" d="M1222.41,-330.2C1219.99,-312.63 1217,-290.96 1214.46,-272.52"/>
<polygon fill="#558b2f" stroke="#558b2f" points="1217.95,-272.17 1213.12,-262.74 1211.01,-273.13 1217.95,-272.17"/>
</g>
<!-- causal&#45;&gt;neo4j -->
<g id="edge19" class="edge">
<title>causal&#45;&gt;neo4j</title>
<path fill="none" stroke="#c62828" stroke-dasharray="5,2" d="M1089.22,-333.99C954.83,-305.07 769.49,-264.79 762,-261 759.75,-259.86 757.53,-258.52 755.37,-257.06"/>
<polygon fill="#c62828" stroke="#c62828" points="757.66,-254.41 747.61,-251.03 753.36,-259.93 757.66,-254.41"/>
<text xml:space="preserve" text-anchor="middle" x="955.8" y="-296.95" font-family="Helvetica,sans-Serif" font-size="9.00">chain</text>
<text xml:space="preserve" text-anchor="middle" x="955.8" y="-287.2" font-family="Helvetica,sans-Serif" font-size="9.00">query</text>
</g>
<!-- impact -->
<g id="node10" class="node">
<title>impact</title>
<polygon fill="#dcedc8" stroke="#558b2f" points="1675.38,-392.5 1400.62,-392.5 1400.62,-336.5 1675.38,-336.5 1675.38,-392.5"/>
<text xml:space="preserve" text-anchor="middle" x="1538" y="-378.05" font-family="Helvetica,sans-Serif" font-size="11.00">Impact Propagation</text>
<text xml:space="preserve" text-anchor="middle" x="1538" y="-366.05" font-family="Helvetica,sans-Serif" font-size="11.00">━━━━━━━━━━━━━━━━━━━━━━━</text>
<text xml:space="preserve" text-anchor="middle" x="1538" y="-354.05" font-family="Helvetica,sans-Serif" font-size="11.00">BFS from events (3 hops)</text>
<text xml:space="preserve" text-anchor="middle" x="1538" y="-342.05" font-family="Helvetica,sans-Serif" font-size="11.00">Downstream entity cascades</text>
</g>
<!-- impact&#45;&gt;narrate -->
<g id="edge6" class="edge">
<title>impact&#45;&gt;narrate</title>
<path fill="none" stroke="#558b2f" d="M1469.03,-336.12C1417.25,-315.56 1346.15,-287.33 1291.39,-265.58"/>
<polygon fill="#558b2f" stroke="#558b2f" points="1293,-262.46 1282.42,-262.02 1290.42,-268.97 1293,-262.46"/>
</g>
<!-- impact&#45;&gt;neo4j -->
<g id="edge20" class="edge">
<title>impact&#45;&gt;neo4j</title>
<path fill="none" stroke="#c62828" stroke-dasharray="5,2" d="M1413.46,-336.03C1402.84,-334.03 1392.25,-332.15 1382,-330.5 1377.72,-329.81 765.96,-262.75 762,-261 759.55,-259.91 757.14,-258.57 754.83,-257.07"/>
<polygon fill="#c62828" stroke="#c62828" points="757.16,-254.44 747.1,-251.13 752.9,-260 757.16,-254.44"/>
<text xml:space="preserve" text-anchor="middle" x="1153.79" y="-292.07" font-family="Helvetica,sans-Serif" font-size="9.00">BFS</text>
</g>
<!-- weak -->
<g id="node11" class="node">
<title>weak</title>
<polygon fill="#dcedc8" stroke="#558b2f" points="1053.38,-392.5 778.62,-392.5 778.62,-336.5 1053.38,-336.5 1053.38,-392.5"/>
<text xml:space="preserve" text-anchor="middle" x="916" y="-378.05" font-family="Helvetica,sans-Serif" font-size="11.00">Weak Link Detection</text>
<text xml:space="preserve" text-anchor="middle" x="916" y="-366.05" font-family="Helvetica,sans-Serif" font-size="11.00">━━━━━━━━━━━━━━━━━━━━━━━</text>
<text xml:space="preserve" text-anchor="middle" x="916" y="-354.05" font-family="Helvetica,sans-Serif" font-size="11.00">Bridge entities across</text>
<text xml:space="preserve" text-anchor="middle" x="916" y="-342.05" font-family="Helvetica,sans-Serif" font-size="11.00">domains (fragile SPOFs)</text>
</g>
<!-- weak&#45;&gt;narrate -->
<g id="edge7" class="edge">
<title>weak&#45;&gt;narrate</title>
<path fill="none" stroke="#558b2f" d="M989.04,-336.11C1012.81,-326.82 1039.19,-316.1 1063,-305.5 1089.94,-293.51 1119.12,-279.26 1144.27,-266.57"/>
<polygon fill="#558b2f" stroke="#558b2f" points="1145.73,-269.75 1153.06,-262.1 1142.56,-263.51 1145.73,-269.75"/>
</g>
<!-- weak&#45;&gt;neo4j -->
<g id="edge21" class="edge">
<title>weak&#45;&gt;neo4j</title>
<path fill="none" stroke="#c62828" stroke-dasharray="5,2" d="M871.44,-336.08C840.09,-316.25 797.55,-288.26 762,-261 760.28,-259.68 758.54,-258.3 756.8,-256.88"/>
<polygon fill="#c62828" stroke="#c62828" points="759.31,-254.42 749.41,-250.64 754.79,-259.77 759.31,-254.42"/>
<text xml:space="preserve" text-anchor="middle" x="837.16" y="-296.95" font-family="Helvetica,sans-Serif" font-size="9.00">bridge</text>
<text xml:space="preserve" text-anchor="middle" x="837.16" y="-287.2" font-family="Helvetica,sans-Serif" font-size="9.00">query</text>
</g>
<!-- output -->
<g id="node13" class="node">
<title>output</title>
<polygon fill="#c8e6c9" stroke="#2e7d32" points="1352,-151.75 1066,-151.75 1066,-95.75 1352,-95.75 1352,-151.75"/>
<text xml:space="preserve" text-anchor="middle" x="1209" y="-137.3" font-family="Helvetica,sans-Serif" font-size="11.00">Enriched Domain Report</text>
<text xml:space="preserve" text-anchor="middle" x="1209" y="-125.3" font-family="Helvetica,sans-Serif" font-size="11.00">━━━━━━━━━━━━━━━━━━━━━━━━</text>
<text xml:space="preserve" text-anchor="middle" x="1209" y="-113.3" font-family="Helvetica,sans-Serif" font-size="11.00">Briefing + India Impact</text>
<text xml:space="preserve" text-anchor="middle" x="1209" y="-101.3" font-family="Helvetica,sans-Serif" font-size="11.00">+ Inference Analysis</text>
</g>
<!-- narrate&#45;&gt;output -->
<g id="edge12" class="edge">
<title>narrate&#45;&gt;output</title>
<path fill="none" stroke="#2e7d32" d="M1209,-202.44C1209,-190.5 1209,-176.42 1209,-163.55"/>
<polygon fill="#2e7d32" stroke="#2e7d32" points="1212.5,-163.68 1209,-153.68 1205.5,-163.68 1212.5,-163.68"/>
</g>
<!-- narrate&#45;&gt;groq -->
<g id="edge25" class="edge">
<title>narrate&#45;&gt;groq</title>
<path fill="none" stroke="#f57f17" stroke-dasharray="5,2" d="M1060.15,-214.52C835.4,-189.83 421.34,-144.34 286.61,-129.54"/>
<polygon fill="#f57f17" stroke="#f57f17" points="1059.54,-217.98 1069.86,-215.59 1060.3,-211.02 1059.54,-217.98"/>
<polygon fill="#f57f17" stroke="#f57f17" points="287.01,-126.06 276.69,-128.45 286.25,-133.02 287.01,-126.06"/>
</g>
<!-- output&#45;&gt;postgres -->
<g id="edge13" class="edge">
<title>output&#45;&gt;postgres</title>
<path fill="none" stroke="#00695c" stroke-dasharray="5,2" d="M1209,-95.49C1209,-80.71 1209,-62.46 1209,-47.49"/>
<polygon fill="#00695c" stroke="#00695c" points="1212.5,-47.84 1209,-37.84 1205.5,-47.84 1212.5,-47.84"/>
<text xml:space="preserve" text-anchor="middle" x="1231.88" y="-62.2" font-family="Helvetica,sans-Serif" font-size="9.00">save report</text>
</g>
</g>
</svg>
