<?xml version="1.0" encoding="UTF-8" standalone="no"?>
<!DOCTYPE svg PUBLIC "-//W3C//DTD SVG 1.1//EN"
 "http://www.w3.org/Graphics/SVG/1.1/DTD/svg11.dtd">
<!-- Generated by graphviz version 14.1.4 (20260321.0153)
 -->
<!-- Title: extraction_agent Pages: 1 -->
<svg width="580pt" height="999pt"
 viewBox="0.00 0.00 580.00 999.00" xmlns="http://www.w3.org/2000/svg" xmlns:xlink="http://www.w3.org/1999/xlink">
<g id="graph0" class="graph" transform="scale(1 1) rotate(0) translate(28.8 970.55)">
<title>extraction_agent</title>
<polygon fill="white" stroke="none" points="-28.8,28.8 -28.8,-970.55 550.8,-970.55 550.8,28.8 -28.8,28.8"/>
<text xml:space="preserve" text-anchor="middle" x="261" y="-924.45" font-family="Helvetica,sans-Serif" font-size="14.00" fill="#333333">Extraction Agent — Hybrid GLiNER2 + LLM (Per Article)</text>
<g id="clust1" class="cluster">
<title>cluster_phase_a</title>
<polygon fill="#fff3e0" stroke="#ef6c00" points="138,-741.75 138,-848.75 514,-848.75 514,-741.75 138,-741.75"/>
<text xml:space="preserve" text-anchor="middle" x="326" y="-831.45" font-family="Helvetica,sans-Serif" font-size="14.00" fill="#bf360c">Phase A: GLiNER2 (205M params, ~50ms, CPU)</text>
</g>
<g id="clust2" class="cluster">
<title>cluster_phase_b</title>
<polygon fill="#fff3e0" stroke="#ef6c00" points="8,-476.5 8,-697.25 429,-697.25 429,-476.5 8,-476.5"/>
<text xml:space="preserve" text-anchor="middle" x="218.5" y="-679.95" font-family="Helvetica,sans-Serif" font-size="14.00" fill="#bf360c">Phase B: LLM Canonicalization (~500 tokens)</text>
</g>
<g id="clust3" class="cluster">
<title>cluster_phase_c</title>
<polygon fill="#fff3e0" stroke="#ef6c00" points="180,-111 180,-432 427,-432 427,-111 180,-111"/>
<text xml:space="preserve" text-anchor="middle" x="303.5" y="-414.7" font-family="Helvetica,sans-Serif" font-size="14.00" fill="#bf360c">Phase C: LLM Enrichment (reasoning)</text>
</g>
<!-- article -->
<g id="node1" class="node">
<title>article</title>
<polygon fill="#e3f2fd" stroke="#1565c0" points="358.75,-918.75 269.25,-918.75 269.25,-882.75 358.75,-882.75 358.75,-918.75"/>
<text xml:space="preserve" text-anchor="middle" x="314" y="-902.3" font-family="Helvetica,sans-Serif" font-size="11.00">Article</text>
<text xml:space="preserve" text-anchor="middle" x="314" y="-890.3" font-family="Helvetica,sans-Serif" font-size="11.00">(title + full_text)</text>
</g>
<!-- ner -->
<g id="node2" class="node">
<title>ner</title>
<polygon fill="#ffe0b2" stroke="#ef6c00" points="285.88,-817.75 146.12,-817.75 146.12,-749.75 285.88,-749.75 285.88,-817.75"/>
<text xml:space="preserve" text-anchor="middle" x="216" y="-803.3" font-family="Helvetica,sans-Serif" font-size="11.00">NER</text>
<text xml:space="preserve" text-anchor="middle" x="216" y="-791.3" font-family="Helvetica,sans-Serif" font-size="11.00">━━━━━━━━━━━</text>
<text xml:space="preserve" text-anchor="middle" x="216" y="-779.3" font-family="Helvetica,sans-Serif" font-size="11.00">9 entity types</text>
<text xml:space="preserve" text-anchor="middle" x="216" y="-767.3" font-family="Helvetica,sans-Serif" font-size="11.00">Text&#45;span grounded</text>
<text xml:space="preserve" text-anchor="middle" x="216" y="-755.3" font-family="Helvetica,sans-Serif" font-size="11.00">Confidence scores</text>
</g>
<!-- article&#45;&gt;ner -->
<g id="edge1" class="edge">
<title>article&#45;&gt;ner</title>
<path fill="none" stroke="#555555" d="M299.12,-882.28C286.58,-867.57 268.13,-845.92 251.79,-826.75"/>
<polygon fill="#555555" stroke="#555555" points="254.59,-824.64 245.44,-819.3 249.27,-829.18 254.59,-824.64"/>
</g>
<!-- re -->
<g id="node3" class="node">
<title>re</title>
<polygon fill="#ffe0b2" stroke="#ef6c00" points="506.38,-817.75 321.62,-817.75 321.62,-749.75 506.38,-749.75 506.38,-817.75"/>
<text xml:space="preserve" text-anchor="middle" x="414" y="-803.3" font-family="Helvetica,sans-Serif" font-size="11.00">Relation Extraction</text>
<text xml:space="preserve" text-anchor="middle" x="414" y="-791.3" font-family="Helvetica,sans-Serif" font-size="11.00">━━━━━━━━━━━━━━━</text>
<text xml:space="preserve" text-anchor="middle" x="414" y="-779.3" font-family="Helvetica,sans-Serif" font-size="11.00">26 relation types</text>
<text xml:space="preserve" text-anchor="middle" x="414" y="-767.3" font-family="Helvetica,sans-Serif" font-size="11.00">(head, tail) tuples</text>
<text xml:space="preserve" text-anchor="middle" x="414" y="-755.3" font-family="Helvetica,sans-Serif" font-size="11.00">Fixed vocabulary</text>
</g>
<!-- article&#45;&gt;re -->
<g id="edge2" class="edge">
<title>article&#45;&gt;re</title>
<path fill="none" stroke="#555555" d="M329.19,-882.28C341.98,-867.57 360.81,-845.92 377.48,-826.75"/>
<polygon fill="#555555" stroke="#555555" points="380.04,-829.14 383.96,-819.29 374.76,-824.54 380.04,-829.14"/>
</g>
<!-- canon -->
<g id="node4" class="node">
<title>canon</title>
<polygon fill="#ffe0b2" stroke="#ef6c00" points="421.38,-666.25 236.62,-666.25 236.62,-605.75 421.38,-605.75 421.38,-666.25"/>
<text xml:space="preserve" text-anchor="middle" x="329" y="-651.8" font-family="Helvetica,sans-Serif" font-size="11.00">Canonical Names</text>
<text xml:space="preserve" text-anchor="middle" x="329" y="-639.8" font-family="Helvetica,sans-Serif" font-size="11.00">━━━━━━━━━━━━━━━</text>
<text xml:space="preserve" text-anchor="middle" x="329" y="-627.8" font-family="Helvetica,sans-Serif" font-size="11.00">&quot;Trump&quot; → &quot;Donald Trump&quot;</text>
<text xml:space="preserve" text-anchor="middle" x="329" y="-613.55" font-family="Helvetica,sans-Serif" font-size="11.00">&quot;the US&quot; → &quot;United States&quot;</text>
</g>
<!-- ner&#45;&gt;canon -->
<g id="edge3" class="edge">
<title>ner&#45;&gt;canon</title>
<path fill="none" stroke="#ef6c00" d="M241.92,-749.31C259.07,-727.2 281.58,-698.16 299.42,-675.15"/>
<polygon fill="#ef6c00" stroke="#ef6c00" points="301.97,-677.58 305.33,-667.53 296.44,-673.29 301.97,-677.58"/>
<text xml:space="preserve" text-anchor="middle" x="298.39" y="-716.2" font-family="Helvetica,sans-Serif" font-size="9.00">entities +</text>
<text xml:space="preserve" text-anchor="middle" x="298.39" y="-706.45" font-family="Helvetica,sans-Serif" font-size="9.00">confidence</text>
</g>
<!-- re&#45;&gt;canon -->
<g id="edge4" class="edge">
<title>re&#45;&gt;canon</title>
<path fill="none" stroke="#ef6c00" d="M394.5,-749.31C381.78,-727.5 365.12,-698.93 351.78,-676.07"/>
<polygon fill="#ef6c00" stroke="#ef6c00" points="354.93,-674.52 346.87,-667.64 348.88,-678.04 354.93,-674.52"/>
<text xml:space="preserve" text-anchor="middle" x="396.74" y="-711.33" font-family="Helvetica,sans-Serif" font-size="9.00">relations</text>
</g>
<!-- aliases -->
<g id="node5" class="node">
<title>aliases</title>
<polygon fill="#ffe0b2" stroke="#ef6c00" points="200.38,-548.75 15.62,-548.75 15.62,-490.5 200.38,-490.5 200.38,-548.75"/>
<text xml:space="preserve" text-anchor="middle" x="108" y="-534.3" font-family="Helvetica,sans-Serif" font-size="11.00">Alias Generation</text>
<text xml:space="preserve" text-anchor="middle" x="108" y="-522.3" font-family="Helvetica,sans-Serif" font-size="11.00">━━━━━━━━━━━━━━━</text>
<text xml:space="preserve" text-anchor="middle" x="108" y="-510.3" font-family="Helvetica,sans-Serif" font-size="11.00">&quot;PRC&quot; → [&quot;China&quot;,</text>
<text xml:space="preserve" text-anchor="middle" x="108" y="-496.05" font-family="Helvetica,sans-Serif" font-size="11.00"> &quot;People&#39;s Republic&quot;]</text>
</g>
<!-- canon&#45;&gt;aliases -->
<g id="edge5" class="edge">
<title>canon&#45;&gt;aliases</title>
<path fill="none" stroke="#ef6c00" d="M271.8,-605.4C241.56,-589.75 204.33,-570.48 173,-554.27"/>
<polygon fill="#ef6c00" stroke="#ef6c00" points="174.89,-551.3 164.4,-549.81 171.67,-557.52 174.89,-551.3"/>
</g>
<!-- type_fix -->
<g id="node6" class="node">
<title>type_fix</title>
<polygon fill="#ffe0b2" stroke="#ef6c00" points="421.38,-554.75 236.62,-554.75 236.62,-484.5 421.38,-484.5 421.38,-554.75"/>
<text xml:space="preserve" text-anchor="middle" x="329" y="-540.3" font-family="Helvetica,sans-Serif" font-size="11.00">Type Correction</text>
<text xml:space="preserve" text-anchor="middle" x="329" y="-528.3" font-family="Helvetica,sans-Serif" font-size="11.00">━━━━━━━━━━━━━━━</text>
<text xml:space="preserve" text-anchor="middle" x="329" y="-516.3" font-family="Helvetica,sans-Serif" font-size="11.00">confidence &lt; 0.80</text>
<text xml:space="preserve" text-anchor="middle" x="329" y="-504.3" font-family="Helvetica,sans-Serif" font-size="11.00">→ LLM verifies type</text>
<text xml:space="preserve" text-anchor="middle" x="329" y="-490.05" font-family="Helvetica,sans-Serif" font-size="11.00">e.g. City≠Country</text>
</g>
<!-- canon&#45;&gt;type_fix -->
<g id="edge6" class="edge">
<title>canon&#45;&gt;type_fix</title>
<path fill="none" stroke="#ef6c00" d="M329,-605.55C329,-593.57 329,-579.45 329,-566.19"/>
<polygon fill="#ef6c00" stroke="#ef6c00" points="332.5,-566.36 329,-556.36 325.5,-566.36 332.5,-566.36"/>
</g>
<!-- groq -->
<g id="node11" class="node">
<title>groq</title>
<polygon fill="#fffde7" stroke="#f57f17" points="508,-284 448,-284 444,-280 444,-248 504,-248 508,-252 508,-284"/>
<polyline fill="none" stroke="#f57f17" points="504,-280 444,-280"/>
<polyline fill="none" stroke="#f57f17" points="504,-280 504,-248"/>
<polyline fill="none" stroke="#f57f17" points="504,-280 508,-284"/>
<text xml:space="preserve" text-anchor="middle" x="476" y="-261.55" font-family="Helvetica,sans-Serif" font-size="11.00">Groq LLM</text>
</g>
<!-- canon&#45;&gt;groq -->
<g id="edge12" class="edge">
<title>canon&#45;&gt;groq</title>
<path fill="none" stroke="#f57f17" stroke-dasharray="5,2" d="M396.37,-599.01C412.82,-587.07 428.64,-572.26 439,-554.75 488.47,-471.12 484.39,-350.13 479.38,-295.58"/>
<polygon fill="#f57f17" stroke="#f57f17" points="394.68,-595.92 388.44,-604.49 398.66,-601.68 394.68,-595.92"/>
<polygon fill="#f57f17" stroke="#f57f17" points="482.89,-295.49 478.4,-285.89 475.92,-296.19 482.89,-295.49"/>
</g>
<!-- causal -->
<g id="node7" class="node">
<title>causal</title>
<polygon fill="#ffe0b2" stroke="#ef6c00" points="401.12,-401 238.88,-401 238.88,-345 401.12,-345 401.12,-401"/>
<text xml:space="preserve" text-anchor="middle" x="320" y="-386.55" font-family="Helvetica,sans-Serif" font-size="11.00">Causal Flags</text>
<text xml:space="preserve" text-anchor="middle" x="320" y="-374.55" font-family="Helvetica,sans-Serif" font-size="11.00">━━━━━━━━━━━━━</text>
<text xml:space="preserve" text-anchor="middle" x="320" y="-362.55" font-family="Helvetica,sans-Serif" font-size="11.00">Per relation:</text>
<text xml:space="preserve" text-anchor="middle" x="320" y="-350.55" font-family="Helvetica,sans-Serif" font-size="11.00">cause&#45;effect?</text>
</g>
<!-- aliases&#45;&gt;causal -->
<!-- type_fix&#45;&gt;causal -->
<g id="edge7" class="edge">
<title>type_fix&#45;&gt;causal</title>
<path fill="none" stroke="#ef6c00" d="M326.87,-484.35C325.53,-462.83 323.8,-435.02 322.41,-412.7"/>
<polygon fill="#ef6c00" stroke="#ef6c00" points="325.91,-412.54 321.79,-402.78 318.92,-412.98 325.91,-412.54"/>
<text xml:space="preserve" text-anchor="middle" x="353.81" y="-450.95" font-family="Helvetica,sans-Serif" font-size="9.00">canonicalized</text>
<text xml:space="preserve" text-anchor="middle" x="353.81" y="-441.2" font-family="Helvetica,sans-Serif" font-size="9.00">entities + rels</text>
</g>
<!-- temporal -->
<g id="node8" class="node">
<title>temporal</title>
<polygon fill="#ffe0b2" stroke="#ef6c00" points="408.38,-294 223.62,-294 223.62,-238 408.38,-238 408.38,-294"/>
<text xml:space="preserve" text-anchor="middle" x="316" y="-279.55" font-family="Helvetica,sans-Serif" font-size="11.00">Temporal Markers</text>
<text xml:space="preserve" text-anchor="middle" x="316" y="-267.55" font-family="Helvetica,sans-Serif" font-size="11.00">━━━━━━━━━━━━━━━</text>
<text xml:space="preserve" text-anchor="middle" x="316" y="-255.55" font-family="Helvetica,sans-Serif" font-size="11.00">Dates/periods</text>
<text xml:space="preserve" text-anchor="middle" x="316" y="-243.55" font-family="Helvetica,sans-Serif" font-size="11.00">&quot;2024&#45;03&quot;, &quot;ongoing&quot;</text>
</g>
<!-- causal&#45;&gt;temporal -->
<g id="edge9" class="edge">
<title>causal&#45;&gt;temporal</title>
<path fill="none" stroke="#ef6c00" d="M318.96,-344.69C318.51,-332.78 317.97,-318.6 317.47,-305.64"/>
<polygon fill="#ef6c00" stroke="#ef6c00" points="320.97,-305.55 317.09,-295.69 313.98,-305.82 320.97,-305.55"/>
</g>
<!-- causal&#45;&gt;groq -->
<g id="edge13" class="edge">
<title>causal&#45;&gt;groq</title>
<path fill="none" stroke="#f57f17" stroke-dasharray="5,2" d="M370.23,-338.25C390.65,-324.53 414.45,-308.52 436,-294 437.58,-292.94 439.19,-291.85 440.82,-290.75"/>
<polygon fill="#f57f17" stroke="#f57f17" points="368.41,-335.26 362.07,-343.74 372.32,-341.07 368.41,-335.26"/>
<polygon fill="#f57f17" stroke="#f57f17" points="442.6,-293.78 448.93,-285.28 438.68,-287.97 442.6,-293.78"/>
</g>
<!-- events -->
<g id="node9" class="node">
<title>events</title>
<polygon fill="#ffe0b2" stroke="#ef6c00" points="408.38,-187 223.62,-187 223.62,-119 408.38,-119 408.38,-187"/>
<text xml:space="preserve" text-anchor="middle" x="316" y="-172.55" font-family="Helvetica,sans-Serif" font-size="11.00">Event Extraction</text>
<text xml:space="preserve" text-anchor="middle" x="316" y="-160.55" font-family="Helvetica,sans-Serif" font-size="11.00">━━━━━━━━━━━━━━━</text>
<text xml:space="preserve" text-anchor="middle" x="316" y="-148.55" font-family="Helvetica,sans-Serif" font-size="11.00">Named events (max 5)</text>
<text xml:space="preserve" text-anchor="middle" x="316" y="-136.55" font-family="Helvetica,sans-Serif" font-size="11.00">Status + involved</text>
<text xml:space="preserve" text-anchor="middle" x="316" y="-124.55" font-family="Helvetica,sans-Serif" font-size="11.00">entities</text>
</g>
<!-- temporal&#45;&gt;events -->
<g id="edge10" class="edge">
<title>temporal&#45;&gt;events</title>
<path fill="none" stroke="#ef6c00" d="M316,-237.56C316,-225.84 316,-211.86 316,-198.72"/>
<polygon fill="#ef6c00" stroke="#ef6c00" points="319.5,-198.97 316,-188.97 312.5,-198.97 319.5,-198.97"/>
</g>
<!-- output -->
<g id="node10" class="node">
<title>output</title>
<polygon fill="#c8e6c9" stroke="#2e7d32" points="442.12,-68 189.88,-68 189.88,0 442.12,0 442.12,-68"/>
<text xml:space="preserve" text-anchor="middle" x="316" y="-53.55" font-family="Helvetica,sans-Serif" font-size="11.00">ArticleExtraction</text>
<text xml:space="preserve" text-anchor="middle" x="316" y="-41.55" font-family="Helvetica,sans-Serif" font-size="11.00">━━━━━━━━━━━━━━━━━━━━━</text>
<text xml:space="preserve" text-anchor="middle" x="316" y="-29.55" font-family="Helvetica,sans-Serif" font-size="11.00">Entities (canonical, typed)</text>
<text xml:space="preserve" text-anchor="middle" x="316" y="-17.55" font-family="Helvetica,sans-Serif" font-size="11.00">Relations (causal, temporal)</text>
<text xml:space="preserve" text-anchor="middle" x="316" y="-5.55" font-family="Helvetica,sans-Serif" font-size="11.00">Events (named, status)</text>
</g>
<!-- events&#45;&gt;output -->
<g id="edge11" class="edge">
<title>events&#45;&gt;output</title>
<path fill="none" stroke="#2e7d32" d="M316,-118.79C316,-106.56 316,-92.51 316,-79.45"/>
<polygon fill="#2e7d32" stroke="#2e7d32" points="319.5,-79.81 316,-69.81 312.5,-79.81 319.5,-79.81"/>
</g>
</g>
</svg>
