<?xml version="1.0" encoding="UTF-8" standalone="no"?>
<!DOCTYPE svg PUBLIC "-//W3C//DTD SVG 1.1//EN"
 "http://www.w3.org/Graphics/SVG/1.1/DTD/svg11.dtd">
<!-- Generated by graphviz version 14.1.4 (20260321.0153)
 -->
<!-- Title: news_priority Pages: 1 -->
<svg width="767pt" height="1027pt"
 viewBox="0.00 0.00 767.00 1027.00" xmlns="http://www.w3.org/2000/svg" xmlns:xlink="http://www.w3.org/1999/xlink">
<g id="graph0" class="graph" transform="scale(1 1) rotate(0) translate(28.8 998.55)">
<title>news_priority</title>
<polygon fill="white" stroke="none" points="-28.8,28.8 -28.8,-998.55 738.42,-998.55 738.42,28.8 -28.8,28.8"/>
<text xml:space="preserve" text-anchor="middle" x="354.81" y="-952.45" font-family="Helvetica,sans-Serif" font-size="14.00" fill="#333333">News Priority Agent — Cross&#45;Batch Clustering + Importance Scoring</text>
<!-- input -->
<g id="node1" class="node">
<title>input</title>
<polygon fill="#e3f2fd" stroke="#1565c0" points="178,-946.75 51.75,-946.75 51.75,-902.75 178,-902.75 178,-946.75"/>
<text xml:space="preserve" text-anchor="middle" x="114.88" y="-932.3" font-family="Helvetica,sans-Serif" font-size="11.00">Article Batch</text>
<text xml:space="preserve" text-anchor="middle" x="114.88" y="-920.3" font-family="Helvetica,sans-Serif" font-size="11.00">(from Kafka consumer)</text>
<text xml:space="preserve" text-anchor="middle" x="114.88" y="-908.3" font-family="Helvetica,sans-Serif" font-size="11.00">Max 50 articles / 60s</text>
</g>
<!-- embed -->
<g id="node2" class="node">
<title>embed</title>
<polygon fill="#fff9c4" stroke="#f9a825" points="229.75,-851.75 0,-851.75 0,-795.75 229.75,-795.75 229.75,-851.75"/>
<text xml:space="preserve" text-anchor="middle" x="114.88" y="-837.3" font-family="Helvetica,sans-Serif" font-size="11.00">Step 1: Embed</text>
<text xml:space="preserve" text-anchor="middle" x="114.88" y="-825.3" font-family="Helvetica,sans-Serif" font-size="11.00">━━━━━━━━━━━━━━━━━━━</text>
<text xml:space="preserve" text-anchor="middle" x="114.88" y="-813.3" font-family="Helvetica,sans-Serif" font-size="11.00">all&#45;MiniLM&#45;L6&#45;v2</text>
<text xml:space="preserve" text-anchor="middle" x="114.88" y="-801.3" font-family="Helvetica,sans-Serif" font-size="11.00">Title + description</text>
</g>
<!-- input&#45;&gt;embed -->
<g id="edge1" class="edge">
<title>input&#45;&gt;embed</title>
<path fill="none" stroke="#555555" d="M114.88,-902.27C114.88,-890.92 114.88,-876.64 114.88,-863.44"/>
<polygon fill="#555555" stroke="#555555" points="118.38,-863.74 114.88,-853.74 111.38,-863.74 118.38,-863.74"/>
</g>
<!-- cluster -->
<g id="node3" class="node">
<title>cluster</title>
<polygon fill="#fff9c4" stroke="#f9a825" points="229.75,-744.75 0,-744.75 0,-660.25 229.75,-660.25 229.75,-744.75"/>
<text xml:space="preserve" text-anchor="middle" x="114.88" y="-730.3" font-family="Helvetica,sans-Serif" font-size="11.00">Step 2: Cluster</text>
<text xml:space="preserve" text-anchor="middle" x="114.88" y="-718.3" font-family="Helvetica,sans-Serif" font-size="11.00">━━━━━━━━━━━━━━━━━━━</text>
<text xml:space="preserve" text-anchor="middle" x="114.88" y="-706.3" font-family="Helvetica,sans-Serif" font-size="11.00">Redis&#45;stored centroids</text>
<text xml:space="preserve" text-anchor="middle" x="114.88" y="-694.3" font-family="Helvetica,sans-Serif" font-size="11.00">(24h rolling window)</text>
<text xml:space="preserve" text-anchor="middle" x="114.88" y="-682.3" font-family="Helvetica,sans-Serif" font-size="11.00">cosine ≥ 0.82 → join</text>
<text xml:space="preserve" text-anchor="middle" x="114.88" y="-668.05" font-family="Helvetica,sans-Serif" font-size="11.00">otherwise → new cluster</text>
</g>
<!-- embed&#45;&gt;cluster -->
<g id="edge2" class="edge">
<title>embed&#45;&gt;cluster</title>
<path fill="none" stroke="#f9a825" d="M114.88,-795.39C114.88,-783.79 114.88,-769.85 114.88,-756.38"/>
<polygon fill="#f9a825" stroke="#f9a825" points="118.38,-756.75 114.88,-746.75 111.38,-756.75 118.38,-756.75"/>
</g>
<!-- representative -->
<g id="node4" class="node">
<title>representative</title>
<polygon fill="#fff9c4" stroke="#f9a825" points="467.5,-609.25 170.25,-609.25 170.25,-527 467.5,-527 467.5,-609.25"/>
<text xml:space="preserve" text-anchor="middle" x="318.88" y="-594.8" font-family="Helvetica,sans-Serif" font-size="11.00">Step 3: Select Representative</text>
<text xml:space="preserve" text-anchor="middle" x="318.88" y="-582.8" font-family="Helvetica,sans-Serif" font-size="11.00">━━━━━━━━━━━━━━━━━━━━━━━━━</text>
<text xml:space="preserve" text-anchor="middle" x="318.88" y="-570.8" font-family="Helvetica,sans-Serif" font-size="11.00">Best per cluster:</text>
<text xml:space="preserve" text-anchor="middle" x="318.88" y="-558.8" font-family="Helvetica,sans-Serif" font-size="11.00">credibility × log(content_len)</text>
<text xml:space="preserve" text-anchor="middle" x="318.88" y="-546.8" font-family="Helvetica,sans-Serif" font-size="11.00">Source credibility from</text>
<text xml:space="preserve" text-anchor="middle" x="318.88" y="-534.8" font-family="Helvetica,sans-Serif" font-size="11.00">Postgres → Redis (1h cache)</text>
</g>
<!-- cluster&#45;&gt;representative -->
<g id="edge3" class="edge">
<title>cluster&#45;&gt;representative</title>
<path fill="none" stroke="#f9a825" d="M179.14,-659.8C200.61,-645.87 224.67,-630.25 246.7,-615.96"/>
<polygon fill="#f9a825" stroke="#f9a825" points="248.57,-618.92 255.06,-610.54 244.76,-613.04 248.57,-618.92"/>
</g>
<!-- redis -->
<g id="node10" class="node">
<title>redis</title>
<path fill="#ffebee" stroke="#d32f2f" d="M199,-423.5C199,-425.71 174.74,-427.5 144.88,-427.5 115.01,-427.5 90.75,-425.71 90.75,-423.5 90.75,-423.5 90.75,-387.5 90.75,-387.5 90.75,-385.29 115.01,-383.5 144.88,-383.5 174.74,-383.5 199,-385.29 199,-387.5 199,-387.5 199,-423.5 199,-423.5"/>
<path fill="none" stroke="#d32f2f" d="M199,-423.5C199,-421.29 174.74,-419.5 144.88,-419.5 115.01,-419.5 90.75,-421.29 90.75,-423.5"/>
<text xml:space="preserve" text-anchor="middle" x="144.88" y="-407.05" font-family="Helvetica,sans-Serif" font-size="11.00">Redis</text>
<text xml:space="preserve" text-anchor="middle" x="144.88" y="-395.05" font-family="Helvetica,sans-Serif" font-size="11.00">(centroids + cache)</text>
</g>
<!-- cluster&#45;&gt;redis -->
<g id="edge9" class="edge">
<title>cluster&#45;&gt;redis</title>
<path fill="none" stroke="#d32f2f" stroke-dasharray="5,2" d="M112.54,-649.04C112.06,-636.04 111.62,-622.14 111.38,-609.25 110.68,-572.7 106.43,-563.22 111.38,-527 115.56,-496.35 125.46,-462.51 133.42,-438.51"/>
<polygon fill="#d32f2f" stroke="#d32f2f" points="109.03,-648.81 112.91,-658.67 116.02,-648.54 109.03,-648.81"/>
<polygon fill="#d32f2f" stroke="#d32f2f" points="136.63,-439.92 136.53,-429.33 130,-437.67 136.63,-439.92"/>
<text xml:space="preserve" text-anchor="middle" x="131.62" y="-569.33" font-family="Helvetica,sans-Serif" font-size="9.00">read/write</text>
<text xml:space="preserve" text-anchor="middle" x="131.62" y="-559.58" font-family="Helvetica,sans-Serif" font-size="9.00">centroids</text>
</g>
<!-- llm_score -->
<g id="node5" class="node">
<title>llm_score</title>
<polygon fill="#fff9c4" stroke="#f9a825" points="642.5,-457.5 345.25,-457.5 345.25,-353.5 642.5,-353.5 642.5,-457.5"/>
<text xml:space="preserve" text-anchor="middle" x="493.88" y="-443.05" font-family="Helvetica,sans-Serif" font-size="11.00">Step 4: LLM Scoring</text>
<text xml:space="preserve" text-anchor="middle" x="493.88" y="-431.05" font-family="Helvetica,sans-Serif" font-size="11.00">━━━━━━━━━━━━━━━━━━━━━━━━━</text>
<text xml:space="preserve" text-anchor="middle" x="493.88" y="-419.05" font-family="Helvetica,sans-Serif" font-size="11.00">Per representative:</text>
<text xml:space="preserve" text-anchor="middle" x="493.88" y="-407.05" font-family="Helvetica,sans-Serif" font-size="11.00">• impact_score (0&#45;10)</text>
<text xml:space="preserve" text-anchor="middle" x="493.88" y="-395.05" font-family="Helvetica,sans-Serif" font-size="11.00">• novelty_score (0&#45;10)</text>
<text xml:space="preserve" text-anchor="middle" x="493.88" y="-383.05" font-family="Helvetica,sans-Serif" font-size="11.00">• india_relevance (0&#45;10)</text>
<text xml:space="preserve" text-anchor="middle" x="493.88" y="-371.05" font-family="Helvetica,sans-Serif" font-size="11.00">• domain (17 categories)</text>
<text xml:space="preserve" text-anchor="middle" x="493.88" y="-359.05" font-family="Helvetica,sans-Serif" font-size="11.00">• cluster_label (3&#45;6 words)</text>
</g>
<!-- representative&#45;&gt;llm_score -->
<g id="edge4" class="edge">
<title>representative&#45;&gt;llm_score</title>
<path fill="none" stroke="#f9a825" d="M363.03,-526.59C383.15,-508.13 407.35,-485.92 429.43,-465.65"/>
<polygon fill="#f9a825" stroke="#f9a825" points="431.67,-468.35 436.67,-459.01 426.93,-463.19 431.67,-468.35"/>
</g>
<!-- representative&#45;&gt;redis -->
<g id="edge10" class="edge">
<title>representative&#45;&gt;redis</title>
<path fill="none" stroke="#d32f2f" stroke-dasharray="5,2" d="M253.67,-526.68C242.97,-518.99 232.31,-510.63 222.88,-502 201.43,-482.38 180.79,-456.71 166.14,-436.92"/>
<polygon fill="#d32f2f" stroke="#d32f2f" points="169.05,-434.98 160.34,-428.96 163.39,-439.1 169.05,-434.98"/>
<text xml:space="preserve" text-anchor="middle" x="242.38" y="-493.45" font-family="Helvetica,sans-Serif" font-size="9.00">credibility</text>
<text xml:space="preserve" text-anchor="middle" x="242.38" y="-483.7" font-family="Helvetica,sans-Serif" font-size="9.00">cache</text>
</g>
<!-- postgres -->
<g id="node11" class="node">
<title>postgres</title>
<path fill="#e0f2f1" stroke="#00695c" d="M390.62,-150.75C390.62,-153.78 366.53,-156.25 336.88,-156.25 307.22,-156.25 283.12,-153.78 283.12,-150.75 283.12,-150.75 283.12,-101.25 283.12,-101.25 283.12,-98.22 307.22,-95.75 336.88,-95.75 366.53,-95.75 390.62,-98.22 390.62,-101.25 390.62,-101.25 390.62,-150.75 390.62,-150.75"/>
<path fill="none" stroke="#00695c" d="M390.62,-150.75C390.62,-147.72 366.53,-145.25 336.88,-145.25 307.22,-145.25 283.12,-147.72 283.12,-150.75"/>
<text xml:space="preserve" text-anchor="middle" x="336.88" y="-133.55" font-family="Helvetica,sans-Serif" font-size="11.00">PostgreSQL</text>
<text xml:space="preserve" text-anchor="middle" x="336.88" y="-121.55" font-family="Helvetica,sans-Serif" font-size="11.00">(scraped_articles +</text>
<text xml:space="preserve" text-anchor="middle" x="336.88" y="-109.55" font-family="Helvetica,sans-Serif" font-size="11.00">source_config)</text>
</g>
<!-- representative&#45;&gt;postgres -->
<g id="edge11" class="edge">
<title>representative&#45;&gt;postgres</title>
<path fill="none" stroke="#00695c" stroke-dasharray="5,2" d="M318.81,-526.62C318.94,-462.64 320.12,-334.32 326.88,-225.75 328.06,-206.65 330.1,-185.55 332.03,-167.77"/>
<polygon fill="#00695c" stroke="#00695c" points="335.51,-168.16 333.14,-157.84 328.55,-167.39 335.51,-168.16"/>
<text xml:space="preserve" text-anchor="middle" x="336.56" y="-319.95" font-family="Helvetica,sans-Serif" font-size="9.00">source</text>
<text xml:space="preserve" text-anchor="middle" x="336.56" y="-310.2" font-family="Helvetica,sans-Serif" font-size="9.00">config</text>
</g>
<!-- persist -->
<g id="node6" class="node">
<title>persist</title>
<polygon fill="#fff9c4" stroke="#f9a825" points="674.75,-284 445,-284 445,-225.75 674.75,-225.75 674.75,-284"/>
<text xml:space="preserve" text-anchor="middle" x="559.88" y="-269.55" font-family="Helvetica,sans-Serif" font-size="11.00">Step 5: Persist ALL</text>
<text xml:space="preserve" text-anchor="middle" x="559.88" y="-257.55" font-family="Helvetica,sans-Serif" font-size="11.00">━━━━━━━━━━━━━━━━━━━</text>
<text xml:space="preserve" text-anchor="middle" x="559.88" y="-245.55" font-family="Helvetica,sans-Serif" font-size="11.00">ALL articles → Postgres</text>
<text xml:space="preserve" text-anchor="middle" x="559.88" y="-231.3" font-family="Helvetica,sans-Serif" font-size="11.00">With scores + cluster info</text>
</g>
<!-- llm_score&#45;&gt;persist -->
<g id="edge5" class="edge">
<title>llm_score&#45;&gt;persist</title>
<path fill="none" stroke="#f9a825" d="M516.59,-353.35C525.15,-334.07 534.74,-312.47 542.71,-294.52"/>
<polygon fill="#f9a825" stroke="#f9a825" points="545.85,-296.08 546.71,-285.53 539.45,-293.24 545.85,-296.08"/>
</g>
<!-- groq -->
<g id="node12" class="node">
<title>groq</title>
<polygon fill="#fffde7" stroke="#f57f17" points="408.88,-272.88 348.88,-272.88 344.88,-268.88 344.88,-236.88 404.88,-236.88 408.88,-240.88 408.88,-272.88"/>
<polyline fill="none" stroke="#f57f17" points="404.88,-268.88 344.88,-268.88"/>
<polyline fill="none" stroke="#f57f17" points="404.88,-268.88 404.88,-236.88"/>
<polyline fill="none" stroke="#f57f17" points="404.88,-268.88 408.88,-272.88"/>
<text xml:space="preserve" text-anchor="middle" x="376.88" y="-250.43" font-family="Helvetica,sans-Serif" font-size="11.00">Groq LLM</text>
</g>
<!-- llm_score&#45;&gt;groq -->
<g id="edge13" class="edge">
<title>llm_score&#45;&gt;groq</title>
<path fill="none" stroke="#f57f17" stroke-dasharray="5,2" d="M446.56,-344.39C429.51,-322.73 411.14,-299.4 397.54,-282.13"/>
<polygon fill="#f57f17" stroke="#f57f17" points="443.74,-346.47 452.67,-352.16 449.24,-342.14 443.74,-346.47"/>
<polygon fill="#f57f17" stroke="#f57f17" points="400.39,-280.09 391.46,-274.4 394.89,-284.42 400.39,-280.09"/>
</g>
<!-- gate -->
<g id="node7" class="node">
<title>gate</title>
<polygon fill="#ffebee" stroke="#d32f2f" points="559.88,-144 472.92,-126 559.88,-108 646.83,-126 559.88,-144"/>
<text xml:space="preserve" text-anchor="middle" x="559.88" y="-121.55" font-family="Helvetica,sans-Serif" font-size="11.00">importance ≥ 5.0?</text>
</g>
<!-- persist&#45;&gt;gate -->
<g id="edge6" class="edge">
<title>persist&#45;&gt;gate</title>
<path fill="none" stroke="#555555" d="M559.88,-225.4C559.88,-204.64 559.88,-176.6 559.88,-155.77"/>
<polygon fill="#555555" stroke="#555555" points="563.38,-155.96 559.88,-145.96 556.38,-155.96 563.38,-155.96"/>
</g>
<!-- persist&#45;&gt;postgres -->
<g id="edge12" class="edge">
<title>persist&#45;&gt;postgres</title>
<path fill="none" stroke="#00695c" stroke-dasharray="5,2" d="M509.83,-225.4C475.91,-206.1 430.95,-180.52 395.37,-160.28"/>
<polygon fill="#00695c" stroke="#00695c" points="397.34,-157.38 386.92,-155.47 393.88,-163.46 397.34,-157.38"/>
<text xml:space="preserve" text-anchor="middle" x="477.48" y="-192.2" font-family="Helvetica,sans-Serif" font-size="9.00">save all</text>
<text xml:space="preserve" text-anchor="middle" x="477.48" y="-182.45" font-family="Helvetica,sans-Serif" font-size="9.00">articles</text>
</g>
<!-- high -->
<g id="node8" class="node">
<title>high</title>
<polygon fill="#c8e6c9" stroke="#2e7d32" points="542.5,-36 407.25,-36 407.25,0 542.5,0 542.5,-36"/>
<text xml:space="preserve" text-anchor="middle" x="474.88" y="-20.68" font-family="Helvetica,sans-Serif" font-size="11.00">High&#45;Importance Articles</text>
<text xml:space="preserve" text-anchor="middle" x="474.88" y="-8.68" font-family="Helvetica,sans-Serif" font-size="11.00">→ GraphBuilder Pipeline</text>
</g>
<!-- gate&#45;&gt;high -->
<g id="edge7" class="edge">
<title>gate&#45;&gt;high</title>
<path fill="none" stroke="#2e7d32" d="M548.06,-110.26C534.61,-93.49 512.38,-65.77 495.94,-45.27"/>
<polygon fill="#2e7d32" stroke="#2e7d32" points="498.78,-43.22 489.8,-37.61 493.32,-47.6 498.78,-43.22"/>
<text xml:space="preserve" text-anchor="middle" x="521.95" y="-62.2" font-family="Helvetica,sans-Serif" font-size="9.00">yes</text>
</g>
<!-- low -->
<g id="node9" class="node">
<title>low</title>
<polygon fill="#eceff1" stroke="#37474f" points="709.62,-36 578.12,-36 578.12,0 709.62,0 709.62,-36"/>
<text xml:space="preserve" text-anchor="middle" x="643.88" y="-19.55" font-family="Helvetica,sans-Serif" font-size="11.00">Low&#45;Importance Articles</text>
<text xml:space="preserve" text-anchor="middle" x="643.88" y="-7.55" font-family="Helvetica,sans-Serif" font-size="11.00">(stored, not processed)</text>
</g>
<!-- gate&#45;&gt;low -->
<g id="edge8" class="edge">
<title>gate&#45;&gt;low</title>
<path fill="none" stroke="#37474f" d="M571.55,-110.26C584.85,-93.49 606.81,-65.77 623.05,-45.27"/>
<polygon fill="#37474f" stroke="#37474f" points="625.66,-47.63 629.12,-37.62 620.17,-43.28 625.66,-47.63"/>
<text xml:space="preserve" text-anchor="middle" x="614.65" y="-62.2" font-family="Helvetica,sans-Serif" font-size="9.00">no</text>
</g>
</g>
</svg>
