<?xml version="1.0" encoding="UTF-8" standalone="no"?>
<!DOCTYPE svg PUBLIC "-//W3C//DTD SVG 1.1//EN"
 "http://www.w3.org/Graphics/SVG/1.1/DTD/svg11.dtd">
<!-- Generated by graphviz version 14.1.4 (20260321.0153)
 -->
<!-- Title: signal_worker Pages: 1 -->
<svg width="1395pt" height="583pt"
 viewBox="0.00 0.00 1395.00 583.00" xmlns="http://www.w3.org/2000/svg" xmlns:xlink="http://www.w3.org/1999/xlink">
<g id="graph0" class="graph" transform="scale(1 1) rotate(0) translate(28.8 553.8)">
<title>signal_worker</title>
<polygon fill="white" stroke="none" points="-28.8,28.8 -28.8,-553.8 1366.67,-553.8 1366.67,28.8 -28.8,28.8"/>
<text xml:space="preserve" text-anchor="middle" x="668.94" y="-507.7" font-family="Helvetica,sans-Serif" font-size="14.00" fill="#333333">Signal Worker — Anomaly Detection (Every 15 Minutes)</text>
<g id="clust1" class="cluster">
<title>cluster_signal_a</title>
<polygon fill="#fce4ec" stroke="#ad1457" points="8,-161.75 8,-422.75 276,-422.75 276,-161.75 8,-161.75"/>
<text xml:space="preserve" text-anchor="middle" x="142" y="-405.45" font-family="Helvetica,sans-Serif" font-size="14.00" fill="#880e4f">Signal A: Entity Mention Spikes</text>
</g>
<g id="clust2" class="cluster">
<title>cluster_signal_b</title>
<polygon fill="#fce4ec" stroke="#ad1457" points="386,-174.88 386,-422.75 654,-422.75 654,-174.88 386,-174.88"/>
<text xml:space="preserve" text-anchor="middle" x="520" y="-405.45" font-family="Helvetica,sans-Serif" font-size="14.00" fill="#880e4f">Signal B: New High&#45;Connectivity Entities</text>
</g>
<g id="clust3" class="cluster">
<title>cluster_signal_c</title>
<polygon fill="#fce4ec" stroke="#ad1457" points="674,-170 674,-422.75 942,-422.75 942,-170 674,-170"/>
<text xml:space="preserve" text-anchor="middle" x="808" y="-405.45" font-family="Helvetica,sans-Serif" font-size="14.00" fill="#880e4f">Signal C: Topic Cluster Spikes</text>
</g>
<!-- trigger -->
<g id="node1" class="node">
<title>trigger</title>
<ellipse fill="#e3f2fd" stroke="#1565c0" cx="520" cy="-479.38" rx="60.1" ry="22.63"/>
<text xml:space="preserve" text-anchor="middle" x="520" y="-480.93" font-family="Helvetica,sans-Serif" font-size="11.00">Cron Trigger</text>
<text xml:space="preserve" text-anchor="middle" x="520" y="-468.93" font-family="Helvetica,sans-Serif" font-size="11.00">(every 15 min)</text>
</g>
<!-- spike_query -->
<g id="node2" class="node">
<title>spike_query</title>
<polygon fill="#f8bbd0" stroke="#ad1457" points="268.12,-391.75 15.88,-391.75 15.88,-323.75 268.12,-323.75 268.12,-391.75"/>
<text xml:space="preserve" text-anchor="middle" x="142" y="-377.3" font-family="Helvetica,sans-Serif" font-size="11.00">Neo4j Query</text>
<text xml:space="preserve" text-anchor="middle" x="142" y="-365.3" font-family="Helvetica,sans-Serif" font-size="11.00">━━━━━━━━━━━━━━━━━━━━━</text>
<text xml:space="preserve" text-anchor="middle" x="142" y="-353.3" font-family="Helvetica,sans-Serif" font-size="11.00">Today&#39;s entity&#45;article count</text>
<text xml:space="preserve" text-anchor="middle" x="142" y="-341.3" font-family="Helvetica,sans-Serif" font-size="11.00">vs same&#45;day 7&#45;day baseline</text>
<text xml:space="preserve" text-anchor="middle" x="142" y="-329.3" font-family="Helvetica,sans-Serif" font-size="11.00">Laplace smoothing</text>
</g>
<!-- trigger&#45;&gt;spike_query -->
<g id="edge4" class="edge">
<title>trigger&#45;&gt;spike_query</title>
<path fill="none" stroke="#555555" d="M474.78,-464.07C421.64,-447.25 331.45,-418.7 258.35,-395.57"/>
<polygon fill="#555555" stroke="#555555" points="259.73,-392.34 249.14,-392.66 257.62,-399.01 259.73,-392.34"/>
</g>
<!-- new_query -->
<g id="node4" class="node">
<title>new_query</title>
<polygon fill="#f8bbd0" stroke="#ad1457" points="646.12,-391.75 393.88,-391.75 393.88,-323.75 646.12,-323.75 646.12,-391.75"/>
<text xml:space="preserve" text-anchor="middle" x="520" y="-377.3" font-family="Helvetica,sans-Serif" font-size="11.00">Neo4j Query</text>
<text xml:space="preserve" text-anchor="middle" x="520" y="-365.3" font-family="Helvetica,sans-Serif" font-size="11.00">━━━━━━━━━━━━━━━━━━━━━</text>
<text xml:space="preserve" text-anchor="middle" x="520" y="-353.3" font-family="Helvetica,sans-Serif" font-size="11.00">first_seen &lt; 24h</text>
<text xml:space="preserve" text-anchor="middle" x="520" y="-341.3" font-family="Helvetica,sans-Serif" font-size="11.00">Relationship degree scan</text>
<text xml:space="preserve" text-anchor="middle" x="520" y="-329.3" font-family="Helvetica,sans-Serif" font-size="11.00">(no full node scan)</text>
</g>
<!-- trigger&#45;&gt;new_query -->
<g id="edge5" class="edge">
<title>trigger&#45;&gt;new_query</title>
<path fill="none" stroke="#555555" d="M520,-456.44C520,-441.54 520,-421.31 520,-403.13"/>
<polygon fill="#555555" stroke="#555555" points="523.5,-403.36 520,-393.36 516.5,-403.36 523.5,-403.36"/>
</g>
<!-- topic_query -->
<g id="node6" class="node">
<title>topic_query</title>
<polygon fill="#f8bbd0" stroke="#ad1457" points="934.12,-391.75 681.88,-391.75 681.88,-323.75 934.12,-323.75 934.12,-391.75"/>
<text xml:space="preserve" text-anchor="middle" x="808" y="-377.3" font-family="Helvetica,sans-Serif" font-size="11.00">Postgres Query</text>
<text xml:space="preserve" text-anchor="middle" x="808" y="-365.3" font-family="Helvetica,sans-Serif" font-size="11.00">━━━━━━━━━━━━━━━━━━━━━</text>
<text xml:space="preserve" text-anchor="middle" x="808" y="-353.3" font-family="Helvetica,sans-Serif" font-size="11.00">6h window article counts</text>
<text xml:space="preserve" text-anchor="middle" x="808" y="-341.3" font-family="Helvetica,sans-Serif" font-size="11.00">vs same&#45;hour 7&#45;day baseline</text>
<text xml:space="preserve" text-anchor="middle" x="808" y="-329.3" font-family="Helvetica,sans-Serif" font-size="11.00">IST normalization</text>
</g>
<!-- trigger&#45;&gt;topic_query -->
<g id="edge6" class="edge">
<title>trigger&#45;&gt;topic_query</title>
<path fill="none" stroke="#555555" d="M561.81,-462.68C590.43,-451.79 629.17,-436.79 663,-422.75 682.8,-414.53 703.98,-405.39 723.87,-396.64"/>
<polygon fill="#555555" stroke="#555555" points="725.02,-399.96 732.75,-392.72 722.19,-393.56 725.02,-399.96"/>
</g>
<!-- spike_eval -->
<g id="node3" class="node">
<title>spike_eval</title>
<polygon fill="#f8bbd0" stroke="#ad1457" points="268.12,-254.25 15.88,-254.25 15.88,-169.75 268.12,-169.75 268.12,-254.25"/>
<text xml:space="preserve" text-anchor="middle" x="142" y="-239.8" font-family="Helvetica,sans-Serif" font-size="11.00">Threshold Check</text>
<text xml:space="preserve" text-anchor="middle" x="142" y="-227.8" font-family="Helvetica,sans-Serif" font-size="11.00">━━━━━━━━━━━━━━━━━━━━━</text>
<text xml:space="preserve" text-anchor="middle" x="142" y="-215.8" font-family="Helvetica,sans-Serif" font-size="11.00">Ratio ≥ 3.0 → medium</text>
<text xml:space="preserve" text-anchor="middle" x="142" y="-201.55" font-family="Helvetica,sans-Serif" font-size="11.00">Ratio ≥ 5.0 → high</text>
<text xml:space="preserve" text-anchor="middle" x="142" y="-187.3" font-family="Helvetica,sans-Serif" font-size="11.00">Min 8 baseline mentions</text>
<text xml:space="preserve" text-anchor="middle" x="142" y="-175.3" font-family="Helvetica,sans-Serif" font-size="11.00">Min 3 current articles</text>
</g>
<!-- spike_query&#45;&gt;spike_eval -->
<g id="edge1" class="edge">
<title>spike_query&#45;&gt;spike_eval</title>
<path fill="none" stroke="#ad1457" d="M142,-323.41C142,-306.36 142,-285.21 142,-266"/>
<polygon fill="#ad1457" stroke="#ad1457" points="145.5,-266.16 142,-256.16 138.5,-266.16 145.5,-266.16"/>
</g>
<!-- neo4j -->
<g id="node9" class="node">
<title>neo4j</title>
<path fill="#fce4ec" stroke="#c62828" d="M358,-226.73C358,-228.53 345.9,-230 331,-230 316.1,-230 304,-228.53 304,-226.73 304,-226.73 304,-197.27 304,-197.27 304,-195.47 316.1,-194 331,-194 345.9,-194 358,-195.47 358,-197.27 358,-197.27 358,-226.73 358,-226.73"/>
<path fill="none" stroke="#c62828" d="M358,-226.73C358,-224.92 345.9,-223.45 331,-223.45 316.1,-223.45 304,-224.92 304,-226.73"/>
<text xml:space="preserve" text-anchor="middle" x="331" y="-207.55" font-family="Helvetica,sans-Serif" font-size="11.00">Neo4j</text>
</g>
<!-- spike_query&#45;&gt;neo4j -->
<g id="edge7" class="edge">
<title>spike_query&#45;&gt;neo4j</title>
<path fill="none" stroke="#c62828" stroke-dasharray="5,2" d="M191.29,-323.4C219.32,-303.95 254.75,-278.54 285,-254.25 291.56,-248.99 298.41,-243.08 304.76,-237.42"/>
<polygon fill="#c62828" stroke="#c62828" points="306.85,-240.25 311.92,-230.94 302.16,-235.06 306.85,-240.25"/>
<text xml:space="preserve" text-anchor="middle" x="268.25" y="-290.2" font-family="Helvetica,sans-Serif" font-size="9.00">7&#45;day</text>
<text xml:space="preserve" text-anchor="middle" x="268.25" y="-280.45" font-family="Helvetica,sans-Serif" font-size="9.00">baseline</text>
</g>
<!-- signals_db -->
<g id="node8" class="node">
<title>signals_db</title>
<path fill="#e0f2f1" stroke="#00695c" d="M788.38,-100C788.38,-105.52 726.8,-110 651,-110 575.2,-110 513.62,-105.52 513.62,-100 513.62,-100 513.62,-10 513.62,-10 513.62,-4.48 575.2,0 651,0 726.8,0 788.38,-4.48 788.38,-10 788.38,-10 788.38,-100 788.38,-100"/>
<path fill="none" stroke="#00695c" d="M788.38,-100C788.38,-94.48 726.8,-90 651,-90 575.2,-90 513.62,-94.48 513.62,-100"/>
<text xml:space="preserve" text-anchor="middle" x="651" y="-80.55" font-family="Helvetica,sans-Serif" font-size="11.00">Detected Signals</text>
<text xml:space="preserve" text-anchor="middle" x="651" y="-68.55" font-family="Helvetica,sans-Serif" font-size="11.00">(Postgres)</text>
<text xml:space="preserve" text-anchor="middle" x="651" y="-56.55" font-family="Helvetica,sans-Serif" font-size="11.00">━━━━━━━━━━━━━━━━━━━━━━━</text>
<text xml:space="preserve" text-anchor="middle" x="651" y="-44.55" font-family="Helvetica,sans-Serif" font-size="11.00">entity_spike, new_entity</text>
<text xml:space="preserve" text-anchor="middle" x="651" y="-32.55" font-family="Helvetica,sans-Serif" font-size="11.00">topic_spike</text>
<text xml:space="preserve" text-anchor="middle" x="651" y="-20.55" font-family="Helvetica,sans-Serif" font-size="11.00">6h TTL, severity levels</text>
</g>
<!-- spike_eval&#45;&gt;signals_db -->
<g id="edge10" class="edge">
<title>spike_eval&#45;&gt;signals_db</title>
<path fill="none" stroke="#00695c" stroke-dasharray="5,2" d="M262.47,-169.33C270.42,-166.72 278.32,-164.18 286,-161.75 356.77,-139.41 435.82,-116.28 502.21,-97.38"/>
<polygon fill="#00695c" stroke="#00695c" points="503.06,-100.77 511.72,-94.67 501.14,-94.04 503.06,-100.77"/>
<text xml:space="preserve" text-anchor="middle" x="375.34" y="-136.2" font-family="Helvetica,sans-Serif" font-size="9.00">save</text>
</g>
<!-- new_eval -->
<g id="node5" class="node">
<title>new_eval</title>
<polygon fill="#f8bbd0" stroke="#ad1457" points="646.12,-241.12 393.88,-241.12 393.88,-182.88 646.12,-182.88 646.12,-241.12"/>
<text xml:space="preserve" text-anchor="middle" x="520" y="-226.68" font-family="Helvetica,sans-Serif" font-size="11.00">Threshold Check</text>
<text xml:space="preserve" text-anchor="middle" x="520" y="-214.68" font-family="Helvetica,sans-Serif" font-size="11.00">━━━━━━━━━━━━━━━━━━━━━</text>
<text xml:space="preserve" text-anchor="middle" x="520" y="-202.68" font-family="Helvetica,sans-Serif" font-size="11.00">degree ≥ 5</text>
<text xml:space="preserve" text-anchor="middle" x="520" y="-190.68" font-family="Helvetica,sans-Serif" font-size="11.00">→ Notable new entity</text>
</g>
<!-- new_query&#45;&gt;new_eval -->
<g id="edge2" class="edge">
<title>new_query&#45;&gt;new_eval</title>
<path fill="none" stroke="#ad1457" d="M520,-323.41C520,-302.32 520,-274.94 520,-252.73"/>
<polygon fill="#ad1457" stroke="#ad1457" points="523.5,-252.83 520,-242.83 516.5,-252.83 523.5,-252.83"/>
</g>
<!-- new_query&#45;&gt;neo4j -->
<g id="edge8" class="edge">
<title>new_query&#45;&gt;neo4j</title>
<path fill="none" stroke="#c62828" stroke-dasharray="5,2" d="M470.71,-323.4C442.68,-303.95 407.25,-278.54 377,-254.25 370.44,-248.99 363.59,-243.08 357.24,-237.42"/>
<polygon fill="#c62828" stroke="#c62828" points="359.84,-235.06 350.08,-230.94 355.15,-240.25 359.84,-235.06"/>
<text xml:space="preserve" text-anchor="middle" x="458.4" y="-290.2" font-family="Helvetica,sans-Serif" font-size="9.00">first_seen +</text>
<text xml:space="preserve" text-anchor="middle" x="458.4" y="-280.45" font-family="Helvetica,sans-Serif" font-size="9.00">degree</text>
</g>
<!-- new_eval&#45;&gt;signals_db -->
<g id="edge11" class="edge">
<title>new_eval&#45;&gt;signals_db</title>
<path fill="none" stroke="#00695c" stroke-dasharray="5,2" d="M544.03,-182.57C559.09,-164.75 579.12,-141.04 597.78,-118.97"/>
<polygon fill="#00695c" stroke="#00695c" points="600.36,-121.34 604.15,-111.44 595.02,-116.82 600.36,-121.34"/>
<text xml:space="preserve" text-anchor="middle" x="591.32" y="-136.2" font-family="Helvetica,sans-Serif" font-size="9.00">save</text>
</g>
<!-- topic_eval -->
<g id="node7" class="node">
<title>topic_eval</title>
<polygon fill="#f8bbd0" stroke="#ad1457" points="934.12,-246 681.88,-246 681.88,-178 934.12,-178 934.12,-246"/>
<text xml:space="preserve" text-anchor="middle" x="808" y="-231.55" font-family="Helvetica,sans-Serif" font-size="11.00">Threshold Check</text>
<text xml:space="preserve" text-anchor="middle" x="808" y="-219.55" font-family="Helvetica,sans-Serif" font-size="11.00">━━━━━━━━━━━━━━━━━━━━━</text>
<text xml:space="preserve" text-anchor="middle" x="808" y="-207.55" font-family="Helvetica,sans-Serif" font-size="11.00">Ratio ≥ 2.5</text>
<text xml:space="preserve" text-anchor="middle" x="808" y="-195.55" font-family="Helvetica,sans-Serif" font-size="11.00">Min 3 articles</text>
<text xml:space="preserve" text-anchor="middle" x="808" y="-183.55" font-family="Helvetica,sans-Serif" font-size="11.00">Min 3h cluster age</text>
</g>
<!-- topic_query&#45;&gt;topic_eval -->
<g id="edge3" class="edge">
<title>topic_query&#45;&gt;topic_eval</title>
<path fill="none" stroke="#ad1457" d="M808,-323.41C808,-303.88 808,-278.97 808,-257.76"/>
<polygon fill="#ad1457" stroke="#ad1457" points="811.5,-257.92 808,-247.92 804.5,-257.92 811.5,-257.92"/>
</g>
<!-- postgres -->
<g id="node10" class="node">
<title>postgres</title>
<path fill="#e0f2f1" stroke="#00695c" d="M1071.75,-230C1071.75,-232.21 1049,-234 1021,-234 993,-234 970.25,-232.21 970.25,-230 970.25,-230 970.25,-194 970.25,-194 970.25,-191.79 993,-190 1021,-190 1049,-190 1071.75,-191.79 1071.75,-194 1071.75,-194 1071.75,-230 1071.75,-230"/>
<path fill="none" stroke="#00695c" d="M1071.75,-230C1071.75,-227.79 1049,-226 1021,-226 993,-226 970.25,-227.79 970.25,-230"/>
<text xml:space="preserve" text-anchor="middle" x="1021" y="-213.55" font-family="Helvetica,sans-Serif" font-size="11.00">PostgreSQL</text>
<text xml:space="preserve" text-anchor="middle" x="1021" y="-201.55" font-family="Helvetica,sans-Serif" font-size="11.00">(scraped_articles)</text>
</g>
<!-- topic_query&#45;&gt;postgres -->
<g id="edge9" class="edge">
<title>topic_query&#45;&gt;postgres</title>
<path fill="none" stroke="#00695c" stroke-dasharray="5,2" d="M857.4,-323.41C894.7,-298.24 945.25,-264.12 980.25,-240.5"/>
<polygon fill="#00695c" stroke="#00695c" points="982.1,-243.48 988.43,-234.98 978.18,-237.67 982.1,-243.48"/>
<text xml:space="preserve" text-anchor="middle" x="943.01" y="-290.2" font-family="Helvetica,sans-Serif" font-size="9.00">6h window</text>
<text xml:space="preserve" text-anchor="middle" x="943.01" y="-280.45" font-family="Helvetica,sans-Serif" font-size="9.00">counts</text>
</g>
<!-- topic_eval&#45;&gt;signals_db -->
<g id="edge12" class="edge">
<title>topic_eval&#45;&gt;signals_db</title>
<path fill="none" stroke="#00695c" stroke-dasharray="5,2" d="M774.32,-177.75C756.74,-160.39 734.65,-138.59 714.04,-118.24"/>
<polygon fill="#00695c" stroke="#00695c" points="716.58,-115.83 707.01,-111.29 711.66,-120.81 716.58,-115.83"/>
<text xml:space="preserve" text-anchor="middle" x="748.65" y="-136.2" font-family="Helvetica,sans-Serif" font-size="9.00">save</text>
</g>
<!-- api -->
<g id="node11" class="node">
<title>api</title>
<polygon fill="#b2ebf2" stroke="#00838f" points="1337.88,-240 1108.12,-240 1108.12,-184 1337.88,-184 1337.88,-240"/>
<text xml:space="preserve" text-anchor="middle" x="1223" y="-225.55" font-family="Helvetica,sans-Serif" font-size="11.00">GET /api/signals</text>
<text xml:space="preserve" text-anchor="middle" x="1223" y="-213.55" font-family="Helvetica,sans-Serif" font-size="11.00">━━━━━━━━━━━━━━━━━━━</text>
<text xml:space="preserve" text-anchor="middle" x="1223" y="-201.55" font-family="Helvetica,sans-Serif" font-size="11.00">Filter: type, severity</text>
<text xml:space="preserve" text-anchor="middle" x="1223" y="-189.55" font-family="Helvetica,sans-Serif" font-size="11.00">Zero&#45;computation read</text>
</g>
<!-- api&#45;&gt;signals_db -->
<g id="edge13" class="edge">
<title>api&#45;&gt;signals_db</title>
<path fill="none" stroke="#00695c" stroke-dasharray="5,2" d="M1153.81,-183.62C1133.43,-176.03 1110.96,-168.13 1090,-161.75 994.44,-132.66 885.26,-106.33 799.68,-87.22"/>
<polygon fill="#00695c" stroke="#00695c" points="800.56,-83.83 790.04,-85.08 799.05,-90.66 800.56,-83.83"/>
<text xml:space="preserve" text-anchor="middle" x="1053.55" y="-136.2" font-family="Helvetica,sans-Serif" font-size="9.00">read active</text>
</g>
</g>
</svg>
