<?xml version="1.0" encoding="UTF-8" standalone="no"?>
<!DOCTYPE svg PUBLIC "-//W3C//DTD SVG 1.1//EN"
 "http://www.w3.org/Graphics/SVG/1.1/DTD/svg11.dtd">
<!-- Generated by graphviz version 14.1.4 (20260321.0153)
 -->
<!-- Title: chat_agent Pages: 1 -->
<svg width="890pt" height="1077pt"
 viewBox="0.00 0.00 890.00 1077.00" xmlns="http://www.w3.org/2000/svg" xmlns:xlink="http://www.w3.org/1999/xlink">
<g id="graph0" class="graph" transform="scale(1 1) rotate(0) translate(28.8 1048.3)">
<title>chat_agent</title>
<polygon fill="white" stroke="none" points="-28.8,28.8 -28.8,-1048.3 861.05,-1048.3 861.05,28.8 -28.8,28.8"/>
<text xml:space="preserve" text-anchor="middle" x="416.12" y="-1002.2" font-family="Helvetica,sans-Serif" font-size="14.00" fill="#333333">Chat Agent — Graph RAG (LangGraph State Machine)</text>
<g id="clust1" class="cluster">
<title>cluster_graph_path</title>
<polygon fill="#fff3e0" stroke="#e65100" points="121,-79 121,-617.25 389,-617.25 389,-79 121,-79"/>
<text xml:space="preserve" text-anchor="middle" x="255" y="-599.95" font-family="Helvetica,sans-Serif" font-size="14.00" fill="#bf360c">Graph Path</text>
</g>
<!-- chat_ui -->
<g id="node1" class="node">
<title>chat_ui</title>
<polygon fill="#cfd8dc" stroke="#37474f" points="823.88,-996.5 594.12,-996.5 594.12,-928.5 823.88,-928.5 823.88,-996.5"/>
<text xml:space="preserve" text-anchor="middle" x="709" y="-982.05" font-family="Helvetica,sans-Serif" font-size="11.00">React Chat Panel</text>
<text xml:space="preserve" text-anchor="middle" x="709" y="-970.05" font-family="Helvetica,sans-Serif" font-size="11.00">━━━━━━━━━━━━━━━━━━━</text>
<text xml:space="preserve" text-anchor="middle" x="709" y="-958.05" font-family="Helvetica,sans-Serif" font-size="11.00">Markdown rendering</text>
<text xml:space="preserve" text-anchor="middle" x="709" y="-946.05" font-family="Helvetica,sans-Serif" font-size="11.00">Resizable side panel</text>
<text xml:space="preserve" text-anchor="middle" x="709" y="-934.05" font-family="Helvetica,sans-Serif" font-size="11.00">Conversation history</text>
</g>
<!-- input -->
<g id="node2" class="node">
<title>input</title>
<polygon fill="#e3f2fd" stroke="#1565c0" points="673.75,-859 566.25,-859 566.25,-823 673.75,-823 673.75,-859"/>
<text xml:space="preserve" text-anchor="middle" x="620" y="-842.55" font-family="Helvetica,sans-Serif" font-size="11.00">POST /api/chat</text>
<text xml:space="preserve" text-anchor="middle" x="620" y="-830.55" font-family="Helvetica,sans-Serif" font-size="11.00">{question, history[]}</text>
</g>
<!-- chat_ui&#45;&gt;input -->
<g id="edge4" class="edge">
<title>chat_ui&#45;&gt;input</title>
<path fill="none" stroke="#555555" d="M684.21,-928.21C670.15,-909.33 652.8,-886.04 639.68,-868.42"/>
<polygon fill="#555555" stroke="#555555" points="642.56,-866.43 633.78,-860.5 636.94,-870.61 642.56,-866.43"/>
<text xml:space="preserve" text-anchor="middle" x="685.88" y="-894.95" font-family="Helvetica,sans-Serif" font-size="9.00">question +</text>
<text xml:space="preserve" text-anchor="middle" x="685.88" y="-885.2" font-family="Helvetica,sans-Serif" font-size="9.00">history</text>
</g>
<!-- router -->
<g id="node3" class="node">
<title>router</title>
<polygon fill="#ffe0b2" stroke="#e65100" points="441,-772 301.25,-716 441,-660 580.75,-716 441,-772"/>
<text xml:space="preserve" text-anchor="middle" x="441" y="-729.55" font-family="Helvetica,sans-Serif" font-size="11.00">Router</text>
<text xml:space="preserve" text-anchor="middle" x="441" y="-717.55" font-family="Helvetica,sans-Serif" font-size="11.00">━━━━━━━━━━━</text>
<text xml:space="preserve" text-anchor="middle" x="441" y="-705.55" font-family="Helvetica,sans-Serif" font-size="11.00">Needs graph data?</text>
<text xml:space="preserve" text-anchor="middle" x="441" y="-693.55" font-family="Helvetica,sans-Serif" font-size="11.00">Or direct answer?</text>
</g>
<!-- input&#45;&gt;router -->
<g id="edge5" class="edge">
<title>input&#45;&gt;router</title>
<path fill="none" stroke="#555555" d="M594.73,-822.64C570.52,-806 533.06,-780.26 501.18,-758.36"/>
<polygon fill="#555555" stroke="#555555" points="503.4,-755.63 493.17,-752.85 499.43,-761.4 503.4,-755.63"/>
</g>
<!-- cypher_gen -->
<g id="node4" class="node">
<title>cypher_gen</title>
<polygon fill="#ffe0b2" stroke="#e65100" points="381.12,-586.25 128.88,-586.25 128.88,-504 381.12,-504 381.12,-586.25"/>
<text xml:space="preserve" text-anchor="middle" x="255" y="-571.8" font-family="Helvetica,sans-Serif" font-size="11.00">Cypher Generator</text>
<text xml:space="preserve" text-anchor="middle" x="255" y="-559.8" font-family="Helvetica,sans-Serif" font-size="11.00">━━━━━━━━━━━━━━━━━━━━━</text>
<text xml:space="preserve" text-anchor="middle" x="255" y="-547.8" font-family="Helvetica,sans-Serif" font-size="11.00">NL → 1..N Cypher queries</text>
<text xml:space="preserve" text-anchor="middle" x="255" y="-533.55" font-family="Helvetica,sans-Serif" font-size="11.00">Schema&#45;aware prompts</text>
<text xml:space="preserve" text-anchor="middle" x="255" y="-521.55" font-family="Helvetica,sans-Serif" font-size="11.00">Query templates</text>
<text xml:space="preserve" text-anchor="middle" x="255" y="-509.55" font-family="Helvetica,sans-Serif" font-size="11.00">Structured JSON output</text>
</g>
<!-- router&#45;&gt;cypher_gen -->
<g id="edge6" class="edge">
<title>router&#45;&gt;cypher_gen</title>
<path fill="none" stroke="#e65100" d="M398.79,-676.68C371.87,-652.23 336.75,-620.35 307.96,-594.21"/>
<polygon fill="#e65100" stroke="#e65100" points="310.51,-591.8 300.75,-587.67 305.8,-596.98 310.51,-591.8"/>
<text xml:space="preserve" text-anchor="middle" x="360" y="-626.45" font-family="Helvetica,sans-Serif" font-size="9.00">graph</text>
</g>
<!-- direct -->
<g id="node8" class="node">
<title>direct</title>
<polygon fill="#ffe0b2" stroke="#e65100" points="708.75,-150.12 535.25,-150.12 535.25,-94.12 708.75,-94.12 708.75,-150.12"/>
<text xml:space="preserve" text-anchor="middle" x="622" y="-135.68" font-family="Helvetica,sans-Serif" font-size="11.00">Direct Answer</text>
<text xml:space="preserve" text-anchor="middle" x="622" y="-123.67" font-family="Helvetica,sans-Serif" font-size="11.00">━━━━━━━━━━━━━━</text>
<text xml:space="preserve" text-anchor="middle" x="622" y="-111.67" font-family="Helvetica,sans-Serif" font-size="11.00">Greetings, meta</text>
<text xml:space="preserve" text-anchor="middle" x="622" y="-99.67" font-family="Helvetica,sans-Serif" font-size="11.00">questions, help</text>
</g>
<!-- router&#45;&gt;direct -->
<g id="edge7" class="edge">
<title>router&#45;&gt;direct</title>
<path fill="none" stroke="#e65100" d="M490.52,-679.74C527.26,-649.09 571,-601.07 571,-546.12 571,-546.12 571,-546.12 571,-259.75 571,-224.55 586.04,-187.28 599.79,-160.58"/>
<polygon fill="#e65100" stroke="#e65100" points="602.82,-162.33 604.45,-151.86 596.65,-159.04 602.82,-162.33"/>
<text xml:space="preserve" text-anchor="middle" x="582.25" y="-400.57" font-family="Helvetica,sans-Serif" font-size="9.00">direct</text>
</g>
<!-- groq -->
<g id="node12" class="node">
<title>groq</title>
<polygon fill="#fffde7" stroke="#f57f17" points="106,-36 46,-36 42,-32 42,0 102,0 106,-4 106,-36"/>
<polyline fill="none" stroke="#f57f17" points="102,-32 42,-32"/>
<polyline fill="none" stroke="#f57f17" points="102,-32 102,0"/>
<polyline fill="none" stroke="#f57f17" points="102,-32 106,-36"/>
<text xml:space="preserve" text-anchor="middle" x="74" y="-13.55" font-family="Helvetica,sans-Serif" font-size="11.00">Groq LLM</text>
</g>
<!-- router&#45;&gt;groq -->
<g id="edge13" class="edge">
<title>router&#45;&gt;groq</title>
<path fill="none" stroke="#f57f17" stroke-dasharray="5,2" d="M333.54,-695.93C203,-669.65 0,-617.32 0,-546.12 0,-546.12 0,-546.12 0,-121.12 0,-90.28 22.41,-62.46 42.56,-43.67"/>
<polygon fill="#f57f17" stroke="#f57f17" points="332.79,-699.35 343.28,-697.87 334.16,-692.49 332.79,-699.35"/>
<polygon fill="#f57f17" stroke="#f57f17" points="44.7,-46.45 49.86,-37.19 40.06,-41.22 44.7,-46.45"/>
</g>
<!-- cypher_exec -->
<g id="node5" class="node">
<title>cypher_exec</title>
<polygon fill="#ffe0b2" stroke="#e65100" points="381.12,-444.25 128.88,-444.25 128.88,-364.25 381.12,-364.25 381.12,-444.25"/>
<text xml:space="preserve" text-anchor="middle" x="255" y="-429.8" font-family="Helvetica,sans-Serif" font-size="11.00">Cypher Executor</text>
<text xml:space="preserve" text-anchor="middle" x="255" y="-417.8" font-family="Helvetica,sans-Serif" font-size="11.00">━━━━━━━━━━━━━━━━━━━━━</text>
<text xml:space="preserve" text-anchor="middle" x="255" y="-405.8" font-family="Helvetica,sans-Serif" font-size="11.00">Run on Neo4j (read&#45;only)</text>
<text xml:space="preserve" text-anchor="middle" x="255" y="-393.8" font-family="Helvetica,sans-Serif" font-size="11.00">25 row limit</text>
<text xml:space="preserve" text-anchor="middle" x="255" y="-381.8" font-family="Helvetica,sans-Serif" font-size="11.00">Neighborhood enrichment</text>
<text xml:space="preserve" text-anchor="middle" x="255" y="-369.8" font-family="Helvetica,sans-Serif" font-size="11.00">Collect article URLs</text>
</g>
<!-- cypher_gen&#45;&gt;cypher_exec -->
<g id="edge1" class="edge">
<title>cypher_gen&#45;&gt;cypher_exec</title>
<path fill="none" stroke="#e65100" d="M255,-503.58C255,-488.64 255,-471.52 255,-455.8"/>
<polygon fill="#e65100" stroke="#e65100" points="258.5,-456.16 255,-446.16 251.5,-456.16 258.5,-456.16"/>
</g>
<!-- cypher_gen&#45;&gt;groq -->
<g id="edge14" class="edge">
<title>cypher_gen&#45;&gt;groq</title>
<path fill="none" stroke="#f57f17" stroke-dasharray="5,2" d="M137.66,-497.91C102.93,-476.11 74,-445.79 74,-405.25 74,-405.25 74,-405.25 74,-121.12 74,-96.34 74,-68.18 74,-47.71"/>
<polygon fill="#f57f17" stroke="#f57f17" points="135.42,-500.64 145.8,-502.77 139.01,-494.63 135.42,-500.64"/>
<polygon fill="#f57f17" stroke="#f57f17" points="77.5,-47.86 74,-37.86 70.5,-47.86 77.5,-47.86"/>
</g>
<!-- fetch_articles -->
<g id="node6" class="node">
<title>fetch_articles</title>
<polygon fill="#ffe0b2" stroke="#e65100" points="364.88,-294.75 135.12,-294.75 135.12,-226.75 364.88,-226.75 364.88,-294.75"/>
<text xml:space="preserve" text-anchor="middle" x="250" y="-280.3" font-family="Helvetica,sans-Serif" font-size="11.00">Fetch Articles</text>
<text xml:space="preserve" text-anchor="middle" x="250" y="-268.3" font-family="Helvetica,sans-Serif" font-size="11.00">━━━━━━━━━━━━━━━━━━━</text>
<text xml:space="preserve" text-anchor="middle" x="250" y="-256.3" font-family="Helvetica,sans-Serif" font-size="11.00">Postgres full_text lookup</text>
<text xml:space="preserve" text-anchor="middle" x="250" y="-244.3" font-family="Helvetica,sans-Serif" font-size="11.00">Max 5 articles</text>
<text xml:space="preserve" text-anchor="middle" x="250" y="-232.3" font-family="Helvetica,sans-Serif" font-size="11.00">2000 chars each</text>
</g>
<!-- cypher_exec&#45;&gt;fetch_articles -->
<g id="edge2" class="edge">
<title>cypher_exec&#45;&gt;fetch_articles</title>
<path fill="none" stroke="#e65100" d="M253.61,-363.83C252.98,-346.04 252.23,-324.93 251.58,-306.54"/>
<polygon fill="#e65100" stroke="#e65100" points="255.09,-306.59 251.24,-296.72 248.09,-306.84 255.09,-306.59"/>
</g>
<!-- neo4j -->
<g id="node10" class="node">
<title>neo4j</title>
<path fill="#fce4ec" stroke="#c62828" d="M465.38,-278.75C465.38,-280.96 450.86,-282.75 433,-282.75 415.14,-282.75 400.62,-280.96 400.62,-278.75 400.62,-278.75 400.62,-242.75 400.62,-242.75 400.62,-240.54 415.14,-238.75 433,-238.75 450.86,-238.75 465.38,-240.54 465.38,-242.75 465.38,-242.75 465.38,-278.75 465.38,-278.75"/>
<path fill="none" stroke="#c62828" d="M465.38,-278.75C465.38,-276.54 450.86,-274.75 433,-274.75 415.14,-274.75 400.62,-276.54 400.62,-278.75"/>
<text xml:space="preserve" text-anchor="middle" x="433" y="-262.3" font-family="Helvetica,sans-Serif" font-size="11.00">Neo4j</text>
<text xml:space="preserve" text-anchor="middle" x="433" y="-250.3" font-family="Helvetica,sans-Serif" font-size="11.00">Graph DB</text>
</g>
<!-- cypher_exec&#45;&gt;neo4j -->
<g id="edge11" class="edge">
<title>cypher_exec&#45;&gt;neo4j</title>
<path fill="none" stroke="#c62828" stroke-dasharray="5,2" d="M317.85,-357.13C342.88,-338.28 371.69,-315.95 397,-294.75 398.85,-293.2 400.73,-291.59 402.62,-289.95"/>
<polygon fill="#c62828" stroke="#c62828" points="315.93,-354.2 310.03,-363 320.13,-359.8 315.93,-354.2"/>
<polygon fill="#c62828" stroke="#c62828" points="404.53,-292.93 409.68,-283.67 399.88,-287.7 404.53,-292.93"/>
<text xml:space="preserve" text-anchor="middle" x="377.74" y="-330.7" font-family="Helvetica,sans-Serif" font-size="9.00">Cypher</text>
<text xml:space="preserve" text-anchor="middle" x="377.74" y="-320.95" font-family="Helvetica,sans-Serif" font-size="9.00">query</text>
</g>
<!-- synthesize -->
<g id="node7" class="node">
<title>synthesize</title>
<polygon fill="#ffe0b2" stroke="#e65100" points="360.88,-157.25 131.12,-157.25 131.12,-87 360.88,-87 360.88,-157.25"/>
<text xml:space="preserve" text-anchor="middle" x="246" y="-142.8" font-family="Helvetica,sans-Serif" font-size="11.00">Synthesizer</text>
<text xml:space="preserve" text-anchor="middle" x="246" y="-130.8" font-family="Helvetica,sans-Serif" font-size="11.00">━━━━━━━━━━━━━━━━━━━</text>
<text xml:space="preserve" text-anchor="middle" x="246" y="-118.8" font-family="Helvetica,sans-Serif" font-size="11.00">Graph data + article text</text>
<text xml:space="preserve" text-anchor="middle" x="246" y="-106.8" font-family="Helvetica,sans-Serif" font-size="11.00">→ Intelligence briefing</text>
<text xml:space="preserve" text-anchor="middle" x="246" y="-92.55" font-family="Helvetica,sans-Serif" font-size="11.00">Provenance tracking</text>
</g>
<!-- fetch_articles&#45;&gt;synthesize -->
<g id="edge3" class="edge">
<title>fetch_articles&#45;&gt;synthesize</title>
<path fill="none" stroke="#e65100" d="M249.02,-226.33C248.52,-209.06 247.89,-187.72 247.34,-168.93"/>
<polygon fill="#e65100" stroke="#e65100" points="250.85,-169.03 247.05,-159.14 243.85,-169.24 250.85,-169.03"/>
</g>
<!-- postgres -->
<g id="node11" class="node">
<title>postgres</title>
<path fill="#e0f2f1" stroke="#00695c" d="M498.75,-140.12C498.75,-142.33 476,-144.12 448,-144.12 420,-144.12 397.25,-142.33 397.25,-140.12 397.25,-140.12 397.25,-104.12 397.25,-104.12 397.25,-101.92 420,-100.12 448,-100.12 476,-100.12 498.75,-101.92 498.75,-104.12 498.75,-104.12 498.75,-140.12 498.75,-140.12"/>
<path fill="none" stroke="#00695c" d="M498.75,-140.12C498.75,-137.92 476,-136.12 448,-136.12 420,-136.12 397.25,-137.92 397.25,-140.12"/>
<text xml:space="preserve" text-anchor="middle" x="448" y="-123.67" font-family="Helvetica,sans-Serif" font-size="11.00">PostgreSQL</text>
<text xml:space="preserve" text-anchor="middle" x="448" y="-111.67" font-family="Helvetica,sans-Serif" font-size="11.00">(scraped_articles)</text>
</g>
<!-- fetch_articles&#45;&gt;postgres -->
<g id="edge12" class="edge">
<title>fetch_articles&#45;&gt;postgres</title>
<path fill="none" stroke="#00695c" stroke-dasharray="5,2" d="M307.81,-219.86C339.98,-197.66 379.21,-170.59 407.99,-150.74"/>
<polygon fill="#00695c" stroke="#00695c" points="305.92,-216.91 299.68,-225.47 309.9,-222.67 305.92,-216.91"/>
<polygon fill="#00695c" stroke="#00695c" points="409.83,-153.72 416.07,-145.16 405.85,-147.96 409.83,-153.72"/>
<text xml:space="preserve" text-anchor="middle" x="376.6" y="-193.2" font-family="Helvetica,sans-Serif" font-size="9.00">full_text</text>
<text xml:space="preserve" text-anchor="middle" x="376.6" y="-183.45" font-family="Helvetica,sans-Serif" font-size="9.00">lookup</text>
</g>
<!-- output -->
<g id="node9" class="node">
<title>output</title>
<polygon fill="#c8e6c9" stroke="#2e7d32" points="692.62,-36 551.38,-36 551.38,0 692.62,0 692.62,-36"/>
<text xml:space="preserve" text-anchor="middle" x="622" y="-19.55" font-family="Helvetica,sans-Serif" font-size="11.00">Response</text>
<text xml:space="preserve" text-anchor="middle" x="622" y="-7.55" font-family="Helvetica,sans-Serif" font-size="11.00">(answer + cypher + route)</text>
</g>
<!-- synthesize&#45;&gt;output -->
<g id="edge8" class="edge">
<title>synthesize&#45;&gt;output</title>
<path fill="none" stroke="#2e7d32" d="M352.89,-86.61C361.7,-83.96 370.49,-81.4 379,-79 432.25,-64.01 492.62,-49.09 539.87,-37.88"/>
<polygon fill="#2e7d32" stroke="#2e7d32" points="540.57,-41.31 549.5,-35.61 538.96,-34.5 540.57,-41.31"/>
</g>
<!-- synthesize&#45;&gt;groq -->
<g id="edge15" class="edge">
<title>synthesize&#45;&gt;groq</title>
<path fill="none" stroke="#f57f17" stroke-dasharray="5,2" d="M177.94,-80.72C155.92,-67.64 132.25,-53.59 113.07,-42.2"/>
<polygon fill="#f57f17" stroke="#f57f17" points="176.08,-83.68 186.47,-85.78 179.66,-77.66 176.08,-83.68"/>
<polygon fill="#f57f17" stroke="#f57f17" points="114.89,-39.21 104.5,-37.11 111.31,-45.23 114.89,-39.21"/>
</g>
<!-- direct&#45;&gt;output -->
<g id="edge9" class="edge">
<title>direct&#45;&gt;output</title>
<path fill="none" stroke="#2e7d32" d="M622,-93.76C622,-79.54 622,-62.17 622,-47.76"/>
<polygon fill="#2e7d32" stroke="#2e7d32" points="625.5,-47.99 622,-37.99 618.5,-47.99 625.5,-47.99"/>
</g>
<!-- output&#45;&gt;chat_ui -->
<g id="edge10" class="edge">
<title>output&#45;&gt;chat_ui</title>
<path fill="none" stroke="#555555" d="M682.22,-36.39C720.92,-51.68 764,-78.31 764,-121.12 764,-842 764,-842 764,-842 764,-869.03 752.24,-896.62 739.6,-918.46"/>
<polygon fill="#555555" stroke="#555555" points="736.75,-916.41 734.55,-926.78 742.73,-920.04 736.75,-916.41"/>
<text xml:space="preserve" text-anchor="middle" x="798.12" y="-470.45" font-family="Helvetica,sans-Serif" font-size="9.00">{answer, cypher}</text>
</g>
</g>
</svg>
