<?xml version="1.0" encoding="UTF-8" standalone="no"?>
<!DOCTYPE svg PUBLIC "-//W3C//DTD SVG 1.1//EN"
 "http://www.w3.org/Graphics/SVG/1.1/DTD/svg11.dtd">
<!-- Generated by graphviz version 14.1.1 (20251213.1925)
 -->
<!-- Title: architecture Pages: 1 -->
<svg width="587pt" height="1858pt"
 viewBox="0.00 0.00 587.00 1858.00" xmlns="http://www.w3.org/2000/svg" xmlns:xlink="http://www.w3.org/1999/xlink">
<g id="graph0" class="graph" transform="scale(1 1) rotate(0) translate(36 1821.5)">
<title>architecture</title>
<polygon fill="white" stroke="none" points="-36,36 -36,-1821.5 551.12,-1821.5 551.12,36 -36,36"/>
<g id="clust1" class="cluster">
<title>cluster_sources</title>
<polygon fill="white" stroke="#888888" stroke-dasharray="5,2" points="112,-1694.5 112,-1777.5 238,-1777.5 238,-1694.5 112,-1694.5"/>
<text xml:space="preserve" text-anchor="middle" x="175" y="-1760.2" font-family="Helvetica,sans-Serif" font-size="14.00" fill="#555555">Data Sources</text>
</g>
<g id="clust2" class="cluster">
<title>cluster_extraction</title>
<polygon fill="#fff8e1" stroke="#f9a825" points="24,-1115.25 24,-1544 326,-1544 326,-1115.25 24,-1115.25"/>
<text xml:space="preserve" text-anchor="middle" x="125" y="-1526.7" font-family="Helvetica,sans-Serif" font-size="14.00" fill="#e65100"> &#160;Extraction Agent (per article) &#160;</text>
</g>
<g id="clust3" class="cluster">
<title>cluster_resolution</title>
<polygon fill="#f3e5f5" stroke="#7b1fa2" points="8,-670 8,-1076.5 298,-1076.5 298,-670 8,-670"/>
<text xml:space="preserve" text-anchor="middle" x="117.62" y="-1059.2" font-family="Helvetica,sans-Serif" font-size="14.00" fill="#4a148c"> &#160;Resolution Agent (cross&#45;article) &#160;</text>
</g>
<g id="clust4" class="cluster">
<title>cluster_legend</title>
<polygon fill="#fafafa" stroke="#cccccc" points="334,-1131.25 334,-1769.75 482,-1769.75 482,-1131.25 334,-1131.25"/>
<text xml:space="preserve" text-anchor="middle" x="408" y="-1756.25" font-family="Helvetica,sans-Serif" font-size="10.00">Legend</text>
</g>
<!-- rss -->
<g id="node1" class="node">
<title>rss</title>
<polygon fill="#e3f2fd" stroke="#1565c0" points="230.25,-1746.5 119.75,-1746.5 119.75,-1702.5 230.25,-1702.5 230.25,-1746.5"/>
<text xml:space="preserve" text-anchor="middle" x="175" y="-1732.05" font-family="Helvetica,sans-Serif" font-size="11.00">RSS Feeds</text>
<text xml:space="preserve" text-anchor="middle" x="175" y="-1720.05" font-family="Helvetica,sans-Serif" font-size="11.00">(TOI, NDTV, Hindu,</text>
<text xml:space="preserve" text-anchor="middle" x="175" y="-1708.05" font-family="Helvetica,sans-Serif" font-size="11.00">ET, Livemint, ...)</text>
</g>
<!-- scraper -->
<g id="node2" class="node">
<title>scraper</title>
<polygon fill="#e8f5e9" stroke="#2e7d32" points="232.88,-1634.75 117.12,-1634.75 117.12,-1590.75 232.88,-1590.75 232.88,-1634.75"/>
<text xml:space="preserve" text-anchor="middle" x="175" y="-1620.3" font-family="Helvetica,sans-Serif" font-size="11.00">Scraper</text>
<text xml:space="preserve" text-anchor="middle" x="175" y="-1608.3" font-family="Helvetica,sans-Serif" font-size="11.00">(news_rss.py)</text>
<text xml:space="preserve" text-anchor="middle" x="175" y="-1596.3" font-family="Helvetica,sans-Serif" font-size="11.00">Fetch RSS + full text</text>
</g>
<!-- rss&#45;&gt;scraper -->
<g id="edge5" class="edge">
<title>rss&#45;&gt;scraper</title>
<path fill="none" stroke="#555555" d="M175,-1702.08C175,-1686.29 175,-1664.53 175,-1646.56"/>
<polygon fill="#555555" stroke="#555555" points="178.5,-1646.63 175,-1636.63 171.5,-1646.63 178.5,-1646.63"/>
<text xml:space="preserve" text-anchor="middle" x="186.62" y="-1664.95" font-family="Helvetica,sans-Serif" font-size="9.00">URLs</text>
</g>
<!-- gliner -->
<g id="node3" class="node">
<title>gliner</title>
<polygon fill="#fff3e0" stroke="#ef6c00" points="289.88,-1513 60.12,-1513 60.12,-1428.5 289.88,-1428.5 289.88,-1513"/>
<text xml:space="preserve" text-anchor="middle" x="175" y="-1498.55" font-family="Helvetica,sans-Serif" font-size="11.00">Phase A: GLiNER2 (205M)</text>
<text xml:space="preserve" text-anchor="middle" x="175" y="-1486.55" font-family="Helvetica,sans-Serif" font-size="11.00">━━━━━━━━━━━━━━━━━━━</text>
<text xml:space="preserve" text-anchor="middle" x="175" y="-1474.55" font-family="Helvetica,sans-Serif" font-size="11.00">• NER → 9 entity types</text>
<text xml:space="preserve" text-anchor="middle" x="175" y="-1460.3" font-family="Helvetica,sans-Serif" font-size="11.00">• RE → 26 relation types</text>
<text xml:space="preserve" text-anchor="middle" x="175" y="-1446.05" font-family="Helvetica,sans-Serif" font-size="11.00">• ~50ms/article, CPU</text>
<text xml:space="preserve" text-anchor="middle" x="175" y="-1434.05" font-family="Helvetica,sans-Serif" font-size="11.00">• Text&#45;span grounded</text>
</g>
<!-- scraper&#45;&gt;gliner -->
<g id="edge6" class="edge">
<title>scraper&#45;&gt;gliner</title>
<path fill="none" stroke="#555555" d="M175,-1590.49C175,-1573.02 175,-1547.5 175,-1524.6"/>
<polygon fill="#555555" stroke="#555555" points="178.5,-1524.78 175,-1514.78 171.5,-1524.78 178.5,-1524.78"/>
<text xml:space="preserve" text-anchor="middle" x="195.62" y="-1553.2" font-family="Helvetica,sans-Serif" font-size="9.00">list[Article]</text>
</g>
<!-- canon -->
<g id="node4" class="node">
<title>canon</title>
<polygon fill="#fff3e0" stroke="#ef6c00" points="318,-1351 32,-1351 32,-1268.75 318,-1268.75 318,-1351"/>
<text xml:space="preserve" text-anchor="middle" x="175" y="-1336.55" font-family="Helvetica,sans-Serif" font-size="11.00">Phase B: LLM Canonicalization</text>
<text xml:space="preserve" text-anchor="middle" x="175" y="-1324.55" font-family="Helvetica,sans-Serif" font-size="11.00">━━━━━━━━━━━━━━━━━━━━━━━━</text>
<text xml:space="preserve" text-anchor="middle" x="175" y="-1312.55" font-family="Helvetica,sans-Serif" font-size="11.00">• Raw spans → canonical names</text>
<text xml:space="preserve" text-anchor="middle" x="175" y="-1298.3" font-family="Helvetica,sans-Serif" font-size="11.00">• Generate aliases</text>
<text xml:space="preserve" text-anchor="middle" x="175" y="-1286.3" font-family="Helvetica,sans-Serif" font-size="11.00">• Update relation names</text>
<text xml:space="preserve" text-anchor="middle" x="175" y="-1274.3" font-family="Helvetica,sans-Serif" font-size="11.00">• ~500 tokens, lightweight</text>
</g>
<!-- gliner&#45;&gt;canon -->
<g id="edge1" class="edge">
<title>gliner&#45;&gt;canon</title>
<path fill="none" stroke="#e65100" d="M175,-1428.01C175,-1407.99 175,-1383.82 175,-1362.65"/>
<polygon fill="#e65100" stroke="#e65100" points="178.5,-1362.76 175,-1352.76 171.5,-1362.76 178.5,-1362.76"/>
<text xml:space="preserve" text-anchor="middle" x="198.25" y="-1390.95" font-family="Helvetica,sans-Serif" font-size="9.00" fill="#e65100">raw entities</text>
<text xml:space="preserve" text-anchor="middle" x="198.25" y="-1381.2" font-family="Helvetica,sans-Serif" font-size="9.00" fill="#e65100">+ relations</text>
</g>
<!-- enrich -->
<g id="node5" class="node">
<title>enrich</title>
<polygon fill="#fff3e0" stroke="#ef6c00" points="301.12,-1191.25 48.88,-1191.25 48.88,-1123.25 301.12,-1123.25 301.12,-1191.25"/>
<text xml:space="preserve" text-anchor="middle" x="175" y="-1176.8" font-family="Helvetica,sans-Serif" font-size="11.00">Phase C: LLM Enrichment</text>
<text xml:space="preserve" text-anchor="middle" x="175" y="-1164.8" font-family="Helvetica,sans-Serif" font-size="11.00">━━━━━━━━━━━━━━━━━━━━━</text>
<text xml:space="preserve" text-anchor="middle" x="175" y="-1152.8" font-family="Helvetica,sans-Serif" font-size="11.00">• Causal flag classification</text>
<text xml:space="preserve" text-anchor="middle" x="175" y="-1140.8" font-family="Helvetica,sans-Serif" font-size="11.00">• Temporal marker attachment</text>
<text xml:space="preserve" text-anchor="middle" x="175" y="-1128.8" font-family="Helvetica,sans-Serif" font-size="11.00">• Event extraction (max 5)</text>
</g>
<!-- canon&#45;&gt;enrich -->
<g id="edge2" class="edge">
<title>canon&#45;&gt;enrich</title>
<path fill="none" stroke="#e65100" d="M175,-1268.51C175,-1248.31 175,-1223.8 175,-1203.03"/>
<polygon fill="#e65100" stroke="#e65100" points="178.5,-1203.12 175,-1193.12 171.5,-1203.12 178.5,-1203.12"/>
<text xml:space="preserve" text-anchor="middle" x="203.5" y="-1231.2" font-family="Helvetica,sans-Serif" font-size="9.00" fill="#e65100">canonicalized</text>
<text xml:space="preserve" text-anchor="middle" x="203.5" y="-1221.45" font-family="Helvetica,sans-Serif" font-size="9.00" fill="#e65100">entities + rels</text>
</g>
<!-- tier1 -->
<g id="node6" class="node">
<title>tier1</title>
<polygon fill="#f8eaf6" stroke="#7b1fa2" points="289.88,-1045.5 60.12,-1045.5 60.12,-965.5 289.88,-965.5 289.88,-1045.5"/>
<text xml:space="preserve" text-anchor="middle" x="175" y="-1031.05" font-family="Helvetica,sans-Serif" font-size="11.00">Tier 1: Deterministic</text>
<text xml:space="preserve" text-anchor="middle" x="175" y="-1019.05" font-family="Helvetica,sans-Serif" font-size="11.00">━━━━━━━━━━━━━━━━━━━</text>
<text xml:space="preserve" text-anchor="middle" x="175" y="-1007.05" font-family="Helvetica,sans-Serif" font-size="11.00">• Alias table (Postgres)</text>
<text xml:space="preserve" text-anchor="middle" x="175" y="-995.05" font-family="Helvetica,sans-Serif" font-size="11.00">• Substring containment</text>
<text xml:space="preserve" text-anchor="middle" x="175" y="-983.05" font-family="Helvetica,sans-Serif" font-size="11.00">• Acronym expansion</text>
<text xml:space="preserve" text-anchor="middle" x="175" y="-971.05" font-family="Helvetica,sans-Serif" font-size="11.00">• O(N), no LLM</text>
</g>
<!-- enrich&#45;&gt;tier1 -->
<g id="edge7" class="edge">
<title>enrich&#45;&gt;tier1</title>
<path fill="none" stroke="#555555" d="M175,-1123.02C175,-1103.66 175,-1078.86 175,-1057.12"/>
<polygon fill="#555555" stroke="#555555" points="178.5,-1057.26 175,-1047.26 171.5,-1057.26 178.5,-1057.26"/>
<text xml:space="preserve" text-anchor="middle" x="215.88" y="-1085.7" font-family="Helvetica,sans-Serif" font-size="9.00">list[ArticleExtraction]</text>
</g>
<!-- tier2 -->
<g id="node7" class="node">
<title>tier2</title>
<polygon fill="#f8eaf6" stroke="#7b1fa2" points="284.25,-906.5 65.75,-906.5 65.75,-824.25 284.25,-824.25 284.25,-906.5"/>
<text xml:space="preserve" text-anchor="middle" x="175" y="-892.05" font-family="Helvetica,sans-Serif" font-size="11.00">Tier 2: Embeddings</text>
<text xml:space="preserve" text-anchor="middle" x="175" y="-880.05" font-family="Helvetica,sans-Serif" font-size="11.00">━━━━━━━━━━━━━━━━━━</text>
<text xml:space="preserve" text-anchor="middle" x="175" y="-868.05" font-family="Helvetica,sans-Serif" font-size="11.00">• all&#45;MiniLM&#45;L6&#45;v2</text>
<text xml:space="preserve" text-anchor="middle" x="175" y="-856.05" font-family="Helvetica,sans-Serif" font-size="11.00">• Type&#45;blocked similarity</text>
<text xml:space="preserve" text-anchor="middle" x="175" y="-844.05" font-family="Helvetica,sans-Serif" font-size="11.00">• &gt;0.95 → auto&#45;merge</text>
<text xml:space="preserve" text-anchor="middle" x="175" y="-829.8" font-family="Helvetica,sans-Serif" font-size="11.00">• O(N log N), no LLM</text>
</g>
<!-- tier1&#45;&gt;tier2 -->
<g id="edge3" class="edge">
<title>tier1&#45;&gt;tier2</title>
<path fill="none" stroke="#7b1fa2" d="M175,-965.29C175,-950.53 175,-933.51 175,-917.8"/>
<polygon fill="#7b1fa2" stroke="#7b1fa2" points="178.5,-918.16 175,-908.16 171.5,-918.16 178.5,-918.16"/>
</g>
<!-- merge_table -->
<g id="node9" class="node">
<title>merge_table</title>
<path fill="#e0f2f1" stroke="#00695c" d="M515.12,-592C515.12,-596.69 458.59,-600.5 389,-600.5 319.41,-600.5 262.88,-596.69 262.88,-592 262.88,-592 262.88,-515.5 262.88,-515.5 262.88,-510.81 319.41,-507 389,-507 458.59,-507 515.12,-510.81 515.12,-515.5 515.12,-515.5 515.12,-592 515.12,-592"/>
<path fill="none" stroke="#00695c" d="M515.12,-592C515.12,-587.31 458.59,-583.5 389,-583.5 319.41,-583.5 262.88,-587.31 262.88,-592"/>
<text xml:space="preserve" text-anchor="middle" x="389" y="-573.3" font-family="Helvetica,sans-Serif" font-size="11.00">Persistent Merge Table</text>
<text xml:space="preserve" text-anchor="middle" x="389" y="-561.3" font-family="Helvetica,sans-Serif" font-size="11.00">(Postgres: entity_alias)</text>
<text xml:space="preserve" text-anchor="middle" x="389" y="-549.3" font-family="Helvetica,sans-Serif" font-size="11.00">━━━━━━━━━━━━━━━━━━━━━</text>
<text xml:space="preserve" text-anchor="middle" x="389" y="-537.3" font-family="Helvetica,sans-Serif" font-size="11.00">typed + untyped aliases</text>
<text xml:space="preserve" text-anchor="middle" x="389" y="-525.3" font-family="Helvetica,sans-Serif" font-size="11.00">O(1) lookup</text>
</g>
<!-- tier1&#45;&gt;merge_table -->
<g id="edge8" class="edge">
<title>tier1&#45;&gt;merge_table</title>
<path fill="none" stroke="#00695c" stroke-dasharray="5,2" d="M248.29,-958.46C268.55,-943.51 289.49,-925.76 306,-906.5 358.35,-845.44 369.15,-824.15 391,-746.75 403.45,-702.66 401.95,-650.57 397.9,-611.78"/>
<polygon fill="#00695c" stroke="#00695c" points="246.33,-955.55 240.27,-964.24 250.43,-961.23 246.33,-955.55"/>
<polygon fill="#00695c" stroke="#00695c" points="401.42,-611.75 396.81,-602.21 394.46,-612.54 401.42,-611.75"/>
<text xml:space="preserve" text-anchor="middle" x="397.04" y="-786.7" font-family="Helvetica,sans-Serif" font-size="9.00" fill="#00695c">save</text>
<text xml:space="preserve" text-anchor="middle" x="397.04" y="-776.95" font-family="Helvetica,sans-Serif" font-size="9.00" fill="#00695c">aliases</text>
</g>
<!-- tier3 -->
<g id="node8" class="node">
<title>tier3</title>
<polygon fill="#f8eaf6" stroke="#7b1fa2" points="290.38,-746.75 15.62,-746.75 15.62,-678 290.38,-678 290.38,-746.75"/>
<text xml:space="preserve" text-anchor="middle" x="153" y="-732.3" font-family="Helvetica,sans-Serif" font-size="11.00">Tier 3: LLM Disambiguation</text>
<text xml:space="preserve" text-anchor="middle" x="153" y="-720.3" font-family="Helvetica,sans-Serif" font-size="11.00">━━━━━━━━━━━━━━━━━━━━━━━</text>
<text xml:space="preserve" text-anchor="middle" x="153" y="-708.3" font-family="Helvetica,sans-Serif" font-size="11.00">• Ambiguous pairs (0.80&#45;0.95)</text>
<text xml:space="preserve" text-anchor="middle" x="153" y="-696.3" font-family="Helvetica,sans-Serif" font-size="11.00">• Batch 20 pairs per call</text>
<text xml:space="preserve" text-anchor="middle" x="153" y="-684.3" font-family="Helvetica,sans-Serif" font-size="11.00">• O(K), K ≪ N</text>
</g>
<!-- tier2&#45;&gt;tier3 -->
<g id="edge4" class="edge">
<title>tier2&#45;&gt;tier3</title>
<path fill="none" stroke="#7b1fa2" d="M169.1,-823.91C166.14,-803.57 162.54,-778.86 159.5,-757.97"/>
<polygon fill="#7b1fa2" stroke="#7b1fa2" points="162.99,-757.7 158.09,-748.31 156.07,-758.71 162.99,-757.7"/>
<text xml:space="preserve" text-anchor="middle" x="195.41" y="-786.7" font-family="Helvetica,sans-Serif" font-size="9.00" fill="#4a148c">candidates</text>
<text xml:space="preserve" text-anchor="middle" x="195.41" y="-776.95" font-family="Helvetica,sans-Serif" font-size="9.00" fill="#4a148c">(sim 0.80&#45;0.95)</text>
</g>
<!-- tier2&#45;&gt;merge_table -->
<g id="edge9" class="edge">
<title>tier2&#45;&gt;merge_table</title>
<path fill="none" stroke="#00695c" stroke-dasharray="5,2" d="M242.95,-816.86C267.2,-797.32 293.15,-773.08 312,-746.75 341.33,-705.78 361.64,-652.04 374.01,-611.84"/>
<polygon fill="#00695c" stroke="#00695c" points="240.98,-813.96 235.3,-822.91 245.32,-819.45 240.98,-813.96"/>
<polygon fill="#00695c" stroke="#00695c" points="377.34,-612.92 376.85,-602.33 370.63,-610.91 377.34,-612.92"/>
<text xml:space="preserve" text-anchor="middle" x="366.86" y="-713.58" font-family="Helvetica,sans-Serif" font-size="9.00" fill="#00695c">save</text>
<text xml:space="preserve" text-anchor="middle" x="366.86" y="-703.83" font-family="Helvetica,sans-Serif" font-size="9.00" fill="#00695c">aliases</text>
</g>
<!-- tier3&#45;&gt;merge_table -->
<g id="edge10" class="edge">
<title>tier3&#45;&gt;merge_table</title>
<path fill="none" stroke="#00695c" stroke-dasharray="5,2" d="M203.92,-677.58C234.89,-657.03 275.1,-630.34 310.12,-607.1"/>
<polygon fill="#00695c" stroke="#00695c" points="311.71,-610.24 318.11,-601.8 307.84,-604.41 311.71,-610.24"/>
<text xml:space="preserve" text-anchor="middle" x="285.62" y="-640.45" font-family="Helvetica,sans-Serif" font-size="9.00" fill="#00695c">save</text>
<text xml:space="preserve" text-anchor="middle" x="285.62" y="-630.7" font-family="Helvetica,sans-Serif" font-size="9.00" fill="#00695c">aliases</text>
</g>
<!-- temporal -->
<g id="node10" class="node">
<title>temporal</title>
<polygon fill="#e8eaf6" stroke="#283593" points="219.62,-587.75 12.37,-587.75 12.37,-519.75 219.62,-519.75 219.62,-587.75"/>
<text xml:space="preserve" text-anchor="middle" x="116" y="-573.3" font-family="Helvetica,sans-Serif" font-size="11.00">Temporal Agent</text>
<text xml:space="preserve" text-anchor="middle" x="116" y="-561.3" font-family="Helvetica,sans-Serif" font-size="11.00">━━━━━━━━━━━━━━━━━</text>
<text xml:space="preserve" text-anchor="middle" x="116" y="-549.3" font-family="Helvetica,sans-Serif" font-size="11.00">• State tracking</text>
<text xml:space="preserve" text-anchor="middle" x="116" y="-537.3" font-family="Helvetica,sans-Serif" font-size="11.00">• Date attachment</text>
<text xml:space="preserve" text-anchor="middle" x="116" y="-525.3" font-family="Helvetica,sans-Serif" font-size="11.00">• current vs historical</text>
</g>
<!-- tier3&#45;&gt;temporal -->
<g id="edge11" class="edge">
<title>tier3&#45;&gt;temporal</title>
<path fill="none" stroke="#555555" d="M145.06,-677.78C139.63,-654.78 132.37,-624.05 126.47,-599.06"/>
<polygon fill="#555555" stroke="#555555" points="129.91,-598.43 124.21,-589.5 123.1,-600.04 129.91,-598.43"/>
<text xml:space="preserve" text-anchor="middle" x="178.69" y="-635.58" font-family="Helvetica,sans-Serif" font-size="9.00">resolved extractions</text>
</g>
<!-- inference -->
<g id="node11" class="node">
<title>inference</title>
<polygon fill="#e8eaf6" stroke="#283593" points="219.62,-448 12.37,-448 12.37,-380 219.62,-380 219.62,-448"/>
<text xml:space="preserve" text-anchor="middle" x="116" y="-433.55" font-family="Helvetica,sans-Serif" font-size="11.00">Inference Agent</text>
<text xml:space="preserve" text-anchor="middle" x="116" y="-421.55" font-family="Helvetica,sans-Serif" font-size="11.00">━━━━━━━━━━━━━━━━━</text>
<text xml:space="preserve" text-anchor="middle" x="116" y="-409.55" font-family="Helvetica,sans-Serif" font-size="11.00">• Cross&#45;domain causal chains</text>
<text xml:space="preserve" text-anchor="middle" x="116" y="-397.55" font-family="Helvetica,sans-Serif" font-size="11.00">• Impact propagation</text>
<text xml:space="preserve" text-anchor="middle" x="116" y="-385.55" font-family="Helvetica,sans-Serif" font-size="11.00">• Weak link detection</text>
</g>
<!-- temporal&#45;&gt;inference -->
<g id="edge12" class="edge">
<title>temporal&#45;&gt;inference</title>
<path fill="none" stroke="#555555" d="M116,-519.4C116,-501.38 116,-478.9 116,-459.41"/>
<polygon fill="#555555" stroke="#555555" points="119.5,-459.55 116,-449.55 112.5,-459.55 119.5,-459.55"/>
</g>
<!-- neo4j -->
<g id="node12" class="node">
<title>neo4j</title>
<path fill="#fce4ec" stroke="#c62828" d="M219.62,-303.75C219.62,-308.44 173.18,-312.25 116,-312.25 58.82,-312.25 12.38,-308.44 12.38,-303.75 12.38,-303.75 12.38,-227.25 12.38,-227.25 12.38,-222.56 58.82,-218.75 116,-218.75 173.18,-218.75 219.62,-222.56 219.62,-227.25 219.62,-227.25 219.62,-303.75 219.62,-303.75"/>
<path fill="none" stroke="#c62828" d="M219.62,-303.75C219.62,-299.06 173.18,-295.25 116,-295.25 58.82,-295.25 12.38,-299.06 12.38,-303.75"/>
<text xml:space="preserve" text-anchor="middle" x="116" y="-285.05" font-family="Helvetica,sans-Serif" font-size="11.00">Neo4j Graph DB</text>
<text xml:space="preserve" text-anchor="middle" x="116" y="-273.05" font-family="Helvetica,sans-Serif" font-size="11.00">━━━━━━━━━━━━━━━━━</text>
<text xml:space="preserve" text-anchor="middle" x="116" y="-261.05" font-family="Helvetica,sans-Serif" font-size="11.00">Entity, Event, State,</text>
<text xml:space="preserve" text-anchor="middle" x="116" y="-249.05" font-family="Helvetica,sans-Serif" font-size="11.00">Article nodes</text>
<text xml:space="preserve" text-anchor="middle" x="116" y="-237.05" font-family="Helvetica,sans-Serif" font-size="11.00">+ typed relationships</text>
</g>
<!-- inference&#45;&gt;neo4j -->
<g id="edge13" class="edge">
<title>inference&#45;&gt;neo4j</title>
<path fill="none" stroke="#555555" d="M116,-379.76C116,-363.33 116,-343.03 116,-324.17"/>
<polygon fill="#555555" stroke="#555555" points="119.5,-324.17 116,-314.17 112.5,-324.17 119.5,-324.17"/>
<text xml:space="preserve" text-anchor="middle" x="138.88" y="-342.45" font-family="Helvetica,sans-Serif" font-size="9.00">write graph</text>
</g>
<!-- api -->
<g id="node13" class="node">
<title>api</title>
<polygon fill="#e0f7fa" stroke="#00838f" points="191.5,-151 40.5,-151 40.5,-95 191.5,-95 191.5,-151"/>
<text xml:space="preserve" text-anchor="middle" x="116" y="-136.55" font-family="Helvetica,sans-Serif" font-size="11.00">FastAPI</text>
<text xml:space="preserve" text-anchor="middle" x="116" y="-124.55" font-family="Helvetica,sans-Serif" font-size="11.00">━━━━━━━━━━━━</text>
<text xml:space="preserve" text-anchor="middle" x="116" y="-112.55" font-family="Helvetica,sans-Serif" font-size="11.00">/api/graph</text>
<text xml:space="preserve" text-anchor="middle" x="116" y="-100.55" font-family="Helvetica,sans-Serif" font-size="11.00">/api/visualize</text>
</g>
<!-- neo4j&#45;&gt;api -->
<g id="edge14" class="edge">
<title>neo4j&#45;&gt;api</title>
<path fill="none" stroke="#555555" d="M116,-218.5C116,-200.42 116,-179.9 116,-162.61"/>
<polygon fill="#555555" stroke="#555555" points="119.5,-162.74 116,-152.74 112.5,-162.74 119.5,-162.74"/>
<text xml:space="preserve" text-anchor="middle" x="147.5" y="-181.2" font-family="Helvetica,sans-Serif" font-size="9.00">Cypher queries</text>
</g>
<!-- viz -->
<g id="node14" class="node">
<title>viz</title>
<polygon fill="#eceff1" stroke="#37474f" points="162.62,-36 69.38,-36 69.38,0 162.62,0 162.62,-36"/>
<text xml:space="preserve" text-anchor="middle" x="116" y="-19.55" font-family="Helvetica,sans-Serif" font-size="11.00">Visualization</text>
<text xml:space="preserve" text-anchor="middle" x="116" y="-7.55" font-family="Helvetica,sans-Serif" font-size="11.00">(D3.js / Deck.gl)</text>
</g>
<!-- api&#45;&gt;viz -->
<g id="edge15" class="edge">
<title>api&#45;&gt;viz</title>
<path fill="none" stroke="#555555" d="M116,-94.67C116,-80.23 116,-62.52 116,-47.87"/>
<polygon fill="#555555" stroke="#555555" points="119.5,-47.93 116,-37.93 112.5,-47.93 119.5,-47.93"/>
</g>
<!-- l1 -->
<g id="node15" class="node">
<title>l1</title>
<polygon fill="#fafafa" stroke="none" points="467.38,-1742.5 348.62,-1742.5 348.62,-1706.5 467.38,-1706.5 467.38,-1742.5"/>
<text xml:space="preserve" text-anchor="middle" x="408" y="-1721.95" font-family="Helvetica,sans-Serif" font-size="9.00">🟠 &#160;Extraction (per article)</text>
</g>
<!-- l2 -->
<g id="node16" class="node">
<title>l2</title>
<polygon fill="#fafafa" stroke="none" points="473.75,-1630.75 342.25,-1630.75 342.25,-1594.75 473.75,-1594.75 473.75,-1630.75"/>
<text xml:space="preserve" text-anchor="middle" x="408" y="-1610.2" font-family="Helvetica,sans-Serif" font-size="9.00">🟣 &#160;Resolution (cross&#45;article)</text>
</g>
<!-- l1&#45;&gt;l2 -->
<!-- l3 -->
<g id="node17" class="node">
<title>l3</title>
<polygon fill="#fafafa" stroke="none" points="465.88,-1488.75 350.12,-1488.75 350.12,-1452.75 465.88,-1452.75 465.88,-1488.75"/>
<text xml:space="preserve" text-anchor="middle" x="408" y="-1468.2" font-family="Helvetica,sans-Serif" font-size="9.00">🔵 &#160;Temporal + Inference</text>
</g>
<!-- l2&#45;&gt;l3 -->
<!-- l4 -->
<g id="node18" class="node">
<title>l4</title>
<polygon fill="#fafafa" stroke="none" points="438.88,-1327.88 377.12,-1327.88 377.12,-1291.88 438.88,-1291.88 438.88,-1327.88"/>
<text xml:space="preserve" text-anchor="middle" x="408" y="-1307.33" font-family="Helvetica,sans-Serif" font-size="9.00">🟢 &#160;Scraper</text>
</g>
<!-- l3&#45;&gt;l4 -->
<!-- l5 -->
<g id="node19" class="node">
<title>l5</title>
<polygon fill="#fafafa" stroke="none" points="438.88,-1175.25 377.12,-1175.25 377.12,-1139.25 438.88,-1139.25 438.88,-1175.25"/>
<text xml:space="preserve" text-anchor="middle" x="408" y="-1154.7" font-family="Helvetica,sans-Serif" font-size="9.00">🔴 &#160;Storage</text>
</g>
<!-- l4&#45;&gt;l5 -->
</g>
</svg>
