<?xml version="1.0" encoding="UTF-8" standalone="no"?>
<!DOCTYPE svg PUBLIC "-//W3C//DTD SVG 1.1//EN"
 "http://www.w3.org/Graphics/SVG/1.1/DTD/svg11.dtd">
<!-- Generated by graphviz version 14.1.1 (20251213.1925)
 -->
<!-- Title: architecture Pages: 1 -->
<svg width="1933pt" height="1908pt"
 viewBox="0.00 0.00 1933.00 1908.00" xmlns="http://www.w3.org/2000/svg" xmlns:xlink="http://www.w3.org/1999/xlink">
<g id="graph0" class="graph" transform="scale(1 1) rotate(0) translate(36 1872)">
<title>architecture</title>
<polygon fill="white" stroke="none" points="-36,36 -36,-1872 1897.12,-1872 1897.12,36 -36,36"/>
<g id="clust1" class="cluster">
<title>cluster_sources</title>
<polygon fill="white" stroke="#888888" stroke-dasharray="5,2" points="1347.12,-1745 1347.12,-1828 1473.12,-1828 1473.12,-1745 1347.12,-1745"/>
<text xml:space="preserve" text-anchor="middle" x="1410.12" y="-1810.7" font-family="Helvetica,sans-Serif" font-size="14.00" fill="#555555">Data Sources</text>
</g>
<g id="clust2" class="cluster">
<title>cluster_extraction</title>
<polygon fill="#fff8e1" stroke="#f9a825" points="1116.12,-1103.5 1116.12,-1558.5 1418.12,-1558.5 1418.12,-1103.5 1116.12,-1103.5"/>
<text xml:space="preserve" text-anchor="middle" x="1217.12" y="-1541.2" font-family="Helvetica,sans-Serif" font-size="14.00" fill="#e65100"> &#160;Extraction Agent (per article) &#160;</text>
</g>
<g id="clust3" class="cluster">
<title>cluster_resolution</title>
<polygon fill="#f3e5f5" stroke="#7b1fa2" points="242.12,-641.75 242.12,-1064.75 532.12,-1064.75 532.12,-641.75 242.12,-641.75"/>
<text xml:space="preserve" text-anchor="middle" x="351.75" y="-1047.45" font-family="Helvetica,sans-Serif" font-size="14.00" fill="#4a148c"> &#160;Resolution Agent (cross&#45;article) &#160;</text>
</g>
<g id="clust4" class="cluster">
<title>cluster_api</title>
<polygon fill="#e0f7fa" stroke="#00838f" points="360.12,-165.25 360.12,-260.25 722.12,-260.25 722.12,-165.25 360.12,-165.25"/>
<text xml:space="preserve" text-anchor="middle" x="427.75" y="-242.95" font-family="Helvetica,sans-Serif" font-size="14.00" fill="#006064"> &#160;FastAPI Backend &#160;</text>
</g>
<g id="clust5" class="cluster">
<title>cluster_chat</title>
<polygon fill="#fff3e0" stroke="#e65100" points="786.12,-316.62 786.12,-915.75 1215.12,-915.75 1215.12,-316.62 786.12,-316.62"/>
<text xml:space="preserve" text-anchor="middle" x="875.88" y="-898.45" font-family="Helvetica,sans-Serif" font-size="14.00" fill="#bf360c"> &#160;Chat Agent (LangGraph) &#160;</text>
</g>
<g id="clust6" class="cluster">
<title>cluster_frontend</title>
<polygon fill="#eceff1" stroke="#37474f" points="282.12,-8 282.12,-129.25 767.12,-129.25 767.12,-8 282.12,-8"/>
<text xml:space="preserve" text-anchor="middle" x="324.62" y="-111.95" font-family="Helvetica,sans-Serif" font-size="14.00" fill="#263238"> &#160;Frontend &#160;</text>
</g>
<g id="clust7" class="cluster">
<title>cluster_legend</title>
<polygon fill="#fafafa" stroke="#cccccc" points="1705.12,-814.75 1705.12,-1820.25 1853.12,-1820.25 1853.12,-814.75 1705.12,-814.75"/>
<text xml:space="preserve" text-anchor="middle" x="1779.12" y="-1806.75" font-family="Helvetica,sans-Serif" font-size="10.00">Legend</text>
</g>
<!-- rss -->
<g id="node1" class="node">
<title>rss</title>
<polygon fill="#e3f2fd" stroke="#1565c0" points="1465.38,-1797 1354.88,-1797 1354.88,-1753 1465.38,-1753 1465.38,-1797"/>
<text xml:space="preserve" text-anchor="middle" x="1410.12" y="-1782.55" font-family="Helvetica,sans-Serif" font-size="11.00">RSS Feeds</text>
<text xml:space="preserve" text-anchor="middle" x="1410.12" y="-1770.55" font-family="Helvetica,sans-Serif" font-size="11.00">(TOI, NDTV, Hindu,</text>
<text xml:space="preserve" text-anchor="middle" x="1410.12" y="-1758.55" font-family="Helvetica,sans-Serif" font-size="11.00">ET, Livemint, ...)</text>
</g>
<!-- scraper -->
<g id="node2" class="node">
<title>scraper</title>
<polygon fill="#e8f5e9" stroke="#2e7d32" points="1513.75,-1685.25 1306.5,-1685.25 1306.5,-1605.25 1513.75,-1605.25 1513.75,-1685.25"/>
<text xml:space="preserve" text-anchor="middle" x="1410.12" y="-1670.8" font-family="Helvetica,sans-Serif" font-size="11.00">Scraper</text>
<text xml:space="preserve" text-anchor="middle" x="1410.12" y="-1658.8" font-family="Helvetica,sans-Serif" font-size="11.00">(news_rss.py)</text>
<text xml:space="preserve" text-anchor="middle" x="1410.12" y="-1646.8" font-family="Helvetica,sans-Serif" font-size="11.00">━━━━━━━━━━━━━━━━━</text>
<text xml:space="preserve" text-anchor="middle" x="1410.12" y="-1634.8" font-family="Helvetica,sans-Serif" font-size="11.00">Fetch RSS + full text</text>
<text xml:space="preserve" text-anchor="middle" x="1410.12" y="-1622.8" font-family="Helvetica,sans-Serif" font-size="11.00">Title&#45;based dedup</text>
<text xml:space="preserve" text-anchor="middle" x="1410.12" y="-1610.8" font-family="Helvetica,sans-Serif" font-size="11.00">max_per_feed limiter</text>
</g>
<!-- rss&#45;&gt;scraper -->
<g id="edge9" class="edge">
<title>rss&#45;&gt;scraper</title>
<path fill="none" stroke="#555555" d="M1410.12,-1752.62C1410.12,-1737.43 1410.12,-1716.37 1410.12,-1697"/>
<polygon fill="#555555" stroke="#555555" points="1413.63,-1697.05 1410.13,-1687.05 1406.63,-1697.05 1413.63,-1697.05"/>
<text xml:space="preserve" text-anchor="middle" x="1421.75" y="-1715.45" font-family="Helvetica,sans-Serif" font-size="9.00">URLs</text>
</g>
<!-- gliner -->
<g id="node3" class="node">
<title>gliner</title>
<polygon fill="#fff3e0" stroke="#ef6c00" points="1383,-1527.5 1153.25,-1527.5 1153.25,-1431 1383,-1431 1383,-1527.5"/>
<text xml:space="preserve" text-anchor="middle" x="1268.12" y="-1513.05" font-family="Helvetica,sans-Serif" font-size="11.00">Phase A: GLiNER2 (205M)</text>
<text xml:space="preserve" text-anchor="middle" x="1268.12" y="-1501.05" font-family="Helvetica,sans-Serif" font-size="11.00">━━━━━━━━━━━━━━━━━━━</text>
<text xml:space="preserve" text-anchor="middle" x="1268.12" y="-1489.05" font-family="Helvetica,sans-Serif" font-size="11.00">• NER → 9 entity types</text>
<text xml:space="preserve" text-anchor="middle" x="1268.12" y="-1474.8" font-family="Helvetica,sans-Serif" font-size="11.00">• RE → 26 relation types</text>
<text xml:space="preserve" text-anchor="middle" x="1268.12" y="-1460.55" font-family="Helvetica,sans-Serif" font-size="11.00">• ~50ms/article, CPU</text>
<text xml:space="preserve" text-anchor="middle" x="1268.12" y="-1448.55" font-family="Helvetica,sans-Serif" font-size="11.00">• Text&#45;span grounded</text>
<text xml:space="preserve" text-anchor="middle" x="1268.12" y="-1436.55" font-family="Helvetica,sans-Serif" font-size="11.00">• Confidence scores per entity</text>
</g>
<!-- scraper&#45;&gt;gliner -->
<g id="edge11" class="edge">
<title>scraper&#45;&gt;gliner</title>
<path fill="none" stroke="#555555" d="M1376.11,-1604.97C1358.36,-1584.47 1336.33,-1559.02 1316.8,-1536.47"/>
<polygon fill="#555555" stroke="#555555" points="1319.64,-1534.4 1310.45,-1529.13 1314.35,-1538.98 1319.64,-1534.4"/>
<text xml:space="preserve" text-anchor="middle" x="1368.25" y="-1567.7" font-family="Helvetica,sans-Serif" font-size="9.00">list[Article]</text>
</g>
<!-- article_db -->
<g id="node10" class="node">
<title>article_db</title>
<path fill="#e0f2f1" stroke="#00695c" d="M1678.25,-1510.75C1678.25,-1514.61 1621.72,-1517.75 1552.12,-1517.75 1482.53,-1517.75 1426,-1514.61 1426,-1510.75 1426,-1510.75 1426,-1447.75 1426,-1447.75 1426,-1443.89 1482.53,-1440.75 1552.12,-1440.75 1621.72,-1440.75 1678.25,-1443.89 1678.25,-1447.75 1678.25,-1447.75 1678.25,-1510.75 1678.25,-1510.75"/>
<path fill="none" stroke="#00695c" d="M1678.25,-1510.75C1678.25,-1506.89 1621.72,-1503.75 1552.12,-1503.75 1482.53,-1503.75 1426,-1506.89 1426,-1510.75"/>
<text xml:space="preserve" text-anchor="middle" x="1552.12" y="-1492.8" font-family="Helvetica,sans-Serif" font-size="11.00">Article Dedup</text>
<text xml:space="preserve" text-anchor="middle" x="1552.12" y="-1480.8" font-family="Helvetica,sans-Serif" font-size="11.00">(Postgres: scraped_article)</text>
<text xml:space="preserve" text-anchor="middle" x="1552.12" y="-1468.8" font-family="Helvetica,sans-Serif" font-size="11.00">━━━━━━━━━━━━━━━━━━━━━</text>
<text xml:space="preserve" text-anchor="middle" x="1552.12" y="-1456.8" font-family="Helvetica,sans-Serif" font-size="11.00">URL + title dedup</text>
</g>
<!-- scraper&#45;&gt;article_db -->
<g id="edge10" class="edge">
<title>scraper&#45;&gt;article_db</title>
<path fill="none" stroke="#00695c" stroke-dasharray="5,2" d="M1451.57,-1596.38C1470.64,-1574.36 1493.16,-1548.35 1512.05,-1526.53"/>
<polygon fill="#00695c" stroke="#00695c" points="1449.03,-1593.97 1445.13,-1603.82 1454.32,-1598.55 1449.03,-1593.97"/>
<polygon fill="#00695c" stroke="#00695c" points="1514.48,-1529.08 1518.38,-1519.23 1509.19,-1524.5 1514.48,-1529.08"/>
<text xml:space="preserve" text-anchor="middle" x="1503.12" y="-1567.7" font-family="Helvetica,sans-Serif" font-size="9.00">dedup check</text>
</g>
<!-- canon -->
<g id="node4" class="node">
<title>canon</title>
<polygon fill="#fff3e0" stroke="#ef6c00" points="1410.12,-1353.5 1124.12,-1353.5 1124.12,-1257 1410.12,-1257 1410.12,-1353.5"/>
<text xml:space="preserve" text-anchor="middle" x="1267.12" y="-1339.05" font-family="Helvetica,sans-Serif" font-size="11.00">Phase B: LLM Canonicalization</text>
<text xml:space="preserve" text-anchor="middle" x="1267.12" y="-1327.05" font-family="Helvetica,sans-Serif" font-size="11.00">+ Type Correction</text>
<text xml:space="preserve" text-anchor="middle" x="1267.12" y="-1315.05" font-family="Helvetica,sans-Serif" font-size="11.00">━━━━━━━━━━━━━━━━━━━━━━━━</text>
<text xml:space="preserve" text-anchor="middle" x="1267.12" y="-1303.05" font-family="Helvetica,sans-Serif" font-size="11.00">• Raw spans → canonical names</text>
<text xml:space="preserve" text-anchor="middle" x="1267.12" y="-1288.8" font-family="Helvetica,sans-Serif" font-size="11.00">• Generate aliases</text>
<text xml:space="preserve" text-anchor="middle" x="1267.12" y="-1276.8" font-family="Helvetica,sans-Serif" font-size="11.00">• Confidence &lt; 0.8 → verify type</text>
<text xml:space="preserve" text-anchor="middle" x="1267.12" y="-1262.55" font-family="Helvetica,sans-Serif" font-size="11.00">• ~500 tokens, lightweight</text>
</g>
<!-- gliner&#45;&gt;canon -->
<g id="edge1" class="edge">
<title>gliner&#45;&gt;canon</title>
<path fill="none" stroke="#e65100" d="M1267.85,-1430.79C1267.73,-1410.48 1267.59,-1386.55 1267.47,-1365.12"/>
<polygon fill="#e65100" stroke="#e65100" points="1270.97,-1365.34 1267.41,-1355.36 1263.97,-1365.38 1270.97,-1365.34"/>
<text xml:space="preserve" text-anchor="middle" x="1311.53" y="-1393.45" font-family="Helvetica,sans-Serif" font-size="9.00" fill="#e65100">entities w/ confidence</text>
<text xml:space="preserve" text-anchor="middle" x="1311.53" y="-1383.7" font-family="Helvetica,sans-Serif" font-size="9.00" fill="#e65100">+ relations</text>
</g>
<!-- enrich -->
<g id="node5" class="node">
<title>enrich</title>
<polygon fill="#fff3e0" stroke="#ef6c00" points="1381.25,-1179.5 1129,-1179.5 1129,-1111.5 1381.25,-1111.5 1381.25,-1179.5"/>
<text xml:space="preserve" text-anchor="middle" x="1255.12" y="-1165.05" font-family="Helvetica,sans-Serif" font-size="11.00">Phase C: LLM Enrichment</text>
<text xml:space="preserve" text-anchor="middle" x="1255.12" y="-1153.05" font-family="Helvetica,sans-Serif" font-size="11.00">━━━━━━━━━━━━━━━━━━━━━</text>
<text xml:space="preserve" text-anchor="middle" x="1255.12" y="-1141.05" font-family="Helvetica,sans-Serif" font-size="11.00">• Causal flag classification</text>
<text xml:space="preserve" text-anchor="middle" x="1255.12" y="-1129.05" font-family="Helvetica,sans-Serif" font-size="11.00">• Temporal marker attachment</text>
<text xml:space="preserve" text-anchor="middle" x="1255.12" y="-1117.05" font-family="Helvetica,sans-Serif" font-size="11.00">• Event extraction (max 5)</text>
</g>
<!-- canon&#45;&gt;enrich -->
<g id="edge2" class="edge">
<title>canon&#45;&gt;enrich</title>
<path fill="none" stroke="#e65100" d="M1263.52,-1256.92C1261.94,-1236.04 1260.08,-1211.62 1258.51,-1191.06"/>
<polygon fill="#e65100" stroke="#e65100" points="1262.02,-1190.99 1257.77,-1181.29 1255.04,-1191.52 1262.02,-1190.99"/>
<text xml:space="preserve" text-anchor="middle" x="1289.62" y="-1219.45" font-family="Helvetica,sans-Serif" font-size="9.00" fill="#e65100">canonicalized</text>
<text xml:space="preserve" text-anchor="middle" x="1289.62" y="-1209.7" font-family="Helvetica,sans-Serif" font-size="9.00" fill="#e65100">entities + rels</text>
</g>
<!-- groq -->
<g id="node22" class="node">
<title>groq</title>
<polygon fill="#fffde7" stroke="#f57f17" points="1339,-235.25 1113.25,-235.25 1109.25,-231.25 1109.25,-167.25 1335,-167.25 1339,-171.25 1339,-235.25"/>
<polyline fill="none" stroke="#f57f17" points="1335,-231.25 1109.25,-231.25"/>
<polyline fill="none" stroke="#f57f17" points="1335,-231.25 1335,-167.25"/>
<polyline fill="none" stroke="#f57f17" points="1335,-231.25 1339,-235.25"/>
<text xml:space="preserve" text-anchor="middle" x="1224.12" y="-220.8" font-family="Helvetica,sans-Serif" font-size="11.00">Groq API</text>
<text xml:space="preserve" text-anchor="middle" x="1224.12" y="-208.8" font-family="Helvetica,sans-Serif" font-size="11.00">(openai/gpt&#45;oss&#45;20b)</text>
<text xml:space="preserve" text-anchor="middle" x="1224.12" y="-196.8" font-family="Helvetica,sans-Serif" font-size="11.00">━━━━━━━━━━━━━━━━━━━</text>
<text xml:space="preserve" text-anchor="middle" x="1224.12" y="-184.8" font-family="Helvetica,sans-Serif" font-size="11.00">Structured output</text>
<text xml:space="preserve" text-anchor="middle" x="1224.12" y="-172.8" font-family="Helvetica,sans-Serif" font-size="11.00">(json_schema mode)</text>
</g>
<!-- canon&#45;&gt;groq -->
<g id="edge25" class="edge">
<title>canon&#45;&gt;groq</title>
<path fill="none" stroke="#f57f17" stroke-dasharray="5,2" d="M1379.69,-1250.31C1415.56,-1224.86 1446.12,-1190.32 1446.12,-1146.5 1446.12,-1146.5 1446.12,-1146.5 1446.12,-352.75 1446.12,-298.41 1399.98,-262.33 1349.77,-239.17"/>
<polygon fill="#f57f17" stroke="#f57f17" points="1378.02,-1247.21 1371.72,-1255.73 1381.96,-1253 1378.02,-1247.21"/>
<polygon fill="#f57f17" stroke="#f57f17" points="1351.3,-236.01 1340.74,-235.17 1348.47,-242.41 1351.3,-236.01"/>
</g>
<!-- tier1 -->
<g id="node6" class="node">
<title>tier1</title>
<polygon fill="#f8eaf6" stroke="#7b1fa2" points="491,-1033.75 261.25,-1033.75 261.25,-953.75 491,-953.75 491,-1033.75"/>
<text xml:space="preserve" text-anchor="middle" x="376.12" y="-1019.3" font-family="Helvetica,sans-Serif" font-size="11.00">Tier 1: Deterministic</text>
<text xml:space="preserve" text-anchor="middle" x="376.12" y="-1007.3" font-family="Helvetica,sans-Serif" font-size="11.00">━━━━━━━━━━━━━━━━━━━</text>
<text xml:space="preserve" text-anchor="middle" x="376.12" y="-995.3" font-family="Helvetica,sans-Serif" font-size="11.00">• Alias table (Postgres)</text>
<text xml:space="preserve" text-anchor="middle" x="376.12" y="-983.3" font-family="Helvetica,sans-Serif" font-size="11.00">• Acronym expansion</text>
<text xml:space="preserve" text-anchor="middle" x="376.12" y="-971.3" font-family="Helvetica,sans-Serif" font-size="11.00">• LLM&#45;provided aliases</text>
<text xml:space="preserve" text-anchor="middle" x="376.12" y="-959.3" font-family="Helvetica,sans-Serif" font-size="11.00">• O(N), no LLM</text>
</g>
<!-- enrich&#45;&gt;tier1 -->
<g id="edge12" class="edge">
<title>enrich&#45;&gt;tier1</title>
<path fill="none" stroke="#555555" d="M1128.72,-1122.96C961.77,-1094.52 669.44,-1044.72 502.5,-1016.28"/>
<polygon fill="#555555" stroke="#555555" points="503.13,-1012.84 492.69,-1014.61 501.96,-1019.74 503.13,-1012.84"/>
<text xml:space="preserve" text-anchor="middle" x="909.13" y="-1073.95" font-family="Helvetica,sans-Serif" font-size="9.00">list[ArticleExtraction]</text>
</g>
<!-- enrich&#45;&gt;groq -->
<g id="edge26" class="edge">
<title>enrich&#45;&gt;groq</title>
<path fill="none" stroke="#f57f17" stroke-dasharray="5,2" d="M1303.87,-1103.38C1330.91,-1075.82 1359.12,-1036.96 1359.12,-994.75 1359.12,-994.75 1359.12,-994.75 1359.12,-352.75 1359.12,-307 1324.12,-268.82 1289.77,-242.36"/>
<polygon fill="#f57f17" stroke="#f57f17" points="1301.68,-1100.62 1297.01,-1110.13 1306.59,-1105.61 1301.68,-1100.62"/>
<polygon fill="#f57f17" stroke="#f57f17" points="1291.93,-239.61 1281.81,-236.45 1287.75,-245.23 1291.93,-239.61"/>
</g>
<!-- tier2 -->
<g id="node7" class="node">
<title>tier2</title>
<polygon fill="#f8eaf6" stroke="#7b1fa2" points="485.38,-881.88 266.88,-881.88 266.88,-799.62 485.38,-799.62 485.38,-881.88"/>
<text xml:space="preserve" text-anchor="middle" x="376.12" y="-867.42" font-family="Helvetica,sans-Serif" font-size="11.00">Tier 2: Embeddings</text>
<text xml:space="preserve" text-anchor="middle" x="376.12" y="-855.42" font-family="Helvetica,sans-Serif" font-size="11.00">━━━━━━━━━━━━━━━━━━</text>
<text xml:space="preserve" text-anchor="middle" x="376.12" y="-843.42" font-family="Helvetica,sans-Serif" font-size="11.00">• all&#45;MiniLM&#45;L6&#45;v2</text>
<text xml:space="preserve" text-anchor="middle" x="376.12" y="-831.42" font-family="Helvetica,sans-Serif" font-size="11.00">• Type&#45;blocked similarity</text>
<text xml:space="preserve" text-anchor="middle" x="376.12" y="-819.42" font-family="Helvetica,sans-Serif" font-size="11.00">• &gt;0.95 → auto&#45;merge</text>
<text xml:space="preserve" text-anchor="middle" x="376.12" y="-805.17" font-family="Helvetica,sans-Serif" font-size="11.00">• O(N log N), no LLM</text>
</g>
<!-- tier1&#45;&gt;tier2 -->
<g id="edge3" class="edge">
<title>tier1&#45;&gt;tier2</title>
<path fill="none" stroke="#7b1fa2" d="M376.12,-953.47C376.12,-935.14 376.12,-913.07 376.12,-893.4"/>
<polygon fill="#7b1fa2" stroke="#7b1fa2" points="379.63,-893.66 376.13,-883.66 372.63,-893.66 379.63,-893.66"/>
</g>
<!-- merge_table -->
<g id="node9" class="node">
<title>merge_table</title>
<path fill="#e0f2f1" stroke="#00695c" d="M252.25,-563C252.25,-567.69 195.72,-571.5 126.12,-571.5 56.53,-571.5 0,-567.69 0,-563 0,-563 0,-486.5 0,-486.5 0,-481.81 56.53,-478 126.12,-478 195.72,-478 252.25,-481.81 252.25,-486.5 252.25,-486.5 252.25,-563 252.25,-563"/>
<path fill="none" stroke="#00695c" d="M252.25,-563C252.25,-558.31 195.72,-554.5 126.12,-554.5 56.53,-554.5 0,-558.31 0,-563"/>
<text xml:space="preserve" text-anchor="middle" x="126.12" y="-544.3" font-family="Helvetica,sans-Serif" font-size="11.00">Persistent Merge Table</text>
<text xml:space="preserve" text-anchor="middle" x="126.12" y="-532.3" font-family="Helvetica,sans-Serif" font-size="11.00">(Postgres: entity_alias)</text>
<text xml:space="preserve" text-anchor="middle" x="126.12" y="-520.3" font-family="Helvetica,sans-Serif" font-size="11.00">━━━━━━━━━━━━━━━━━━━━━</text>
<text xml:space="preserve" text-anchor="middle" x="126.12" y="-508.3" font-family="Helvetica,sans-Serif" font-size="11.00">typed + untyped aliases</text>
<text xml:space="preserve" text-anchor="middle" x="126.12" y="-496.3" font-family="Helvetica,sans-Serif" font-size="11.00">O(1) lookup</text>
</g>
<!-- tier1&#45;&gt;merge_table -->
<g id="edge13" class="edge">
<title>tier1&#45;&gt;merge_table</title>
<path fill="none" stroke="#00695c" stroke-dasharray="5,2" d="M282.97,-947.23C269.26,-938.02 256.09,-927.5 245.12,-915.75 149.21,-813.01 148.15,-759.75 133.12,-620 131.85,-608.13 130.73,-595.4 129.79,-583.25"/>
<polygon fill="#00695c" stroke="#00695c" points="280.94,-950.09 291.24,-952.57 284.74,-944.21 280.94,-950.09"/>
<polygon fill="#00695c" stroke="#00695c" points="133.28,-583.05 129.05,-573.33 126.3,-583.57 133.28,-583.05"/>
<text xml:space="preserve" text-anchor="middle" x="169.19" y="-759.2" font-family="Helvetica,sans-Serif" font-size="9.00" fill="#00695c">save</text>
<text xml:space="preserve" text-anchor="middle" x="169.19" y="-749.45" font-family="Helvetica,sans-Serif" font-size="9.00" fill="#00695c">aliases</text>
</g>
<!-- tier3 -->
<g id="node8" class="node">
<title>tier3</title>
<polygon fill="#f8eaf6" stroke="#7b1fa2" points="524.5,-718.5 249.75,-718.5 249.75,-649.75 524.5,-649.75 524.5,-718.5"/>
<text xml:space="preserve" text-anchor="middle" x="387.12" y="-704.05" font-family="Helvetica,sans-Serif" font-size="11.00">Tier 3: LLM Disambiguation</text>
<text xml:space="preserve" text-anchor="middle" x="387.12" y="-692.05" font-family="Helvetica,sans-Serif" font-size="11.00">━━━━━━━━━━━━━━━━━━━━━━━</text>
<text xml:space="preserve" text-anchor="middle" x="387.12" y="-680.05" font-family="Helvetica,sans-Serif" font-size="11.00">• Ambiguous pairs (0.80&#45;0.95)</text>
<text xml:space="preserve" text-anchor="middle" x="387.12" y="-668.05" font-family="Helvetica,sans-Serif" font-size="11.00">• Batch 20 pairs per call</text>
<text xml:space="preserve" text-anchor="middle" x="387.12" y="-656.05" font-family="Helvetica,sans-Serif" font-size="11.00">• O(K), K ≪ N</text>
</g>
<!-- tier2&#45;&gt;tier3 -->
<g id="edge4" class="edge">
<title>tier2&#45;&gt;tier3</title>
<path fill="none" stroke="#7b1fa2" d="M378.99,-799.53C380.5,-778.29 382.36,-752.16 383.92,-730.23"/>
<polygon fill="#7b1fa2" stroke="#7b1fa2" points="387.4,-730.61 384.62,-720.38 380.42,-730.11 387.4,-730.61"/>
<text xml:space="preserve" text-anchor="middle" x="413.36" y="-759.2" font-family="Helvetica,sans-Serif" font-size="9.00" fill="#4a148c">candidates</text>
<text xml:space="preserve" text-anchor="middle" x="413.36" y="-749.45" font-family="Helvetica,sans-Serif" font-size="9.00" fill="#4a148c">(sim 0.80&#45;0.95)</text>
</g>
<!-- tier2&#45;&gt;merge_table -->
<g id="edge14" class="edge">
<title>tier2&#45;&gt;merge_table</title>
<path fill="none" stroke="#00695c" stroke-dasharray="5,2" d="M285.89,-793.49C254.93,-774.02 222.23,-748.93 198.88,-719.25 167.36,-679.2 148.43,-624.06 137.81,-582.88"/>
<polygon fill="#00695c" stroke="#00695c" points="283.79,-796.31 294.14,-798.56 287.45,-790.34 283.79,-796.31"/>
<polygon fill="#00695c" stroke="#00695c" points="141.26,-582.26 135.46,-573.4 134.47,-583.94 141.26,-582.26"/>
<text xml:space="preserve" text-anchor="middle" x="213.5" y="-685.33" font-family="Helvetica,sans-Serif" font-size="9.00" fill="#00695c">save</text>
<text xml:space="preserve" text-anchor="middle" x="213.5" y="-675.58" font-family="Helvetica,sans-Serif" font-size="9.00" fill="#00695c">aliases</text>
</g>
<!-- tier3&#45;&gt;merge_table -->
<g id="edge15" class="edge">
<title>tier3&#45;&gt;merge_table</title>
<path fill="none" stroke="#00695c" stroke-dasharray="5,2" d="M331.13,-649.36C296.34,-628.38 250.91,-600.99 211.66,-577.33"/>
<polygon fill="#00695c" stroke="#00695c" points="213.5,-574.35 203.13,-572.18 209.88,-580.34 213.5,-574.35"/>
<text xml:space="preserve" text-anchor="middle" x="294.63" y="-611.45" font-family="Helvetica,sans-Serif" font-size="9.00" fill="#00695c">save</text>
<text xml:space="preserve" text-anchor="middle" x="294.63" y="-601.7" font-family="Helvetica,sans-Serif" font-size="9.00" fill="#00695c">aliases</text>
</g>
<!-- temporal -->
<g id="node11" class="node">
<title>temporal</title>
<polygon fill="#e8eaf6" stroke="#283593" points="502.75,-558.75 295.5,-558.75 295.5,-490.75 502.75,-490.75 502.75,-558.75"/>
<text xml:space="preserve" text-anchor="middle" x="399.12" y="-544.3" font-family="Helvetica,sans-Serif" font-size="11.00">Temporal Agent</text>
<text xml:space="preserve" text-anchor="middle" x="399.12" y="-532.3" font-family="Helvetica,sans-Serif" font-size="11.00">━━━━━━━━━━━━━━━━━</text>
<text xml:space="preserve" text-anchor="middle" x="399.12" y="-520.3" font-family="Helvetica,sans-Serif" font-size="11.00">• State tracking</text>
<text xml:space="preserve" text-anchor="middle" x="399.12" y="-508.3" font-family="Helvetica,sans-Serif" font-size="11.00">• Date attachment</text>
<text xml:space="preserve" text-anchor="middle" x="399.12" y="-496.3" font-family="Helvetica,sans-Serif" font-size="11.00">• current vs historical</text>
</g>
<!-- tier3&#45;&gt;temporal -->
<g id="edge16" class="edge">
<title>tier3&#45;&gt;temporal</title>
<path fill="none" stroke="#555555" d="M389.7,-649.36C391.45,-626.36 393.79,-595.66 395.7,-570.61"/>
<polygon fill="#555555" stroke="#555555" points="399.19,-570.93 396.46,-560.69 392.21,-570.4 399.19,-570.93"/>
<text xml:space="preserve" text-anchor="middle" x="434" y="-606.58" font-family="Helvetica,sans-Serif" font-size="9.00">resolved extractions</text>
</g>
<!-- tier3&#45;&gt;groq -->
<g id="edge27" class="edge">
<title>tier3&#45;&gt;groq</title>
<path fill="none" stroke="#f57f17" stroke-dasharray="5,2" d="M513.72,-645.26C557.75,-627.78 605.28,-603.62 642.12,-571.5 690.24,-529.55 688.54,-506.08 717.12,-449 755.84,-371.68 721.41,-322.03 789.12,-268.25 835.68,-231.28 986.44,-214.87 1097.47,-207.68"/>
<polygon fill="#f57f17" stroke="#f57f17" points="512.68,-641.91 504.62,-648.79 515.21,-648.44 512.68,-641.91"/>
<polygon fill="#f57f17" stroke="#f57f17" points="1097.49,-211.19 1107.26,-207.07 1097.06,-204.2 1097.49,-211.19"/>
</g>
<!-- neo4j -->
<g id="node12" class="node">
<title>neo4j</title>
<path fill="#fce4ec" stroke="#c62828" d="M516.75,-392C516.75,-396.69 470.3,-400.5 413.12,-400.5 355.95,-400.5 309.5,-396.69 309.5,-392 309.5,-392 309.5,-315.5 309.5,-315.5 309.5,-310.81 355.95,-307 413.12,-307 470.3,-307 516.75,-310.81 516.75,-315.5 516.75,-315.5 516.75,-392 516.75,-392"/>
<path fill="none" stroke="#c62828" d="M516.75,-392C516.75,-387.31 470.3,-383.5 413.12,-383.5 355.95,-383.5 309.5,-387.31 309.5,-392"/>
<text xml:space="preserve" text-anchor="middle" x="413.12" y="-373.3" font-family="Helvetica,sans-Serif" font-size="11.00">Neo4j Graph DB</text>
<text xml:space="preserve" text-anchor="middle" x="413.12" y="-361.3" font-family="Helvetica,sans-Serif" font-size="11.00">━━━━━━━━━━━━━━━━━</text>
<text xml:space="preserve" text-anchor="middle" x="413.12" y="-349.3" font-family="Helvetica,sans-Serif" font-size="11.00">Entity, Event, Article</text>
<text xml:space="preserve" text-anchor="middle" x="413.12" y="-337.3" font-family="Helvetica,sans-Serif" font-size="11.00">nodes + RELATES_TO,</text>
<text xml:space="preserve" text-anchor="middle" x="413.12" y="-325.3" font-family="Helvetica,sans-Serif" font-size="11.00">INVOLVED_IN, EVIDENCES</text>
</g>
<!-- temporal&#45;&gt;neo4j -->
<g id="edge17" class="edge">
<title>temporal&#45;&gt;neo4j</title>
<path fill="none" stroke="#555555" d="M401.89,-490.36C403.74,-468.07 406.21,-438.18 408.37,-412.14"/>
<polygon fill="#555555" stroke="#555555" points="411.84,-412.63 409.18,-402.37 404.87,-412.05 411.84,-412.63"/>
<text xml:space="preserve" text-anchor="middle" x="429.42" y="-435.57" font-family="Helvetica,sans-Serif" font-size="9.00">write graph</text>
</g>
<!-- api_graph -->
<g id="node13" class="node">
<title>api_graph</title>
<polygon fill="#b2ebf2" stroke="#00838f" points="519.62,-229.25 368.62,-229.25 368.62,-173.25 519.62,-173.25 519.62,-229.25"/>
<text xml:space="preserve" text-anchor="middle" x="444.12" y="-214.8" font-family="Helvetica,sans-Serif" font-size="11.00">/api/graph</text>
<text xml:space="preserve" text-anchor="middle" x="444.12" y="-202.8" font-family="Helvetica,sans-Serif" font-size="11.00">━━━━━━━━━━━━</text>
<text xml:space="preserve" text-anchor="middle" x="444.12" y="-190.8" font-family="Helvetica,sans-Serif" font-size="11.00">Graph data for</text>
<text xml:space="preserve" text-anchor="middle" x="444.12" y="-178.8" font-family="Helvetica,sans-Serif" font-size="11.00">visualization</text>
</g>
<!-- neo4j&#45;&gt;api_graph -->
<g id="edge18" class="edge">
<title>neo4j&#45;&gt;api_graph</title>
<path fill="none" stroke="#555555" d="M422.59,-306.78C426.94,-285.68 432.04,-260.94 436.18,-240.83"/>
<polygon fill="#555555" stroke="#555555" points="439.6,-241.56 438.19,-231.06 432.74,-240.15 439.6,-241.56"/>
<text xml:space="preserve" text-anchor="middle" x="445.48" y="-269.45" font-family="Helvetica,sans-Serif" font-size="9.00">Cypher</text>
</g>
<!-- viz -->
<g id="node20" class="node">
<title>viz</title>
<polygon fill="#cfd8dc" stroke="#37474f" points="520,-98.25 290.25,-98.25 290.25,-16 520,-16 520,-98.25"/>
<text xml:space="preserve" text-anchor="middle" x="405.12" y="-83.8" font-family="Helvetica,sans-Serif" font-size="11.00">Graph Visualization</text>
<text xml:space="preserve" text-anchor="middle" x="405.12" y="-71.8" font-family="Helvetica,sans-Serif" font-size="11.00">(vis&#45;network.js)</text>
<text xml:space="preserve" text-anchor="middle" x="405.12" y="-59.8" font-family="Helvetica,sans-Serif" font-size="11.00">━━━━━━━━━━━━━━━━━━━</text>
<text xml:space="preserve" text-anchor="middle" x="405.12" y="-47.8" font-family="Helvetica,sans-Serif" font-size="11.00">Interactive node/edge view</text>
<text xml:space="preserve" text-anchor="middle" x="405.12" y="-35.8" font-family="Helvetica,sans-Serif" font-size="11.00">Click → sources + rels</text>
<text xml:space="preserve" text-anchor="middle" x="405.12" y="-21.55" font-family="Helvetica,sans-Serif" font-size="11.00">Type&#45;colored nodes</text>
</g>
<!-- api_graph&#45;&gt;viz -->
<g id="edge19" class="edge">
<title>api_graph&#45;&gt;viz</title>
<path fill="none" stroke="#555555" d="M436.61,-172.85C431.69,-154.92 425.11,-130.94 419.23,-109.54"/>
<polygon fill="#555555" stroke="#555555" points="422.66,-108.8 416.64,-100.09 415.91,-110.66 422.66,-108.8"/>
</g>
<!-- api_chat -->
<g id="node14" class="node">
<title>api_chat</title>
<polygon fill="#b2ebf2" stroke="#00838f" points="713.62,-229.25 562.62,-229.25 562.62,-173.25 713.62,-173.25 713.62,-229.25"/>
<text xml:space="preserve" text-anchor="middle" x="638.12" y="-214.8" font-family="Helvetica,sans-Serif" font-size="11.00">/api/chat</text>
<text xml:space="preserve" text-anchor="middle" x="638.12" y="-202.8" font-family="Helvetica,sans-Serif" font-size="11.00">━━━━━━━━━━━━</text>
<text xml:space="preserve" text-anchor="middle" x="638.12" y="-190.8" font-family="Helvetica,sans-Serif" font-size="11.00">Conversational</text>
<text xml:space="preserve" text-anchor="middle" x="638.12" y="-178.8" font-family="Helvetica,sans-Serif" font-size="11.00">Q&amp;A endpoint</text>
</g>
<!-- router -->
<g id="node15" class="node">
<title>router</title>
<polygon fill="#ffe0b2" stroke="#e65100" points="1000.12,-884.75 894.12,-840.75 1000.12,-796.75 1106.12,-840.75 1000.12,-884.75"/>
<text xml:space="preserve" text-anchor="middle" x="1000.12" y="-848.3" font-family="Helvetica,sans-Serif" font-size="11.00">Router</text>
<text xml:space="preserve" text-anchor="middle" x="1000.12" y="-836.3" font-family="Helvetica,sans-Serif" font-size="11.00">━━━━━━━━</text>
<text xml:space="preserve" text-anchor="middle" x="1000.12" y="-824.3" font-family="Helvetica,sans-Serif" font-size="11.00">Direct / Graph?</text>
</g>
<!-- api_chat&#45;&gt;router -->
<g id="edge20" class="edge">
<title>api_chat&#45;&gt;router</title>
<path fill="none" stroke="#e65100" d="M631.64,-229.54C618.03,-292.62 591.6,-452.23 640.38,-571.5 692.59,-699.17 844.66,-778.56 933.48,-815.38"/>
<polygon fill="#e65100" stroke="#e65100" points="932.01,-818.56 942.59,-819.09 934.65,-812.07 932.01,-818.56"/>
<text xml:space="preserve" text-anchor="middle" x="661.75" y="-525.95" font-family="Helvetica,sans-Serif" font-size="9.00" fill="#bf360c">question +</text>
<text xml:space="preserve" text-anchor="middle" x="661.75" y="-516.2" font-family="Helvetica,sans-Serif" font-size="9.00" fill="#bf360c">history</text>
</g>
<!-- chat_ui -->
<g id="node21" class="node">
<title>chat_ui</title>
<polygon fill="#cfd8dc" stroke="#37474f" points="759.12,-97.12 563.12,-97.12 563.12,-17.12 759.12,-17.12 759.12,-97.12"/>
<text xml:space="preserve" text-anchor="middle" x="661.12" y="-82.67" font-family="Helvetica,sans-Serif" font-size="11.00">Chat Interface</text>
<text xml:space="preserve" text-anchor="middle" x="661.12" y="-70.67" font-family="Helvetica,sans-Serif" font-size="11.00">(/chat)</text>
<text xml:space="preserve" text-anchor="middle" x="661.12" y="-58.67" font-family="Helvetica,sans-Serif" font-size="11.00">━━━━━━━━━━━━━━━━</text>
<text xml:space="preserve" text-anchor="middle" x="661.12" y="-46.67" font-family="Helvetica,sans-Serif" font-size="11.00">Conversational Q&amp;A</text>
<text xml:space="preserve" text-anchor="middle" x="661.12" y="-34.67" font-family="Helvetica,sans-Serif" font-size="11.00">Cypher display</text>
<text xml:space="preserve" text-anchor="middle" x="661.12" y="-22.68" font-family="Helvetica,sans-Serif" font-size="11.00">Conversation history</text>
</g>
<!-- api_chat&#45;&gt;chat_ui -->
<g id="edge24" class="edge">
<title>api_chat&#45;&gt;chat_ui</title>
<path fill="none" stroke="#555555" d="M642.56,-172.85C645.49,-154.73 649.42,-130.43 652.92,-108.85"/>
<polygon fill="#555555" stroke="#555555" points="656.36,-109.46 654.51,-99.03 649.45,-108.34 656.36,-109.46"/>
</g>
<!-- cypher_gen -->
<g id="node16" class="node">
<title>cypher_gen</title>
<polygon fill="#ffe0b2" stroke="#e65100" points="1206.75,-719.25 999.5,-719.25 999.5,-649 1206.75,-649 1206.75,-719.25"/>
<text xml:space="preserve" text-anchor="middle" x="1103.12" y="-704.8" font-family="Helvetica,sans-Serif" font-size="11.00">Cypher Generator</text>
<text xml:space="preserve" text-anchor="middle" x="1103.12" y="-692.8" font-family="Helvetica,sans-Serif" font-size="11.00">━━━━━━━━━━━━━━━━━</text>
<text xml:space="preserve" text-anchor="middle" x="1103.12" y="-680.8" font-family="Helvetica,sans-Serif" font-size="11.00">NL → Cypher query</text>
<text xml:space="preserve" text-anchor="middle" x="1103.12" y="-666.55" font-family="Helvetica,sans-Serif" font-size="11.00">Schema&#45;aware prompts</text>
<text xml:space="preserve" text-anchor="middle" x="1103.12" y="-654.55" font-family="Helvetica,sans-Serif" font-size="11.00">Query templates</text>
</g>
<!-- router&#45;&gt;cypher_gen -->
<g id="edge5" class="edge">
<title>router&#45;&gt;cypher_gen</title>
<path fill="none" stroke="#e65100" d="M1022.73,-805.82C1037.79,-783.21 1057.71,-753.3 1073.96,-728.91"/>
<polygon fill="#e65100" stroke="#e65100" points="1076.75,-731.04 1079.38,-720.77 1070.92,-727.16 1076.75,-731.04"/>
<text xml:space="preserve" text-anchor="middle" x="1072.85" y="-754.33" font-family="Helvetica,sans-Serif" font-size="9.00" fill="#bf360c">graph</text>
</g>
<!-- direct -->
<g id="node19" class="node">
<title>direct</title>
<polygon fill="#ffe0b2" stroke="#e65100" points="956.25,-712.12 794,-712.12 794,-656.12 956.25,-656.12 956.25,-712.12"/>
<text xml:space="preserve" text-anchor="middle" x="875.12" y="-697.67" font-family="Helvetica,sans-Serif" font-size="11.00">Direct Answer</text>
<text xml:space="preserve" text-anchor="middle" x="875.12" y="-685.67" font-family="Helvetica,sans-Serif" font-size="11.00">━━━━━━━━━━━━━</text>
<text xml:space="preserve" text-anchor="middle" x="875.12" y="-673.67" font-family="Helvetica,sans-Serif" font-size="11.00">Greetings, meta</text>
<text xml:space="preserve" text-anchor="middle" x="875.12" y="-661.67" font-family="Helvetica,sans-Serif" font-size="11.00">questions</text>
</g>
<!-- router&#45;&gt;direct -->
<g id="edge6" class="edge">
<title>router&#45;&gt;direct</title>
<path fill="none" stroke="#e65100" d="M973.92,-807.34C953.62,-782.22 925.5,-747.44 904.45,-721.4"/>
<polygon fill="#e65100" stroke="#e65100" points="907.29,-719.34 898.28,-713.76 901.84,-723.74 907.29,-719.34"/>
<text xml:space="preserve" text-anchor="middle" x="952.62" y="-754.33" font-family="Helvetica,sans-Serif" font-size="9.00" fill="#bf360c">direct</text>
</g>
<!-- router&#45;&gt;groq -->
<g id="edge30" class="edge">
<title>router&#45;&gt;groq</title>
<path fill="none" stroke="#f57f17" stroke-dasharray="5,2" d="M1089.81,-826.72C1169.05,-809.53 1272.12,-770.73 1272.12,-685.12 1272.12,-685.12 1272.12,-685.12 1272.12,-352.75 1272.12,-315.5 1258.61,-275.41 1245.93,-245.98"/>
<polygon fill="#f57f17" stroke="#f57f17" points="1089.36,-823.24 1080.28,-828.69 1090.78,-830.09 1089.36,-823.24"/>
<polygon fill="#f57f17" stroke="#f57f17" points="1249.21,-244.74 1241.94,-237.03 1242.81,-247.59 1249.21,-244.74"/>
</g>
<!-- cypher_exec -->
<g id="node17" class="node">
<title>cypher_exec</title>
<polygon fill="#ffe0b2" stroke="#e65100" points="1107.75,-558.75 900.5,-558.75 900.5,-490.75 1107.75,-490.75 1107.75,-558.75"/>
<text xml:space="preserve" text-anchor="middle" x="1004.12" y="-544.3" font-family="Helvetica,sans-Serif" font-size="11.00">Cypher Executor</text>
<text xml:space="preserve" text-anchor="middle" x="1004.12" y="-532.3" font-family="Helvetica,sans-Serif" font-size="11.00">━━━━━━━━━━━━━━━━━</text>
<text xml:space="preserve" text-anchor="middle" x="1004.12" y="-520.3" font-family="Helvetica,sans-Serif" font-size="11.00">Run on Neo4j</text>
<text xml:space="preserve" text-anchor="middle" x="1004.12" y="-508.3" font-family="Helvetica,sans-Serif" font-size="11.00">Neighborhood enrichment</text>
<text xml:space="preserve" text-anchor="middle" x="1004.12" y="-496.3" font-family="Helvetica,sans-Serif" font-size="11.00">Safety guards</text>
</g>
<!-- cypher_gen&#45;&gt;cypher_exec -->
<g id="edge7" class="edge">
<title>cypher_gen&#45;&gt;cypher_exec</title>
<path fill="none" stroke="#e65100" d="M1081.4,-648.59C1066.63,-625.1 1046.97,-593.86 1031.18,-568.76"/>
<polygon fill="#e65100" stroke="#e65100" points="1034.21,-567.01 1025.93,-560.41 1028.29,-570.74 1034.21,-567.01"/>
</g>
<!-- cypher_gen&#45;&gt;groq -->
<g id="edge28" class="edge">
<title>cypher_gen&#45;&gt;groq</title>
<path fill="none" stroke="#f57f17" stroke-dasharray="5,2" d="M1114.62,-637.45C1137.83,-545.2 1190.04,-337.72 1212.97,-246.6"/>
<polygon fill="#f57f17" stroke="#f57f17" points="1111.24,-636.52 1112.2,-647.07 1118.03,-638.23 1111.24,-636.52"/>
<polygon fill="#f57f17" stroke="#f57f17" points="1216.33,-247.58 1215.37,-237.03 1209.54,-245.87 1216.33,-247.58"/>
</g>
<!-- cypher_exec&#45;&gt;neo4j -->
<g id="edge21" class="edge">
<title>cypher_exec&#45;&gt;neo4j</title>
<path fill="none" stroke="#c62828" stroke-dasharray="5,2" d="M908.37,-490.28C852.84,-471.38 781.4,-447.93 717.12,-429.5 655.04,-411.7 585.08,-394.32 527.94,-380.8"/>
<polygon fill="#c62828" stroke="#c62828" points="529.07,-377.47 518.53,-378.58 527.46,-384.28 529.07,-377.47"/>
<text xml:space="preserve" text-anchor="middle" x="795.53" y="-440.45" font-family="Helvetica,sans-Serif" font-size="9.00" fill="#c62828">Cypher</text>
<text xml:space="preserve" text-anchor="middle" x="795.53" y="-430.7" font-family="Helvetica,sans-Serif" font-size="9.00" fill="#c62828">query</text>
</g>
<!-- synthesize -->
<g id="node18" class="node">
<title>synthesize</title>
<polygon fill="#ffe0b2" stroke="#e65100" points="1085.25,-382.88 923,-382.88 923,-324.62 1085.25,-324.62 1085.25,-382.88"/>
<text xml:space="preserve" text-anchor="middle" x="1004.12" y="-368.43" font-family="Helvetica,sans-Serif" font-size="11.00">Synthesizer</text>
<text xml:space="preserve" text-anchor="middle" x="1004.12" y="-356.43" font-family="Helvetica,sans-Serif" font-size="11.00">━━━━━━━━━━━━━</text>
<text xml:space="preserve" text-anchor="middle" x="1004.12" y="-344.43" font-family="Helvetica,sans-Serif" font-size="11.00">Graph data → NL</text>
<text xml:space="preserve" text-anchor="middle" x="1004.12" y="-330.18" font-family="Helvetica,sans-Serif" font-size="11.00">Citations + context</text>
</g>
<!-- cypher_exec&#45;&gt;synthesize -->
<g id="edge8" class="edge">
<title>cypher_exec&#45;&gt;synthesize</title>
<path fill="none" stroke="#e65100" d="M1004.12,-490.36C1004.12,-462.88 1004.12,-423.86 1004.12,-394.72"/>
<polygon fill="#e65100" stroke="#e65100" points="1007.63,-394.81 1004.13,-384.81 1000.63,-394.81 1007.63,-394.81"/>
</g>
<!-- synthesize&#45;&gt;api_chat -->
<g id="edge22" class="edge">
<title>synthesize&#45;&gt;api_chat</title>
<path fill="none" stroke="#e65100" stroke-dasharray="5,2" d="M934.85,-324.27C872.33,-298.55 780.46,-260.78 715.54,-234.08"/>
<polygon fill="#e65100" stroke="#e65100" points="716.93,-230.87 706.35,-230.31 714.27,-237.35 716.93,-230.87"/>
<text xml:space="preserve" text-anchor="middle" x="836.12" y="-269.45" font-family="Helvetica,sans-Serif" font-size="9.00" fill="#bf360c">answer</text>
</g>
<!-- synthesize&#45;&gt;groq -->
<g id="edge29" class="edge">
<title>synthesize&#45;&gt;groq</title>
<path fill="none" stroke="#f57f17" stroke-dasharray="5,2" d="M1055.16,-317.84C1088.26,-295.19 1131.46,-265.64 1165.9,-242.08"/>
<polygon fill="#f57f17" stroke="#f57f17" points="1053.29,-314.88 1047.01,-323.41 1057.24,-320.65 1053.29,-314.88"/>
<polygon fill="#f57f17" stroke="#f57f17" points="1167.84,-245 1174.11,-236.46 1163.88,-239.22 1167.84,-245"/>
</g>
<!-- direct&#45;&gt;api_chat -->
<g id="edge23" class="edge">
<title>direct&#45;&gt;api_chat</title>
<path fill="none" stroke="#e65100" stroke-dasharray="5,2" d="M842.93,-655.84C797.79,-615.58 716.79,-535.64 677.12,-449 645.7,-380.37 638.98,-291 637.9,-240.82"/>
<polygon fill="#e65100" stroke="#e65100" points="641.4,-241 637.76,-231.05 634.4,-241.1 641.4,-241"/>
<text xml:space="preserve" text-anchor="middle" x="692.12" y="-435.57" font-family="Helvetica,sans-Serif" font-size="9.00" fill="#bf360c">answer</text>
</g>
<!-- l1 -->
<g id="node23" class="node">
<title>l1</title>
<polygon fill="#fafafa" stroke="none" points="1838.5,-1793 1719.75,-1793 1719.75,-1757 1838.5,-1757 1838.5,-1793"/>
<text xml:space="preserve" text-anchor="middle" x="1779.12" y="-1772.45" font-family="Helvetica,sans-Serif" font-size="9.00">🟠 &#160;Extraction (per article)</text>
</g>
<!-- l2 -->
<g id="node24" class="node">
<title>l2</title>
<polygon fill="#fafafa" stroke="none" points="1844.88,-1663.25 1713.38,-1663.25 1713.38,-1627.25 1844.88,-1627.25 1844.88,-1663.25"/>
<text xml:space="preserve" text-anchor="middle" x="1779.12" y="-1642.7" font-family="Helvetica,sans-Serif" font-size="9.00">🟣 &#160;Resolution (cross&#45;article)</text>
</g>
<!-- l1&#45;&gt;l2 -->
<!-- l3 -->
<g id="node25" class="node">
<title>l3</title>
<polygon fill="#fafafa" stroke="none" points="1837,-1497.25 1721.25,-1497.25 1721.25,-1461.25 1837,-1461.25 1837,-1497.25"/>
<text xml:space="preserve" text-anchor="middle" x="1779.12" y="-1476.7" font-family="Helvetica,sans-Serif" font-size="9.00">🔵 &#160;Temporal + Inference</text>
</g>
<!-- l2&#45;&gt;l3 -->
<!-- l4 -->
<g id="node26" class="node">
<title>l4</title>
<polygon fill="#fafafa" stroke="none" points="1831,-1323.25 1727.25,-1323.25 1727.25,-1287.25 1831,-1287.25 1831,-1323.25"/>
<text xml:space="preserve" text-anchor="middle" x="1779.12" y="-1302.7" font-family="Helvetica,sans-Serif" font-size="9.00">🟢 &#160;Scraper + Storage</text>
</g>
<!-- l3&#45;&gt;l4 -->
<!-- l5 -->
<g id="node27" class="node">
<title>l5</title>
<polygon fill="#fafafa" stroke="none" points="1827.62,-1163.5 1730.62,-1163.5 1730.62,-1127.5 1827.62,-1127.5 1827.62,-1163.5"/>
<text xml:space="preserve" text-anchor="middle" x="1779.12" y="-1142.95" font-family="Helvetica,sans-Serif" font-size="9.00">🔴 &#160;Neo4j Graph DB</text>
</g>
<!-- l4&#45;&gt;l5 -->
<!-- l6 -->
<g id="node28" class="node">
<title>l6</title>
<polygon fill="#fafafa" stroke="none" points="1835.5,-1011.75 1722.75,-1011.75 1722.75,-975.75 1835.5,-975.75 1835.5,-1011.75"/>
<text xml:space="preserve" text-anchor="middle" x="1779.12" y="-991.2" font-family="Helvetica,sans-Serif" font-size="9.00">🟡 &#160;LLM Provider (Groq)</text>
</g>
<!-- l5&#45;&gt;l6 -->
<!-- l7 -->
<g id="node29" class="node">
<title>l7</title>
<polygon fill="#fafafa" stroke="none" points="1844.12,-858.75 1714.12,-858.75 1714.12,-822.75 1844.12,-822.75 1844.12,-858.75"/>
<text xml:space="preserve" text-anchor="middle" x="1779.12" y="-838.2" font-family="Helvetica,sans-Serif" font-size="9.00">🔷 &#160;Chat Agent (LangGraph)</text>
</g>
<!-- l6&#45;&gt;l7 -->
</g>
</svg>
